<svg xmlns="http://www.w3.org/2000/svg" viewBox="0 0 24 24">
    <path d="M12 .5C5.65.5.5 5.65.5 12c0 5.08 3.29 9.39 7.86 10.91.58.1.79-.25.79-.56v-2.16c-3.2.7-3.87-1.36-3.87-1.36-.52-1.33-1.27-1.68-1.27-1.68-1.04-.71.08-.7.08-.7 1.15.08 1.76 1.18 1.76 1.18 1.02 1.75 2.68 1.24 3.34.95.1-.74.4-1.24.72-1.53-2.55-.29-5.23-1.28-5.23-5.68 0-1.25.45-2.28 1.18-3.08-.12-.29-.51-1.46.11-3.04 0 0 .96-.31 3.15 1.18A10.9 10.9 0 0 1 12 6.04c.98 0 1.96.13 2.88.39 2.19-1.49 3.15-1.18 3.15-1.18.62 1.58.23 2.75.11 3.04.74.8 1.18 1.83 1.18 3.08 0 4.41-2.69 5.38-5.25 5.67.41.36.77 1.06.77 2.13v3.18c0 .31.21.67.8.56A11.51 11.51 0 0 0 23.5 12C23.5 5.65 18.35.5 12 .5Z" />
</svg>
