<svg width="141" height="22" viewBox="0 0 141 22" fill="none" xmlns="http://www.w3.org/2000/svg">
<path d="M24.2545 0.926334C25.9185 0.89268 27.6739 0.908926 29.3387 0.926526L29.3361 5.62018C27.6427 5.62811 25.9494 5.62701 24.2561 5.61676C24.2373 4.0651 24.2536 2.4805 24.2545 0.926334Z" fill="#FEFEFE"/>
<path d="M8.47548 8.63115C10.0341 8.62876 11.6275 8.60858 13.1827 8.66145C13.1828 9.16122 13.2222 13.1382 13.1239 13.3011L12.8782 13.3151L8.10272 13.3091C8.11058 12.7604 8.07151 8.8751 8.1911 8.67486L8.47548 8.63115Z" fill="#FEFEFE"/>
<path d="M16.6139 8.64017C18.1013 8.61889 19.7578 8.61515 21.2373 8.66615C21.2334 9.16031 21.2862 13.1248 21.1789 13.3016L20.9343 13.3292L16.2134 13.3145C16.2111 12.0705 16.1489 9.91918 16.2393 8.74268C16.3493 8.61599 16.3957 8.6557 16.6139 8.64017Z" fill="#FEFEFE"/>
<path d="M24.6791 8.62949C26.2259 8.62872 27.8136 8.60938 29.3564 8.66205C29.351 9.1994 29.4104 13.105 29.2969 13.3001L29.0509 13.3179L24.2662 13.3101C24.2788 11.9129 24.2038 10.0928 24.2867 8.73483C24.402 8.61563 24.4731 8.64922 24.6791 8.62949Z" fill="#FEFEFE"/>
<path d="M0.00161135 16.3292C1.70226 16.3495 3.37086 16.3322 5.07002 16.3321C5.10645 16.8529 5.12708 20.6862 5.04759 21.0443C3.36499 21.0412 1.68246 21.0497 0 21.0699L0.00161135 16.3292Z" fill="#FEFEFE"/>
<path d="M13.1014 16.3452L13.1451 16.3789C13.2041 16.7144 13.1799 17.651 13.1795 18.0262L13.1853 21.0525C11.5316 21.005 9.84529 21.0768 8.17656 21.0347C8.07025 20.8873 8.10996 16.8499 8.10912 16.3636C9.67812 16.3089 11.5183 16.3327 13.1014 16.3452Z" fill="#FEFEFE"/>
<path d="M16.2565 16.3292C17.7505 16.4344 19.6878 16.3649 21.2144 16.3383C21.2262 17.911 21.2289 19.4838 21.2227 21.0566C19.5839 21.096 17.8522 21.0719 16.2093 21.0677C16.2055 19.6943 16.1474 17.6224 16.2565 16.3292Z" fill="#FEFEFE"/>
<path d="M24.2637 16.3292C25.9336 16.382 27.6571 16.3561 29.3373 16.3827C29.3236 17.931 29.3616 19.4884 29.3274 21.0353C27.9335 21.1381 25.7185 21.0701 24.2483 21.0829C24.2444 19.4983 24.2496 17.9137 24.2637 16.3292Z" fill="#FEFEFE"/>
<path d="M45.7727 8.50781C45.7131 7.94957 45.4616 7.51491 45.0185 7.20384C44.5795 6.89276 44.0085 6.73722 43.3054 6.73722C42.8111 6.73722 42.3871 6.81179 42.0334 6.96094C41.6797 7.11008 41.4091 7.3125 41.2216 7.56818C41.0341 7.82386 40.9382 8.11577 40.9339 8.44389C40.9339 8.71662 40.9957 8.95312 41.1193 9.15341C41.2472 9.35369 41.4197 9.52415 41.6371 9.66477C41.8544 9.80114 42.0952 9.91619 42.3594 10.0099C42.6236 10.1037 42.8899 10.1825 43.1584 10.2464L44.3857 10.5533C44.88 10.6683 45.3551 10.8239 45.8111 11.0199C46.2713 11.2159 46.6825 11.4631 47.0447 11.7614C47.4112 12.0597 47.701 12.4197 47.9141 12.8416C48.1271 13.2635 48.2337 13.7578 48.2337 14.3246C48.2337 15.0916 48.0376 15.767 47.6456 16.3509C47.2536 16.9304 46.6868 17.3842 45.9453 17.7124C45.2081 18.0362 44.3153 18.1982 43.267 18.1982C42.2486 18.1982 41.3643 18.0405 40.6143 17.7251C39.8686 17.4098 39.2848 16.9496 38.8629 16.3445C38.4453 15.7393 38.2195 15.0021 38.1854 14.1328H40.5185C40.5526 14.5888 40.6932 14.968 40.9403 15.2706C41.1875 15.5732 41.5092 15.799 41.9055 15.9482C42.3061 16.0973 42.7536 16.1719 43.2479 16.1719C43.7635 16.1719 44.2152 16.0952 44.603 15.9418C44.995 15.7841 45.3018 15.5668 45.5234 15.2898C45.745 15.0085 45.858 14.6804 45.8622 14.3054C45.858 13.9645 45.7578 13.6832 45.5618 13.4616C45.3658 13.2358 45.0909 13.0483 44.7372 12.8991C44.3878 12.7457 43.9787 12.6094 43.5099 12.4901L42.0206 12.1065C40.9425 11.8295 40.0902 11.4098 39.4638 10.8473C38.8416 10.2805 38.5305 9.52841 38.5305 8.59091C38.5305 7.8196 38.7393 7.14418 39.157 6.56463C39.5788 5.98509 40.152 5.53551 40.8764 5.21591C41.6009 4.89204 42.4212 4.73011 43.3374 4.73011C44.2663 4.73011 45.0803 4.89204 45.7791 5.21591C46.4822 5.53551 47.0341 5.98082 47.4347 6.55185C47.8352 7.11861 48.0419 7.7706 48.0547 8.50781H45.7727ZM50.2456 21.6818V8.18182H52.5211V9.8054H52.6554C52.7747 9.56676 52.943 9.31321 53.1603 9.04474C53.3777 8.77202 53.6717 8.53977 54.0424 8.34801C54.4132 8.15199 54.8862 8.05398 55.4615 8.05398C56.22 8.05398 56.9039 8.24787 57.5133 8.63565C58.127 9.01918 58.6127 9.58807 58.9707 10.3423C59.3329 11.0923 59.514 12.0128 59.514 13.1037C59.514 14.1818 59.3372 15.098 58.9835 15.8523C58.6298 16.6065 58.1483 17.1818 57.5389 17.5781C56.9295 17.9744 56.2392 18.1726 55.4679 18.1726C54.9054 18.1726 54.4387 18.0788 54.068 17.8913C53.6973 17.7038 53.399 17.478 53.1731 17.2138C52.9515 16.9453 52.7789 16.6918 52.6554 16.4531H52.5595V21.6818H50.2456ZM52.5147 13.0909C52.5147 13.7259 52.6042 14.282 52.7832 14.7592C52.9664 15.2365 53.2285 15.6094 53.5694 15.8778C53.9146 16.142 54.3322 16.2741 54.8223 16.2741C55.3336 16.2741 55.7619 16.1378 56.1071 15.8651C56.4522 15.5881 56.7122 15.2109 56.8869 14.7337C57.0659 14.2521 57.1554 13.7045 57.1554 13.0909C57.1554 12.4815 57.068 11.9403 56.8933 11.4673C56.7186 10.9943 56.4586 10.6236 56.1135 10.3551C55.7683 10.0866 55.3379 9.95241 54.8223 9.95241C54.3279 9.95241 53.9082 10.0824 53.563 10.3423C53.2179 10.6023 52.9558 10.9666 52.7768 11.4354C52.6021 11.9041 52.5147 12.456 52.5147 13.0909ZM64.3208 18.1982C63.6987 18.1982 63.1383 18.0874 62.6397 17.8658C62.1454 17.6399 61.7534 17.3075 61.4636 16.8686C61.1781 16.4297 61.0353 15.8885 61.0353 15.245C61.0353 14.6911 61.1376 14.233 61.3422 13.8707C61.5467 13.5085 61.8258 13.2188 62.1795 13.0014C62.5332 12.7841 62.9316 12.62 63.3748 12.5092C63.8223 12.3942 64.2846 12.3111 64.7619 12.2599C65.3372 12.2003 65.8038 12.147 66.1618 12.1001C66.5197 12.049 66.7797 11.9723 66.9416 11.87C67.1078 11.7635 67.1909 11.5994 67.1909 11.3778V11.3395C67.1909 10.858 67.0481 10.4851 66.7626 10.2209C66.4771 9.95668 66.0659 9.82457 65.5289 9.82457C64.9622 9.82457 64.5126 9.94815 64.1802 10.1953C63.8521 10.4425 63.6305 10.7344 63.5154 11.071L61.3549 10.7642C61.5254 10.1676 61.8066 9.66903 62.1987 9.26847C62.5907 8.86364 63.0701 8.56108 63.6369 8.3608C64.2037 8.15625 64.8301 8.05398 65.5162 8.05398C65.9892 8.05398 66.4601 8.10938 66.9288 8.22017C67.3976 8.33097 67.8258 8.5142 68.2136 8.76989C68.6014 9.02131 68.9125 9.36435 69.1468 9.79901C69.3855 10.2337 69.5048 10.777 69.5048 11.429V18H67.2804V16.6513H67.2037C67.063 16.924 66.8649 17.1797 66.6092 17.4183C66.3578 17.6527 66.0403 17.8423 65.6568 17.9872C65.2775 18.1278 64.8322 18.1982 64.3208 18.1982ZM64.9217 16.4979C65.3862 16.4979 65.7889 16.4062 66.1298 16.223C66.4707 16.0355 66.7328 15.7884 66.916 15.4815C67.1035 15.1747 67.1973 14.8402 67.1973 14.478V13.321C67.1248 13.3807 67.0012 13.4361 66.8265 13.4872C66.6561 13.5384 66.4643 13.5831 66.2512 13.6214C66.0382 13.6598 65.8272 13.6939 65.6184 13.7237C65.4096 13.7536 65.2285 13.7791 65.0751 13.8004C64.7299 13.8473 64.421 13.924 64.1483 14.0305C63.8755 14.1371 63.6603 14.2862 63.5027 14.478C63.345 14.6655 63.2662 14.9084 63.2662 15.2067C63.2662 15.6328 63.4217 15.9545 63.7328 16.1719C64.0439 16.3892 64.4402 16.4979 64.9217 16.4979ZM76.1142 18.1918C75.1341 18.1918 74.2924 17.9766 73.5893 17.5462C72.8904 17.1158 72.3514 16.5213 71.9721 15.7628C71.5971 15 71.4096 14.1222 71.4096 13.1293C71.4096 12.1321 71.6014 11.2521 71.9849 10.4893C72.3684 9.7223 72.9096 9.12571 73.6085 8.69957C74.3116 8.26918 75.1426 8.05398 76.1014 8.05398C76.8983 8.05398 77.6035 8.20099 78.2172 8.49503C78.8351 8.7848 79.3272 9.19602 79.6937 9.72869C80.0602 10.2571 80.269 10.875 80.3201 11.5824H78.1085C78.019 11.1094 77.8059 10.7152 77.4693 10.3999C77.1369 10.0803 76.6916 9.92045 76.1333 9.92045C75.6603 9.92045 75.2449 10.0483 74.8869 10.304C74.5289 10.5554 74.2498 10.9176 74.0495 11.3906C73.8535 11.8636 73.7555 12.4304 73.7555 13.0909C73.7555 13.7599 73.8535 14.3352 74.0495 14.8168C74.2456 15.294 74.5204 15.6626 74.8741 15.9226C75.2321 16.1783 75.6518 16.3061 76.1333 16.3061C76.4743 16.3061 76.7789 16.2422 77.0474 16.1143C77.3201 15.9822 77.5481 15.7926 77.7314 15.5455C77.9146 15.2983 78.0403 14.9979 78.1085 14.6442H80.3201C80.2647 15.3388 80.0602 15.9545 79.7065 16.4915C79.3528 17.0241 78.8713 17.4418 78.2619 17.7443C77.6525 18.0426 76.9366 18.1918 76.1142 18.1918ZM86.5668 18.1918C85.5824 18.1918 84.7322 17.9872 84.0163 17.5781C83.3047 17.1648 82.7571 16.581 82.3736 15.8267C81.9901 15.0682 81.7983 14.1754 81.7983 13.1484C81.7983 12.1385 81.9901 11.2521 82.3736 10.4893C82.7614 9.7223 83.3026 9.12571 83.9972 8.69957C84.6918 8.26918 85.5078 8.05398 86.4453 8.05398C87.0504 8.05398 87.6214 8.15199 88.1584 8.34801C88.6996 8.53977 89.1768 8.83807 89.5902 9.2429C90.0078 9.64773 90.3359 10.1634 90.5746 10.7898C90.8132 11.4119 90.9325 12.1534 90.9325 13.0142V13.7237H82.8849V12.1641H88.7145C88.7102 11.7209 88.6143 11.3267 88.4268 10.9815C88.2393 10.6321 87.9773 10.3572 87.6406 10.157C87.3082 9.95668 86.9205 9.85653 86.4773 9.85653C86.0043 9.85653 85.5888 9.97159 85.2308 10.2017C84.8729 10.4276 84.5938 10.7259 84.3935 11.0966C84.1974 11.4631 84.0973 11.8658 84.093 12.3047V13.6662C84.093 14.2372 84.1974 14.7273 84.4062 15.1364C84.6151 15.5412 84.907 15.8523 85.282 16.0696C85.657 16.2827 86.0959 16.3892 86.5987 16.3892C86.9354 16.3892 87.2401 16.3423 87.5128 16.2486C87.7855 16.1506 88.022 16.0078 88.2223 15.8203C88.4226 15.6328 88.5739 15.4006 88.6761 15.1236L90.8366 15.3665C90.7003 15.9375 90.4403 16.4361 90.0568 16.8622C89.6776 17.2841 89.1918 17.6122 88.5994 17.8466C88.0071 18.0767 87.3295 18.1918 86.5668 18.1918ZM100.107 8.50781C100.047 7.94957 99.7956 7.51491 99.3525 7.20384C98.9135 6.89276 98.3425 6.73722 97.6394 6.73722C97.1451 6.73722 96.7211 6.81179 96.3674 6.96094C96.0137 7.11008 95.7431 7.3125 95.5556 7.56818C95.3681 7.82386 95.2722 8.11577 95.2679 8.44389C95.2679 8.71662 95.3297 8.95312 95.4533 9.15341C95.5811 9.35369 95.7537 9.52415 95.9711 9.66477C96.1884 9.80114 96.4292 9.91619 96.6934 10.0099C96.9576 10.1037 97.2239 10.1825 97.4924 10.2464L98.7196 10.5533C99.214 10.6683 99.6891 10.8239 100.145 11.0199C100.605 11.2159 101.017 11.4631 101.379 11.7614C101.745 12.0597 102.035 12.4197 102.248 12.8416C102.461 13.2635 102.568 13.7578 102.568 14.3246C102.568 15.0916 102.372 15.767 101.98 16.3509C101.588 16.9304 101.021 17.3842 100.279 17.7124C99.5421 18.0362 98.6493 18.1982 97.601 18.1982C96.5826 18.1982 95.6983 18.0405 94.9483 17.7251C94.2026 17.4098 93.6188 16.9496 93.1969 16.3445C92.7793 15.7393 92.5534 15.0021 92.5194 14.1328H94.8525C94.8865 14.5888 95.0272 14.968 95.2743 15.2706C95.5215 15.5732 95.8432 15.799 96.2395 15.9482C96.6401 16.0973 97.0875 16.1719 97.5819 16.1719C98.0975 16.1719 98.5492 16.0952 98.937 15.9418C99.329 15.7841 99.6358 15.5668 99.8574 15.2898C100.079 15.0085 100.192 14.6804 100.196 14.3054C100.192 13.9645 100.092 13.6832 99.8958 13.4616C99.6998 13.2358 99.4249 13.0483 99.0712 12.8991C98.7218 12.7457 98.3127 12.6094 97.8439 12.4901L96.3546 12.1065C95.2765 11.8295 94.4242 11.4098 93.7978 10.8473C93.1756 10.2805 92.8645 9.52841 92.8645 8.59091C92.8645 7.8196 93.0733 7.14418 93.4909 6.56463C93.9128 5.98509 94.486 5.53551 95.2104 5.21591C95.9348 4.89204 96.7551 4.73011 97.6713 4.73011C98.6003 4.73011 99.4142 4.89204 100.113 5.21591C100.816 5.53551 101.368 5.98082 101.769 6.55185C102.169 7.11861 102.376 7.7706 102.389 8.50781H100.107ZM108.862 18.1918C107.882 18.1918 107.04 17.9766 106.337 17.5462C105.638 17.1158 105.099 16.5213 104.72 15.7628C104.345 15 104.158 14.1222 104.158 13.1293C104.158 12.1321 104.349 11.2521 104.733 10.4893C105.116 9.7223 105.658 9.12571 106.357 8.69957C107.06 8.26918 107.891 8.05398 108.849 8.05398C109.646 8.05398 110.352 8.20099 110.965 8.49503C111.583 8.7848 112.075 9.19602 112.442 9.72869C112.808 10.2571 113.017 10.875 113.068 11.5824H110.857C110.767 11.1094 110.554 10.7152 110.217 10.3999C109.885 10.0803 109.44 9.92045 108.881 9.92045C108.408 9.92045 107.993 10.0483 107.635 10.304C107.277 10.5554 106.998 10.9176 106.798 11.3906C106.602 11.8636 106.504 12.4304 106.504 13.0909C106.504 13.7599 106.602 14.3352 106.798 14.8168C106.994 15.294 107.268 15.6626 107.622 15.9226C107.98 16.1783 108.4 16.3061 108.881 16.3061C109.222 16.3061 109.527 16.2422 109.795 16.1143C110.068 15.9822 110.296 15.7926 110.479 15.5455C110.663 15.2983 110.788 14.9979 110.857 14.6442H113.068C113.013 15.3388 112.808 15.9545 112.455 16.4915C112.101 17.0241 111.619 17.4418 111.01 17.7443C110.401 18.0426 109.685 18.1918 108.862 18.1918ZM117.794 18.1982C117.171 18.1982 116.611 18.0874 116.112 17.8658C115.618 17.6399 115.226 17.3075 114.936 16.8686C114.651 16.4297 114.508 15.8885 114.508 15.245C114.508 14.6911 114.61 14.233 114.815 13.8707C115.019 13.5085 115.298 13.2188 115.652 13.0014C116.006 12.7841 116.404 12.62 116.847 12.5092C117.295 12.3942 117.757 12.3111 118.235 12.2599C118.81 12.2003 119.276 12.147 119.634 12.1001C119.992 12.049 120.252 11.9723 120.414 11.87C120.58 11.7635 120.664 11.5994 120.664 11.3778V11.3395C120.664 10.858 120.521 10.4851 120.235 10.2209C119.95 9.95668 119.539 9.82457 119.002 9.82457C118.435 9.82457 117.985 9.94815 117.653 10.1953C117.325 10.4425 117.103 10.7344 116.988 11.071L114.828 10.7642C114.998 10.1676 115.279 9.66903 115.671 9.26847C116.063 8.86364 116.543 8.56108 117.11 8.3608C117.676 8.15625 118.303 8.05398 118.989 8.05398C119.462 8.05398 119.933 8.10938 120.401 8.22017C120.87 8.33097 121.298 8.5142 121.686 8.76989C122.074 9.02131 122.385 9.36435 122.619 9.79901C122.858 10.2337 122.977 10.777 122.977 11.429V18H120.753V16.6513H120.676C120.536 16.924 120.338 17.1797 120.082 17.4183C119.83 17.6527 119.513 17.8423 119.129 17.9872C118.75 18.1278 118.305 18.1982 117.794 18.1982ZM118.394 16.4979C118.859 16.4979 119.262 16.4062 119.602 16.223C119.943 16.0355 120.205 15.7884 120.389 15.4815C120.576 15.1747 120.67 14.8402 120.67 14.478V13.321C120.597 13.3807 120.474 13.4361 120.299 13.4872C120.129 13.5384 119.937 13.5831 119.724 13.6214C119.511 13.6598 119.3 13.6939 119.091 13.7237C118.882 13.7536 118.701 13.7791 118.548 13.8004C118.203 13.8473 117.894 13.924 117.621 14.0305C117.348 14.1371 117.133 14.2862 116.975 14.478C116.818 14.6655 116.739 14.9084 116.739 15.2067C116.739 15.6328 116.894 15.9545 117.205 16.1719C117.517 16.3892 117.913 16.4979 118.394 16.4979ZM127.618 4.90909V18H125.304V4.90909H127.618ZM134.344 18.1918C133.36 18.1918 132.51 17.9872 131.794 17.5781C131.082 17.1648 130.534 16.581 130.151 15.8267C129.767 15.0682 129.576 14.1754 129.576 13.1484C129.576 12.1385 129.767 11.2521 130.151 10.4893C130.539 9.7223 131.08 9.12571 131.775 8.69957C132.469 8.26918 133.285 8.05398 134.223 8.05398C134.828 8.05398 135.399 8.15199 135.936 8.34801C136.477 8.53977 136.954 8.83807 137.368 9.2429C137.785 9.64773 138.113 10.1634 138.352 10.7898C138.591 11.4119 138.71 12.1534 138.71 13.0142V13.7237H130.662V12.1641H136.492C136.488 11.7209 136.392 11.3267 136.204 10.9815C136.017 10.6321 135.755 10.3572 135.418 10.157C135.086 9.95668 134.698 9.85653 134.255 9.85653C133.782 9.85653 133.366 9.97159 133.008 10.2017C132.65 10.4276 132.371 10.7259 132.171 11.0966C131.975 11.4631 131.875 11.8658 131.87 12.3047V13.6662C131.87 14.2372 131.975 14.7273 132.184 15.1364C132.392 15.5412 132.684 15.8523 133.059 16.0696C133.434 16.2827 133.873 16.3892 134.376 16.3892C134.713 16.3892 135.017 16.3423 135.29 16.2486C135.563 16.1506 135.799 16.0078 136 15.8203C136.2 15.6328 136.351 15.4006 136.453 15.1236L138.614 15.3665C138.478 15.9375 138.218 16.4361 137.834 16.8622C137.455 17.2841 136.969 17.6122 136.377 17.8466C135.784 18.0767 135.107 18.1918 134.344 18.1918Z" fill="#F5F7FA"/>
</svg>
