<svg width="224" height="256" viewBox="0 0 224 256" fill="none" xmlns="http://www.w3.org/2000/svg">
<path d="M21.5156 154.853L112.104 201.01L202.692 154.853L112.104 108.696L21.5156 154.853Z" stroke="#8C94A1" stroke-width="0.566176" stroke-dasharray="5.66 3.4"/>
<path d="M21.5156 154.853V168.7L112.104 214.857L202.692 168.7V154.853" stroke="#8C94A1" stroke-width="0.566176" stroke-dasharray="5.66 3.4"/>
<path d="M112.104 201.01V214.857" stroke="#8C94A1" stroke-width="0.566176" stroke-dasharray="5.66 3.4"/>
<path d="M21.5156 131.774L112.104 177.931L202.692 131.774L112.104 85.6172L21.5156 131.774Z" stroke="#8C94A1" stroke-width="0.566176" stroke-dasharray="5.66 3.4"/>
<path d="M21.5156 131.774V145.621L112.104 191.778L202.692 145.621V131.774" stroke="#8C94A1" stroke-width="0.566176" stroke-dasharray="5.66 3.4"/>
<path d="M112.104 177.931V191.778" stroke="#8C94A1" stroke-width="0.566176" stroke-dasharray="5.66 3.4"/>
<path d="M21.5156 108.696L112.104 154.853L202.692 108.696L112.104 62.5386L21.5156 108.696Z" stroke="#8C94A1" stroke-width="0.566176" stroke-dasharray="5.66 3.4"/>
<path d="M21.5156 108.696V122.543L112.104 168.7L202.692 122.543V108.696" stroke="#8C94A1" stroke-width="0.566176" stroke-dasharray="5.66 3.4"/>
<path d="M112.104 154.853V168.7" stroke="#8C94A1" stroke-width="0.566176" stroke-dasharray="5.66 3.4"/>
<path d="M71.3379 37.1525L112.103 57.9231L152.867 37.1525L112.103 16.3818L71.3379 37.1525Z" stroke="#66D9A5" stroke-width="0.792647"/>
<path d="M71.3379 37.1523V64.8465L112.103 85.6172L152.867 64.8465V37.1523" stroke="#66D9A5" stroke-width="0.792647"/>
<path d="M112.104 57.9229V85.6171" stroke="#66D9A5" stroke-width="0.792647"/>
<path opacity="0.270192" d="M112.104 60.2307C124.612 60.2307 134.751 49.8981 134.751 37.1522C134.751 24.4063 124.612 14.0737 112.104 14.0737C99.5965 14.0737 89.457 24.4063 89.457 37.1522C89.457 49.8981 99.5965 60.2307 112.104 60.2307Z" stroke="#66D9A5" stroke-width="0.452941"/>
<path opacity="0.5354" d="M112.102 74.0778C132.115 74.0778 148.338 57.5456 148.338 37.1522C148.338 16.7587 132.115 0.226562 112.102 0.226562C92.0903 0.226562 75.8672 16.7587 75.8672 37.1522C75.8672 57.5456 92.0903 74.0778 112.102 74.0778Z" stroke="#66D9A5" stroke-width="0.452941"/>
<path opacity="0.4" d="M44.1621 74.0782C55.4856 50.9996 78.1327 27.9211 112.103 37.1525" stroke="#66D9A5" stroke-width="0.566176" stroke-dasharray="3.4 5.66"/>
<path opacity="0.4" d="M180.045 74.0782C168.721 50.9996 146.074 27.9211 112.104 37.1525" stroke="#66D9A5" stroke-width="0.566176" stroke-dasharray="3.4 5.66"/>
<path opacity="0.4" d="M112.104 108.696C112.104 85.6172 112.104 62.5387 112.104 37.1523" stroke="#66D9A5" stroke-width="0.566176" stroke-dasharray="3.4 5.66"/>
<path d="M66.7691 224.898H68.1395L70.8803 229.511H70.9961L73.737 224.898H75.1074L71.5366 230.708V234.78H70.3399V230.708L66.7691 224.898ZM78.4634 234.935C77.7943 234.935 77.2072 234.775 76.7021 234.457C76.2003 234.138 75.8078 233.693 75.5248 233.12C75.2449 232.548 75.1049 231.879 75.1049 231.113C75.1049 230.341 75.2449 229.667 75.5248 229.091C75.8078 228.515 76.2003 228.068 76.7021 227.75C77.2072 227.431 77.7943 227.272 78.4634 227.272C79.1325 227.272 79.718 227.431 80.2198 227.75C80.7249 228.068 81.1174 228.515 81.3972 229.091C81.6803 229.667 81.8219 230.341 81.8219 231.113C81.8219 231.879 81.6803 232.548 81.3972 233.12C81.1174 233.693 80.7249 234.138 80.2198 234.457C79.718 234.775 79.1325 234.935 78.4634 234.935ZM78.4634 233.912C78.9717 233.912 79.3899 233.781 79.718 233.521C80.0461 233.26 80.289 232.918 80.4466 232.493C80.6043 232.068 80.6831 231.608 80.6831 231.113C80.6831 230.618 80.6043 230.156 80.4466 229.728C80.289 229.3 80.0461 228.954 79.718 228.691C79.3899 228.427 78.9717 228.295 78.4634 228.295C77.9551 228.295 77.5369 228.427 77.2088 228.691C76.8807 228.954 76.6378 229.3 76.4802 229.728C76.3226 230.156 76.2437 230.618 76.2437 231.113C76.2437 231.608 76.3226 232.068 76.4802 232.493C76.6378 232.918 76.8807 233.26 77.2088 233.521C77.5369 233.781 77.9551 233.912 78.4634 233.912ZM88.2312 231.75V227.369H89.3699V234.78H88.2312V233.526H88.154C87.9802 233.902 87.71 234.222 87.3433 234.486C86.9766 234.746 86.5133 234.877 85.9536 234.877C85.4903 234.877 85.0786 234.775 84.7183 234.573C84.358 234.367 84.0749 234.058 83.869 233.646C83.6631 233.231 83.5602 232.709 83.5602 232.078V227.369H84.699V232.001C84.699 232.541 84.8502 232.972 85.1526 233.294C85.4582 233.616 85.8474 233.777 86.3203 233.777C86.6034 233.777 86.8913 233.704 87.1841 233.559C87.48 233.415 87.7277 233.193 87.9272 232.894C88.1298 232.594 88.2312 232.213 88.2312 231.75ZM91.4557 234.78V227.369H92.5559V228.488H92.6331C92.7682 228.121 93.0127 227.824 93.3666 227.595C93.7204 227.367 94.1193 227.253 94.5632 227.253C94.6469 227.253 94.7514 227.254 94.8769 227.258C95.0024 227.261 95.0973 227.266 95.1616 227.272V228.43C95.123 228.42 95.0345 228.406 94.8962 228.387C94.7611 228.364 94.6179 228.353 94.4667 228.353C94.1064 228.353 93.7848 228.428 93.5017 228.58C93.2218 228.728 92.9998 228.934 92.8358 229.197C92.6749 229.458 92.5945 229.755 92.5945 230.09V234.78H91.4557ZM102.012 234.78L99.7541 227.369H100.951L102.553 233.043H102.63L104.213 227.369H105.429L106.992 233.024H107.069L108.671 227.369H109.868L107.61 234.78H106.49L104.869 229.086H104.753L103.132 234.78H102.012ZM114.133 234.935C113.463 234.935 112.876 234.775 112.371 234.457C111.869 234.138 111.477 233.693 111.194 233.12C110.914 232.548 110.774 231.879 110.774 231.113C110.774 230.341 110.914 229.667 111.194 229.091C111.477 228.515 111.869 228.068 112.371 227.75C112.876 227.431 113.463 227.272 114.133 227.272C114.802 227.272 115.387 227.431 115.889 227.75C116.394 228.068 116.786 228.515 117.066 229.091C117.349 229.667 117.491 230.341 117.491 231.113C117.491 231.879 117.349 232.548 117.066 233.12C116.786 233.693 116.394 234.138 115.889 234.457C115.387 234.775 114.802 234.935 114.133 234.935ZM114.133 233.912C114.641 233.912 115.059 233.781 115.387 233.521C115.715 233.26 115.958 232.918 116.116 232.493C116.273 232.068 116.352 231.608 116.352 231.113C116.352 230.618 116.273 230.156 116.116 229.728C115.958 229.3 115.715 228.954 115.387 228.691C115.059 228.427 114.641 228.295 114.133 228.295C113.624 228.295 113.206 228.427 112.878 228.691C112.55 228.954 112.307 229.3 112.149 229.728C111.992 230.156 111.913 230.618 111.913 231.113C111.913 231.608 111.992 232.068 112.149 232.493C112.307 232.918 112.55 233.26 112.878 233.521C113.206 233.781 113.624 233.912 114.133 233.912ZM119.229 234.78V227.369H120.33V228.488H120.407C120.542 228.121 120.786 227.824 121.14 227.595C121.494 227.367 121.893 227.253 122.337 227.253C122.42 227.253 122.525 227.254 122.651 227.258C122.776 227.261 122.871 227.266 122.935 227.272V228.43C122.897 228.42 122.808 228.406 122.67 228.387C122.535 228.364 122.392 228.353 122.24 228.353C121.88 228.353 121.558 228.428 121.275 228.58C120.995 228.728 120.773 228.934 120.609 229.197C120.449 229.458 120.368 229.755 120.368 230.09V234.78H119.229ZM125.347 232.078L125.327 230.669H125.559L128.802 227.369H130.211L126.756 230.862H126.659L125.347 232.078ZM124.285 234.78V224.898H125.424V234.78H124.285ZM128.995 234.78L126.099 231.113L126.91 230.322L130.442 234.78H128.995ZM132.815 224.898V234.78H131.676V224.898H132.815ZM137.912 234.935C137.243 234.935 136.656 234.775 136.151 234.457C135.649 234.138 135.256 233.693 134.973 233.12C134.693 232.548 134.553 231.879 134.553 231.113C134.553 230.341 134.693 229.667 134.973 229.091C135.256 228.515 135.649 228.068 136.151 227.75C136.656 227.431 137.243 227.272 137.912 227.272C138.581 227.272 139.167 227.431 139.668 227.75C140.173 228.068 140.566 228.515 140.846 229.091C141.129 229.667 141.27 230.341 141.27 231.113C141.27 231.879 141.129 232.548 140.846 233.12C140.566 233.693 140.173 234.138 139.668 234.457C139.167 234.775 138.581 234.935 137.912 234.935ZM137.912 233.912C138.42 233.912 138.838 233.781 139.167 233.521C139.495 233.26 139.738 232.918 139.895 232.493C140.053 232.068 140.132 231.608 140.132 231.113C140.132 230.618 140.053 230.156 139.895 229.728C139.738 229.3 139.495 228.954 139.167 228.691C138.838 228.427 138.42 228.295 137.912 228.295C137.404 228.295 136.985 228.427 136.657 228.691C136.329 228.954 136.086 229.3 135.929 229.728C135.771 230.156 135.692 230.618 135.692 231.113C135.692 231.608 135.771 232.068 135.929 232.493C136.086 232.918 136.329 233.26 136.657 233.521C136.985 233.781 137.404 233.912 137.912 233.912ZM145.19 234.954C144.72 234.954 144.294 234.866 143.911 234.689C143.528 234.508 143.224 234.249 142.999 233.912C142.774 233.571 142.661 233.159 142.661 232.676C142.661 232.252 142.745 231.908 142.912 231.644C143.08 231.377 143.303 231.168 143.583 231.016C143.863 230.865 144.172 230.753 144.509 230.679C144.85 230.602 145.193 230.54 145.537 230.495C145.988 230.437 146.353 230.394 146.633 230.365C146.916 230.333 147.122 230.28 147.25 230.206C147.382 230.132 147.448 230.003 147.448 229.82V229.781C147.448 229.305 147.318 228.935 147.057 228.671C146.8 228.408 146.409 228.276 145.885 228.276C145.341 228.276 144.915 228.395 144.606 228.633C144.297 228.871 144.08 229.125 143.955 229.395L142.874 229.009C143.067 228.559 143.324 228.208 143.646 227.957C143.971 227.703 144.324 227.526 144.707 227.426C145.093 227.323 145.473 227.272 145.846 227.272C146.084 227.272 146.358 227.301 146.666 227.359C146.978 227.414 147.279 227.528 147.569 227.701C147.861 227.875 148.104 228.137 148.297 228.488C148.49 228.839 148.587 229.308 148.587 229.897V234.78H147.448V233.777H147.39C147.313 233.937 147.184 234.11 147.004 234.293C146.824 234.476 146.584 234.632 146.285 234.761C145.986 234.89 145.621 234.954 145.19 234.954ZM145.364 233.931C145.814 233.931 146.193 233.843 146.502 233.666C146.814 233.489 147.049 233.26 147.207 232.98C147.368 232.701 147.448 232.406 147.448 232.097V231.055C147.4 231.113 147.294 231.166 147.13 231.214C146.969 231.259 146.782 231.3 146.57 231.335C146.361 231.367 146.156 231.396 145.957 231.422C145.761 231.444 145.602 231.464 145.479 231.48C145.183 231.518 144.907 231.581 144.649 231.668C144.395 231.752 144.189 231.879 144.032 232.049C143.877 232.216 143.8 232.445 143.8 232.734C143.8 233.13 143.946 233.429 144.239 233.632C144.535 233.831 144.91 233.931 145.364 233.931ZM153.464 234.935C152.846 234.935 152.301 234.779 151.828 234.467C151.355 234.151 150.985 233.707 150.718 233.135C150.451 232.559 150.318 231.879 150.318 231.094C150.318 230.315 150.451 229.64 150.718 229.067C150.985 228.494 151.357 228.052 151.833 227.74C152.309 227.428 152.859 227.272 153.483 227.272C153.966 227.272 154.347 227.352 154.627 227.513C154.91 227.671 155.126 227.851 155.274 228.054C155.425 228.253 155.542 228.417 155.626 228.546H155.722V224.898H156.861V234.78H155.761V233.641H155.626C155.542 233.777 155.423 233.947 155.269 234.153C155.114 234.356 154.894 234.537 154.608 234.698C154.321 234.856 153.94 234.935 153.464 234.935ZM153.619 233.912C154.075 233.912 154.461 233.793 154.777 233.555C155.092 233.313 155.332 232.98 155.496 232.556C155.66 232.128 155.742 231.634 155.742 231.074C155.742 230.521 155.661 230.037 155.5 229.622C155.34 229.204 155.102 228.879 154.786 228.647C154.471 228.412 154.082 228.295 153.619 228.295C153.136 228.295 152.734 228.419 152.412 228.667C152.094 228.911 151.854 229.244 151.693 229.665C151.536 230.084 151.457 230.553 151.457 231.074C151.457 231.602 151.537 232.081 151.698 232.512C151.862 232.94 152.103 233.281 152.422 233.535C152.744 233.786 153.142 233.912 153.619 233.912Z" fill="#8C94A1"/>
<path d="M4.50829 252.089H1.45866V242.207H4.6434C5.60204 242.207 6.42236 242.405 7.10434 242.801C7.78633 243.193 8.30908 243.758 8.67259 244.494C9.0361 245.228 9.21785 246.106 9.21785 247.129C9.21785 248.158 9.03449 249.045 8.66776 249.788C8.30103 250.528 7.76703 251.097 7.06574 251.496C6.36445 251.892 5.51197 252.089 4.50829 252.089ZM2.65535 251.028H4.43109C5.24818 251.028 5.92534 250.87 6.46257 250.555C6.99979 250.24 7.4003 249.791 7.66408 249.209C7.92787 248.626 8.05976 247.933 8.05976 247.129C8.05976 246.331 7.92948 245.644 7.66891 245.068C7.40834 244.489 7.01909 244.045 6.50117 243.737C5.98325 243.425 5.33826 243.269 4.5662 243.269H2.65535V251.028ZM14.1783 252.244C13.4642 252.244 12.8481 252.086 12.3302 251.771C11.8155 251.452 11.4182 251.008 11.1383 250.439C10.8617 249.866 10.7234 249.201 10.7234 248.441C10.7234 247.682 10.8617 247.013 11.1383 246.434C11.4182 245.852 11.8075 245.398 12.3061 245.073C12.8079 244.745 13.3934 244.581 14.0625 244.581C14.4486 244.581 14.8298 244.645 15.2061 244.774C15.5825 244.903 15.9251 245.112 16.2339 245.401C16.5428 245.688 16.7889 246.067 16.9722 246.54C17.1556 247.013 17.2473 247.595 17.2473 248.287V248.77H11.534V247.785H16.0892C16.0892 247.367 16.0055 246.994 15.8383 246.666C15.6742 246.338 15.4394 246.079 15.1338 245.889C14.8314 245.699 14.4743 245.604 14.0625 245.604C13.6089 245.604 13.2165 245.717 12.8851 245.942C12.557 246.164 12.3045 246.453 12.1275 246.81C11.9506 247.167 11.8622 247.55 11.8622 247.959V248.615C11.8622 249.175 11.9587 249.649 12.1517 250.039C12.3479 250.425 12.6197 250.719 12.9672 250.922C13.3146 251.121 13.7183 251.221 14.1783 251.221C14.4775 251.221 14.7477 251.179 14.989 251.095C15.2335 251.008 15.4442 250.88 15.6211 250.709C15.798 250.536 15.9348 250.32 16.0313 250.063L17.1315 250.372C17.0156 250.745 16.821 251.073 16.5476 251.356C16.2741 251.636 15.9364 251.855 15.5343 252.012C15.1321 252.167 14.6802 252.244 14.1783 252.244ZM21.7783 252.244C21.1606 252.244 20.6154 252.088 20.1425 251.776C19.6696 251.46 19.2997 251.017 19.0327 250.444C18.7656 249.868 18.6321 249.188 18.6321 248.403C18.6321 247.624 18.7656 246.949 19.0327 246.376C19.2997 245.804 19.6712 245.361 20.1473 245.049C20.6234 244.737 21.1735 244.581 21.7976 244.581C22.2801 244.581 22.6613 244.662 22.9412 244.822C23.2243 244.98 23.4398 245.16 23.5878 245.363C23.739 245.562 23.8564 245.726 23.94 245.855H24.0366V242.207H25.1753V252.089H24.0752V250.951H23.94C23.8564 251.086 23.7374 251.256 23.583 251.462C23.4286 251.665 23.2082 251.846 22.9219 252.007C22.6356 252.165 22.2544 252.244 21.7783 252.244ZM21.9327 251.221C22.3895 251.221 22.7755 251.102 23.0908 250.864C23.406 250.622 23.6457 250.289 23.8098 249.865C23.9738 249.437 24.0559 248.943 24.0559 248.383C24.0559 247.83 23.9754 247.346 23.8146 246.931C23.6537 246.513 23.4157 246.188 23.1004 245.956C22.7852 245.721 22.3959 245.604 21.9327 245.604C21.4502 245.604 21.048 245.728 20.7264 245.976C20.4079 246.22 20.1682 246.553 20.0074 246.974C19.8497 247.393 19.7709 247.862 19.7709 248.383C19.7709 248.911 19.8514 249.39 20.0122 249.821C20.1763 250.249 20.4175 250.59 20.736 250.844C21.0577 251.095 21.4566 251.221 21.9327 251.221ZM27.4191 252.089V244.678H28.5579V252.089H27.4191ZM27.9982 243.442C27.7762 243.442 27.5848 243.367 27.424 243.216C27.2663 243.064 27.1875 242.883 27.1875 242.67C27.1875 242.458 27.2663 242.276 27.424 242.125C27.5848 241.974 27.7762 241.898 27.9982 241.898C28.2202 241.898 28.4099 241.974 28.5676 242.125C28.7284 242.276 28.8088 242.458 28.8088 242.67C28.8088 242.883 28.7284 243.064 28.5676 243.216C28.4099 243.367 28.2202 243.442 27.9982 243.442ZM33.6547 252.244C32.9599 252.244 32.3615 252.08 31.8597 251.752C31.3578 251.423 30.9718 250.971 30.7016 250.396C30.4314 249.82 30.2963 249.162 30.2963 248.422C30.2963 247.669 30.4346 247.005 30.7112 246.429C30.9911 245.85 31.3804 245.398 31.879 245.073C32.3808 244.745 32.9663 244.581 33.6354 244.581C34.1566 244.581 34.6262 244.678 35.0444 244.871C35.4626 245.064 35.8052 245.334 36.0722 245.681C36.3392 246.029 36.5049 246.434 36.5692 246.897H35.4305C35.3436 246.559 35.1506 246.26 34.8514 246C34.5555 245.736 34.1566 245.604 33.6547 245.604C33.2108 245.604 32.8215 245.72 32.487 245.951C32.1556 246.18 31.8967 246.503 31.7101 246.921C31.5267 247.336 31.4351 247.824 31.4351 248.383C31.4351 248.956 31.5251 249.455 31.7053 249.879C31.8886 250.304 32.146 250.634 32.4773 250.869C32.8119 251.103 33.2044 251.221 33.6547 251.221C33.9507 251.221 34.2193 251.169 34.4606 251.066C34.7018 250.963 34.9061 250.815 35.0734 250.622C35.2407 250.429 35.3597 250.198 35.4305 249.928H36.5692C36.5049 250.365 36.3457 250.759 36.0915 251.11C35.8406 251.457 35.5077 251.734 35.0927 251.94C34.6809 252.142 34.2016 252.244 33.6547 252.244ZM40.4151 252.263C39.9454 252.263 39.5192 252.175 39.1363 251.998C38.7535 251.818 38.4495 251.559 38.2243 251.221C37.9992 250.88 37.8866 250.468 37.8866 249.985C37.8866 249.561 37.9702 249.217 38.1375 248.953C38.3048 248.686 38.5283 248.477 38.8082 248.326C39.0881 248.174 39.3969 248.062 39.7347 247.988C40.0757 247.911 40.4183 247.849 40.7625 247.804C41.2129 247.747 41.578 247.703 41.8578 247.674C42.1409 247.642 42.3468 247.589 42.4755 247.515C42.6074 247.441 42.6733 247.312 42.6733 247.129V247.09C42.6733 246.614 42.543 246.244 42.2825 245.98C42.0251 245.717 41.6343 245.585 41.1099 245.585C40.5663 245.585 40.14 245.704 39.8312 245.942C39.5224 246.18 39.3052 246.434 39.1798 246.704L38.0989 246.318C38.2919 245.868 38.5493 245.517 38.8709 245.266C39.1959 245.012 39.5497 244.835 39.9325 244.735C40.3186 244.633 40.6981 244.581 41.0713 244.581C41.3094 244.581 41.5828 244.61 41.8916 244.668C42.2037 244.723 42.5044 244.837 42.794 245.011C43.0867 245.184 43.3296 245.446 43.5226 245.797C43.7156 246.148 43.8121 246.617 43.8121 247.206V252.089H42.6733V251.086H42.6154C42.5382 251.247 42.4095 251.419 42.2294 251.602C42.0493 251.785 41.8096 251.941 41.5104 252.07C41.2112 252.199 40.8461 252.263 40.4151 252.263ZM40.5888 251.24C41.0391 251.24 41.4187 251.152 41.7276 250.975C42.0396 250.798 42.2744 250.569 42.4321 250.289C42.5929 250.01 42.6733 249.715 42.6733 249.406V248.364C42.6251 248.422 42.5189 248.475 42.3549 248.523C42.194 248.568 42.0074 248.609 41.7951 248.644C41.586 248.676 41.3817 248.705 41.1823 248.731C40.9861 248.753 40.8268 248.773 40.7046 248.789C40.4086 248.827 40.132 248.89 39.8746 248.977C39.6205 249.061 39.4146 249.188 39.257 249.358C39.1026 249.525 39.0254 249.754 39.0254 250.043C39.0254 250.439 39.1717 250.738 39.4645 250.941C39.7604 251.14 40.1352 251.24 40.5888 251.24ZM49.114 244.678V245.643H45.273V244.678H49.114ZM46.3925 242.902H47.5313V249.966C47.5313 250.288 47.5779 250.529 47.6712 250.69C47.7677 250.848 47.89 250.954 48.0379 251.008C48.1891 251.06 48.3484 251.086 48.5156 251.086C48.6411 251.086 48.7441 251.079 48.8245 251.066C48.9049 251.05 48.9692 251.037 49.0175 251.028L49.2491 252.051C49.1719 252.08 49.0641 252.109 48.9258 252.138C48.7875 252.17 48.6122 252.186 48.3998 252.186C48.0781 252.186 47.7629 252.117 47.4541 251.978C47.1485 251.84 46.8943 251.629 46.6917 251.346C46.4922 251.063 46.3925 250.706 46.3925 250.275V242.902ZM53.8549 252.244C53.1408 252.244 52.5247 252.086 52.0068 251.771C51.4921 251.452 51.0948 251.008 50.8149 250.439C50.5383 249.866 50.4 249.201 50.4 248.441C50.4 247.682 50.5383 247.013 50.8149 246.434C51.0948 245.852 51.4841 245.398 51.9827 245.073C52.4845 244.745 53.07 244.581 53.7391 244.581C54.1251 244.581 54.5063 244.645 54.8827 244.774C55.2591 244.903 55.6017 245.112 55.9105 245.401C56.2193 245.688 56.4654 246.067 56.6488 246.54C56.8322 247.013 56.9239 247.595 56.9239 248.287V248.77H51.2106V247.785H55.7658C55.7658 247.367 55.6821 246.994 55.5148 246.666C55.3508 246.338 55.1159 246.079 54.8103 245.889C54.508 245.699 54.1509 245.604 53.7391 245.604C53.2855 245.604 52.8931 245.717 52.5617 245.942C52.2336 246.164 51.9811 246.453 51.8041 246.81C51.6272 247.167 51.5387 247.55 51.5387 247.959V248.615C51.5387 249.175 51.6352 249.649 51.8283 250.039C52.0245 250.425 52.2963 250.719 52.6438 250.922C52.9912 251.121 53.3949 251.221 53.8549 251.221C54.1541 251.221 54.4243 251.179 54.6656 251.095C54.9101 251.008 55.1208 250.88 55.2977 250.709C55.4746 250.536 55.6114 250.32 55.7079 250.063L56.808 250.372C56.6922 250.745 56.4976 251.073 56.2242 251.356C55.9507 251.636 55.613 251.855 55.2108 252.012C54.8087 252.167 54.3568 252.244 53.8549 252.244ZM61.4549 252.244C60.8372 252.244 60.292 252.088 59.8191 251.776C59.3462 251.46 58.9762 251.017 58.7092 250.444C58.4422 249.868 58.3087 249.188 58.3087 248.403C58.3087 247.624 58.4422 246.949 58.7092 246.376C58.9762 245.804 59.3478 245.361 59.8239 245.049C60.3 244.737 60.8501 244.581 61.4742 244.581C61.9567 244.581 62.3379 244.662 62.6178 244.822C62.9009 244.98 63.1164 245.16 63.2644 245.363C63.4156 245.562 63.533 245.726 63.6166 245.855H63.7131V242.207H64.8519V252.089H63.7517V250.951H63.6166C63.533 251.086 63.414 251.256 63.2596 251.462C63.1051 251.665 62.8848 251.846 62.5985 252.007C62.3122 252.165 61.931 252.244 61.4549 252.244ZM61.6093 251.221C62.0661 251.221 62.4521 251.102 62.7674 250.864C63.0826 250.622 63.3223 250.289 63.4864 249.865C63.6504 249.437 63.7324 248.943 63.7324 248.383C63.7324 247.83 63.652 247.346 63.4912 246.931C63.3303 246.513 63.0923 246.188 62.777 245.956C62.4618 245.721 62.0725 245.604 61.6093 245.604C61.1267 245.604 60.7246 245.728 60.4029 245.976C60.0845 246.22 59.8448 246.553 59.684 246.974C59.5263 247.393 59.4475 247.862 59.4475 248.383C59.4475 248.911 59.5279 249.39 59.6888 249.821C59.8529 250.249 60.0941 250.59 60.4126 250.844C60.7343 251.095 61.1332 251.221 61.6093 251.221ZM70.9174 252.089V244.678H72.0176V245.836H72.1141C72.2685 245.44 72.5178 245.133 72.862 244.914C73.2062 244.692 73.6196 244.581 74.1022 244.581C74.5911 244.581 74.9981 244.692 75.323 244.914C75.6511 245.133 75.9068 245.44 76.0902 245.836H76.1674C76.3572 245.453 76.6419 245.149 77.0215 244.924C77.4011 244.695 77.8563 244.581 78.3871 244.581C79.0498 244.581 79.5918 244.789 80.0132 245.204C80.4347 245.615 80.6454 246.257 80.6454 247.129V252.089H79.5066V247.129C79.5066 246.582 79.357 246.191 79.0578 245.956C78.7586 245.721 78.4064 245.604 78.0011 245.604C77.4799 245.604 77.0762 245.762 76.7899 246.077C76.5036 246.389 76.3604 246.785 76.3604 247.264V252.089H75.2023V247.013C75.2023 246.592 75.0656 246.252 74.7922 245.995C74.5187 245.734 74.1665 245.604 73.7354 245.604C73.4395 245.604 73.1628 245.683 72.9055 245.841C72.6513 245.998 72.4455 246.217 72.2878 246.497C72.1334 246.773 72.0562 247.093 72.0562 247.457V252.089H70.9174ZM82.7275 252.089V244.678H83.8663V252.089H82.7275ZM83.3066 243.442C83.0846 243.442 82.8932 243.367 82.7323 243.216C82.5747 243.064 82.4959 242.883 82.4959 242.67C82.4959 242.458 82.5747 242.276 82.7323 242.125C82.8932 241.974 83.0846 241.898 83.3066 241.898C83.5285 241.898 83.7183 241.974 83.8759 242.125C84.0368 242.276 84.1172 242.458 84.1172 242.67C84.1172 242.883 84.0368 243.064 83.8759 243.216C83.7183 243.367 83.5285 243.442 83.3066 243.442ZM88.9631 252.244C88.2682 252.244 87.6699 252.08 87.1681 251.752C86.6662 251.423 86.2802 250.971 86.01 250.396C85.7397 249.82 85.6046 249.162 85.6046 248.422C85.6046 247.669 85.743 247.005 86.0196 246.429C86.2995 245.85 86.6887 245.398 87.1874 245.073C87.6892 244.745 88.2747 244.581 88.9438 244.581C89.4649 244.581 89.9346 244.678 90.3528 244.871C90.771 245.064 91.1136 245.334 91.3806 245.681C91.6476 246.029 91.8133 246.434 91.8776 246.897H90.7388C90.652 246.559 90.459 246.26 90.1598 246C89.8638 245.736 89.4649 245.604 88.9631 245.604C88.5192 245.604 88.1299 245.72 87.7954 245.951C87.464 246.18 87.205 246.503 87.0185 246.921C86.8351 247.336 86.7434 247.824 86.7434 248.383C86.7434 248.956 86.8335 249.455 87.0136 249.879C87.197 250.304 87.4544 250.634 87.7857 250.869C88.1203 251.103 88.5127 251.221 88.9631 251.221C89.259 251.221 89.5277 251.169 89.7689 251.066C90.0102 250.963 90.2145 250.815 90.3817 250.622C90.549 250.429 90.6681 250.198 90.7388 249.928H91.8776C91.8133 250.365 91.654 250.759 91.3999 251.11C91.149 251.457 90.816 251.734 90.4011 251.94C89.9893 252.142 89.51 252.244 88.9631 252.244ZM93.5424 252.089V244.678H94.6425V245.797H94.7198C94.8549 245.43 95.0993 245.133 95.4532 244.904C95.8071 244.676 96.206 244.562 96.6499 244.562C96.7335 244.562 96.8381 244.563 96.9635 244.567C97.089 244.57 97.1839 244.575 97.2482 244.581V245.739C97.2096 245.73 97.1212 245.715 96.9829 245.696C96.8477 245.673 96.7046 245.662 96.5534 245.662C96.1931 245.662 95.8714 245.738 95.5883 245.889C95.3084 246.037 95.0865 246.243 94.9224 246.506C94.7616 246.767 94.6812 247.065 94.6812 247.399V252.089H93.5424ZM101.384 252.244C100.714 252.244 100.127 252.085 99.6223 251.766C99.1205 251.448 98.728 251.002 98.4449 250.429C98.1651 249.857 98.0251 249.188 98.0251 248.422C98.0251 247.65 98.1651 246.976 98.4449 246.4C98.728 245.824 99.1205 245.377 99.6223 245.059C100.127 244.74 100.714 244.581 101.384 244.581C102.053 244.581 102.638 244.74 103.14 245.059C103.645 245.377 104.038 245.824 104.317 246.4C104.6 246.976 104.742 247.65 104.742 248.422C104.742 249.188 104.6 249.857 104.317 250.429C104.038 251.002 103.645 251.448 103.14 251.766C102.638 252.085 102.053 252.244 101.384 252.244ZM101.384 251.221C101.892 251.221 102.31 251.091 102.638 250.83C102.966 250.569 103.209 250.227 103.367 249.802C103.524 249.377 103.603 248.917 103.603 248.422C103.603 247.927 103.524 247.465 103.367 247.037C103.209 246.609 102.966 246.264 102.638 246C102.31 245.736 101.892 245.604 101.384 245.604C100.875 245.604 100.457 245.736 100.129 246C99.8009 246.264 99.558 246.609 99.4004 247.037C99.2427 247.465 99.1639 247.927 99.1639 248.422C99.1639 248.917 99.2427 249.377 99.4004 249.802C99.558 250.227 99.8009 250.569 100.129 250.83C100.457 251.091 100.875 251.221 101.384 251.221ZM106.35 242.207L109.284 250.526H109.4L112.334 242.207H113.588L109.959 252.089H108.724L105.095 242.207H106.35ZM115.127 242.207H116.556L119.914 250.41H120.03L123.388 242.207H124.817V252.089H123.697V244.581H123.601L120.513 252.089H119.432L116.343 244.581H116.247V252.089H115.127V242.207ZM131.713 248.634C131.475 248.634 131.271 248.549 131.101 248.379C130.93 248.208 130.845 248.004 130.845 247.766C130.845 247.528 130.93 247.324 131.101 247.153C131.271 246.983 131.475 246.897 131.713 246.897C131.951 246.897 132.156 246.983 132.326 247.153C132.497 247.324 132.582 247.528 132.582 247.766C132.582 247.923 132.542 248.068 132.461 248.2C132.384 248.332 132.28 248.438 132.148 248.519C132.019 248.596 131.874 248.634 131.713 248.634ZM141.748 244.678V245.643H137.752V244.678H141.748ZM138.949 252.089V243.655C138.949 243.23 139.049 242.876 139.248 242.593C139.448 242.31 139.707 242.098 140.025 241.956C140.344 241.815 140.68 241.744 141.034 241.744C141.314 241.744 141.542 241.766 141.719 241.811C141.896 241.856 142.028 241.898 142.115 241.937L141.786 242.921C141.728 242.902 141.648 242.878 141.545 242.849C141.445 242.82 141.314 242.805 141.149 242.805C140.773 242.805 140.501 242.9 140.334 243.09C140.17 243.28 140.088 243.558 140.088 243.925V252.089H138.949ZM148.015 249.059V244.678H149.154V252.089H148.015V250.835H147.938C147.764 251.211 147.494 251.531 147.127 251.795C146.76 252.056 146.297 252.186 145.737 252.186C145.274 252.186 144.862 252.085 144.502 251.882C144.142 251.676 143.858 251.367 143.653 250.955C143.447 250.54 143.344 250.018 143.344 249.387V244.678H144.483V249.31C144.483 249.85 144.634 250.281 144.936 250.603C145.242 250.925 145.631 251.086 146.104 251.086C146.387 251.086 146.675 251.013 146.968 250.869C147.264 250.724 147.511 250.502 147.711 250.203C147.913 249.903 148.015 249.522 148.015 249.059ZM152.378 242.207V252.089H151.239V242.207H152.378ZM155.603 242.207V252.089H154.464V242.207H155.603ZM161.51 252.089V244.678H162.61V245.797H162.687C162.823 245.43 163.067 245.133 163.421 244.904C163.775 244.676 164.174 244.562 164.618 244.562C164.701 244.562 164.806 244.563 164.931 244.567C165.057 244.57 165.152 244.575 165.216 244.581V245.739C165.177 245.73 165.089 245.715 164.951 245.696C164.815 245.673 164.672 245.662 164.521 245.662C164.161 245.662 163.839 245.738 163.556 245.889C163.276 246.037 163.054 246.243 162.89 246.506C162.729 246.767 162.649 247.065 162.649 247.399V252.089H161.51ZM169.448 252.244C168.734 252.244 168.118 252.086 167.6 251.771C167.085 251.452 166.688 251.008 166.408 250.439C166.131 249.866 165.993 249.201 165.993 248.441C165.993 247.682 166.131 247.013 166.408 246.434C166.688 245.852 167.077 245.398 167.576 245.073C168.077 244.745 168.663 244.581 169.332 244.581C169.718 244.581 170.099 244.645 170.476 244.774C170.852 244.903 171.195 245.112 171.503 245.401C171.812 245.688 172.058 246.067 172.242 246.54C172.425 247.013 172.517 247.595 172.517 248.287V248.77H166.804V247.785H171.359C171.359 247.367 171.275 246.994 171.108 246.666C170.944 246.338 170.709 246.079 170.403 245.889C170.101 245.699 169.744 245.604 169.332 245.604C168.878 245.604 168.486 245.717 168.155 245.942C167.826 246.164 167.574 246.453 167.397 246.81C167.22 247.167 167.132 247.55 167.132 247.959V248.615C167.132 249.175 167.228 249.649 167.421 250.039C167.617 250.425 167.889 250.719 168.237 250.922C168.584 251.121 168.988 251.221 169.448 251.221C169.747 251.221 170.017 251.179 170.258 251.095C170.503 251.008 170.714 250.88 170.891 250.709C171.068 250.536 171.204 250.32 171.301 250.063L172.401 250.372C172.285 250.745 172.091 251.073 171.817 251.356C171.544 251.636 171.206 251.855 170.804 252.012C170.402 252.167 169.95 252.244 169.448 252.244ZM179.499 246.338L178.476 246.627C178.412 246.457 178.317 246.291 178.191 246.13C178.069 245.966 177.902 245.831 177.69 245.725C177.477 245.619 177.205 245.565 176.874 245.565C176.42 245.565 176.042 245.67 175.74 245.879C175.441 246.085 175.291 246.347 175.291 246.666C175.291 246.949 175.394 247.172 175.6 247.336C175.806 247.5 176.128 247.637 176.565 247.747L177.665 248.017C178.328 248.178 178.822 248.424 179.147 248.755C179.472 249.083 179.634 249.506 179.634 250.024C179.634 250.449 179.512 250.828 179.267 251.163C179.026 251.497 178.688 251.761 178.254 251.954C177.82 252.147 177.315 252.244 176.739 252.244C175.983 252.244 175.357 252.08 174.862 251.752C174.366 251.423 174.053 250.944 173.921 250.314L175.002 250.043C175.105 250.442 175.299 250.741 175.586 250.941C175.875 251.14 176.253 251.24 176.72 251.24C177.25 251.24 177.672 251.127 177.984 250.902C178.299 250.674 178.457 250.4 178.457 250.082C178.457 249.825 178.367 249.609 178.187 249.435C178.006 249.258 177.73 249.127 177.357 249.04L176.121 248.75C175.443 248.589 174.944 248.34 174.625 248.002C174.31 247.661 174.153 247.235 174.153 246.724C174.153 246.305 174.27 245.935 174.505 245.614C174.743 245.292 175.066 245.039 175.475 244.856C175.886 244.673 176.353 244.581 176.874 244.581C177.608 244.581 178.183 244.742 178.602 245.064C179.023 245.385 179.322 245.81 179.499 246.338ZM184.359 252.244C183.69 252.244 183.103 252.085 182.598 251.766C182.096 251.448 181.704 251.002 181.421 250.429C181.141 249.857 181.001 249.188 181.001 248.422C181.001 247.65 181.141 246.976 181.421 246.4C181.704 245.824 182.096 245.377 182.598 245.059C183.103 244.74 183.69 244.581 184.359 244.581C185.029 244.581 185.614 244.74 186.116 245.059C186.621 245.377 187.013 245.824 187.293 246.4C187.576 246.976 187.718 247.65 187.718 248.422C187.718 249.188 187.576 249.857 187.293 250.429C187.013 251.002 186.621 251.448 186.116 251.766C185.614 252.085 185.029 252.244 184.359 252.244ZM184.359 251.221C184.868 251.221 185.286 251.091 185.614 250.83C185.942 250.569 186.185 250.227 186.343 249.802C186.5 249.377 186.579 248.917 186.579 248.422C186.579 247.927 186.5 247.465 186.343 247.037C186.185 246.609 185.942 246.264 185.614 246C185.286 245.736 184.868 245.604 184.359 245.604C183.851 245.604 183.433 245.736 183.105 246C182.777 246.264 182.534 246.609 182.376 247.037C182.219 247.465 182.14 247.927 182.14 248.422C182.14 248.917 182.219 249.377 182.376 249.802C182.534 250.227 182.777 250.569 183.105 250.83C183.433 251.091 183.851 251.221 184.359 251.221ZM194.127 249.059V244.678H195.266V252.089H194.127V250.835H194.05C193.876 251.211 193.606 251.531 193.239 251.795C192.873 252.056 192.409 252.186 191.85 252.186C191.386 252.186 190.975 252.085 190.614 251.882C190.254 251.676 189.971 251.367 189.765 250.955C189.559 250.54 189.456 250.018 189.456 249.387V244.678H190.595V249.31C190.595 249.85 190.746 250.281 191.049 250.603C191.354 250.925 191.743 251.086 192.216 251.086C192.499 251.086 192.787 251.013 193.08 250.869C193.376 250.724 193.624 250.502 193.823 250.203C194.026 249.903 194.127 249.522 194.127 249.059ZM197.352 252.089V244.678H198.452V245.797H198.529C198.664 245.43 198.909 245.133 199.263 244.904C199.616 244.676 200.015 244.562 200.459 244.562C200.543 244.562 200.647 244.563 200.773 244.567C200.898 244.57 200.993 244.575 201.058 244.581V245.739C201.019 245.73 200.931 245.715 200.792 245.696C200.657 245.673 200.514 245.662 200.363 245.662C200.002 245.662 199.681 245.738 199.398 245.889C199.118 246.037 198.896 246.243 198.732 246.506C198.571 246.767 198.49 247.065 198.49 247.399V252.089H197.352ZM205.193 252.244C204.498 252.244 203.9 252.08 203.398 251.752C202.896 251.423 202.51 250.971 202.24 250.396C201.97 249.82 201.834 249.162 201.834 248.422C201.834 247.669 201.973 247.005 202.249 246.429C202.529 245.85 202.919 245.398 203.417 245.073C203.919 244.745 204.505 244.581 205.174 244.581C205.695 244.581 206.164 244.678 206.583 244.871C207.001 245.064 207.343 245.334 207.61 245.681C207.877 246.029 208.043 246.434 208.107 246.897H206.969C206.882 246.559 206.689 246.26 206.39 246C206.094 245.736 205.695 245.604 205.193 245.604C204.749 245.604 204.36 245.72 204.025 245.951C203.694 246.18 203.435 246.503 203.248 246.921C203.065 247.336 202.973 247.824 202.973 248.383C202.973 248.956 203.063 249.455 203.243 249.879C203.427 250.304 203.684 250.634 204.016 250.869C204.35 251.103 204.743 251.221 205.193 251.221C205.489 251.221 205.757 251.169 205.999 251.066C206.24 250.963 206.444 250.815 206.612 250.622C206.779 250.429 206.898 250.198 206.969 249.928H208.107C208.043 250.365 207.884 250.759 207.63 251.11C207.379 251.457 207.046 251.734 206.631 251.94C206.219 252.142 205.74 252.244 205.193 252.244ZM212.88 252.244C212.166 252.244 211.55 252.086 211.032 251.771C210.517 251.452 210.12 251.008 209.84 250.439C209.563 249.866 209.425 249.201 209.425 248.441C209.425 247.682 209.563 247.013 209.84 246.434C210.12 245.852 210.509 245.398 211.007 245.073C211.509 244.745 212.095 244.581 212.764 244.581C213.15 244.581 213.531 244.645 213.908 244.774C214.284 244.903 214.627 245.112 214.935 245.401C215.244 245.688 215.49 246.067 215.674 246.54C215.857 247.013 215.949 247.595 215.949 248.287V248.77H210.235V247.785H214.791C214.791 247.367 214.707 246.994 214.54 246.666C214.376 246.338 214.141 246.079 213.835 245.889C213.533 245.699 213.176 245.604 212.764 245.604C212.31 245.604 211.918 245.717 211.587 245.942C211.258 246.164 211.006 246.453 210.829 246.81C210.652 247.167 210.564 247.55 210.564 247.959V248.615C210.564 249.175 210.66 249.649 210.853 250.039C211.049 250.425 211.321 250.719 211.669 250.922C212.016 251.121 212.42 251.221 212.88 251.221C213.179 251.221 213.449 251.179 213.69 251.095C213.935 251.008 214.146 250.88 214.323 250.709C214.499 250.536 214.636 250.32 214.733 250.063L215.833 250.372C215.717 250.745 215.522 251.073 215.249 251.356C214.976 251.636 214.638 251.855 214.236 252.012C213.834 252.167 213.382 252.244 212.88 252.244ZM222.931 246.338L221.908 246.627C221.844 246.457 221.749 246.291 221.623 246.13C221.501 245.966 221.334 245.831 221.121 245.725C220.909 245.619 220.637 245.565 220.306 245.565C219.852 245.565 219.474 245.67 219.172 245.879C218.873 246.085 218.723 246.347 218.723 246.666C218.723 246.949 218.826 247.172 219.032 247.336C219.238 247.5 219.56 247.637 219.997 247.747L221.097 248.017C221.76 248.178 222.254 248.424 222.579 248.755C222.904 249.083 223.066 249.506 223.066 250.024C223.066 250.449 222.944 250.828 222.699 251.163C222.458 251.497 222.12 251.761 221.686 251.954C221.252 252.147 220.747 252.244 220.171 252.244C219.415 252.244 218.789 252.08 218.294 251.752C217.798 251.423 217.485 250.944 217.353 250.314L218.434 250.043C218.537 250.442 218.731 250.741 219.018 250.941C219.307 251.14 219.685 251.24 220.152 251.24C220.682 251.24 221.104 251.127 221.416 250.902C221.731 250.674 221.889 250.4 221.889 250.082C221.889 249.825 221.799 249.609 221.618 249.435C221.438 249.258 221.162 249.127 220.789 249.04L219.553 248.75C218.874 248.589 218.376 248.34 218.057 248.002C217.742 247.661 217.584 247.235 217.584 246.724C217.584 246.305 217.702 245.935 217.937 245.614C218.175 245.292 218.498 245.039 218.907 244.856C219.318 244.673 219.785 244.581 220.306 244.581C221.039 244.581 221.615 244.742 222.033 245.064C222.455 245.385 222.754 245.81 222.931 246.338Z" fill="#8C94A1"/>
</svg>
