<svg viewBox="0 0 680 420" xmlns="http://www.w3.org/2000/svg">
  <style>
    .base-line {
      fill: none;
      stroke: #8c94a1;
      stroke-width: .566;
      stroke-dasharray: 5.662 3.397;
    }

    .active-line {
      fill: none;
      stroke: #66d9a5;
      stroke-width: .793;
    }

    .glow-ring {
      fill: none;
      stroke: #66d9a5;
      stroke-width: .453;
    }

    .energy {
      fill: none;
      stroke: #66d9a5;
      stroke-width: .566;
      stroke-dasharray: 3.397 5.662;
    }

    .crowd-box {
      fill: none;
      stroke: #8c94a1;
      stroke-width: .453;
      stroke-dasharray: 3.397 3.397;
    }

    .dim-top {
      fill: none;
      stroke: #8c94a1;
      stroke-width: .453;
    }

    .divider-line {
      fill: none;
      stroke: #ffffff;
      stroke-width: .453;
      stroke-dasharray: 3.397 6.794;
      opacity: .37;
    }

    .label {
      fill: #8c94a1;
      font-family: Inter, system-ui, sans-serif;
      font-size: 13.588px;
    }

    .label-muted {
      opacity: 1;
    }

    .vs-label {
      fill: #5a5d64;
      font-family: Inter, system-ui, sans-serif;
      font-size: 13.588px;
    }
  </style>

  <g opacity="0" transform="translate(170,216)">
    <animate
      attributeName="opacity"
      values="0;1"
      dur=".55s"
      begin=".08s"
      fill="freeze"
    />
    <animateTransform
      attributeName="transform"
      type="translate"
      from="170 216"
      to="170 200"
      dur=".65s"
      begin=".08s"
      fill="freeze"
    />
    <path class="base-line" d="M-80,60 L0,100 L80,60 L0,20 Z"/>
    <path class="base-line" d="M-80,60 L-80,72 L0,112 L80,72 L80,60"/>
    <path class="base-line" d="M0,100 L0,112"/>
    <path class="base-line" d="M-80,40 L0,80 L80,40 L0,0 Z"/>
    <path class="base-line" d="M-80,40 L-80,52 L0,92 L80,52 L80,40"/>
    <path class="base-line" d="M0,80 L0,92"/>
    <path class="base-line" d="M-80,20 L0,60 L80,20 L0,-20 Z"/>
    <path class="base-line" d="M-80,20 L-80,32 L0,72 L80,32 L80,20"/>
    <path class="base-line" d="M0,60 L0,72"/>

    <g opacity="0" transform="translate(0,-78)">
      <animate
        attributeName="opacity"
        values="0;1"
        dur=".5s"
        begin=".46s"
        fill="freeze"
      />
      <animateTransform
        attributeName="transform"
        type="translate"
        from="0 -78"
        to="0 -60"
        dur=".7s"
        begin=".46s"
        fill="freeze"
      />
      <path class="active-line" d="M-36,18 L0,36 L36,18 L0,0 Z"/>
      <path class="active-line" d="M-36,18 L-36,42 L0,60 L36,42 L36,18"/>
      <path class="active-line" d="M0,36 L0,60"/>
      <circle class="glow-ring" cx="0" cy="18" r="20" opacity=".270192">
        <animate
          attributeName="opacity"
          values=".270192;.6;.270192"
          dur="3s"
          repeatCount="indefinite"
        />
      </circle>
      <circle class="glow-ring" cx="0" cy="18" r="32" opacity=".5354">
        <animate
          attributeName="opacity"
          values=".5354;.8;.5354"
          dur="3s"
          begin=".8s"
          repeatCount="indefinite"
        />
      </circle>
      <path class="energy" d="M-60,50 C-50,30 -30,10 0,18" opacity=".4" stroke-dashoffset="0">
        <animate
          attributeName="stroke-dashoffset"
          values="0;-16"
          dur="2s"
          repeatCount="indefinite"
        />
      </path>
      <path class="energy" d="M60,50 C50,30 30,10 0,18" opacity=".4" stroke-dashoffset="0">
        <animate
          attributeName="stroke-dashoffset"
          values="0;-16"
          dur="2s"
          begin=".6s"
          repeatCount="indefinite"
        />
      </path>
      <path class="energy" d="M0,80 C0,60 0,40 0,18" opacity=".4" stroke-dashoffset="0">
        <animate
          attributeName="stroke-dashoffset"
          values="0;-16"
          dur="2s"
          begin="1.2s"
          repeatCount="indefinite"
        />
      </path>
    </g>

    <text class="label" x="0" y="130" text-anchor="middle">Dedicated workload</text>
    <text class="label" x="0" y="145" text-anchor="middle">Pinned microVM · reserved cores</text>
  </g>

  <g opacity="0" transform="translate(490,216)">
    <animate
      attributeName="opacity"
      values="0;1"
      dur=".55s"
      begin=".18s"
      fill="freeze"
    />
    <animateTransform
      attributeName="transform"
      type="translate"
      from="490 216"
      to="490 200"
      dur=".65s"
      begin=".18s"
      fill="freeze"
    />
    <path class="base-line" d="M-80,60 L0,100 L80,60 L0,20 Z"/>
    <path class="base-line" d="M-80,60 L-80,72 L0,112 L80,72 L80,60"/>
    <path class="base-line" d="M0,100 L0,112"/>
    <path class="base-line" d="M-80,40 L0,80 L80,40 L0,0 Z"/>
    <path class="base-line" d="M-80,40 L-80,52 L0,92 L80,52 L80,40"/>
    <path class="base-line" d="M0,80 L0,92"/>
    <path class="base-line" d="M-80,20 L0,60 L80,20 L0,-20 Z"/>
    <path class="base-line" d="M-80,20 L-80,32 L0,72 L80,32 L80,20"/>
    <path class="base-line" d="M0,60 L0,72"/>

    <g transform="translate(0,-50)">
      <g opacity="0" transform="translate(-28,-24)">
        <animate attributeName="opacity" values="0;1" dur=".32s" begin=".5s" fill="freeze"/>
        <animateTransform attributeName="transform" type="translate" from="-28 -24" to="-28 -14" dur=".42s" begin=".5s" fill="freeze"/>
        <path class="crowd-box" d="M-14,7 L0,14 L14,7 L0,0 Z"/>
        <path class="crowd-box" d="M-14,7 L-14,17 L0,24 L14,17 L14,7"/>
        <path class="dim-top" d="M0,14 L0,24"/>
      </g>
      <g opacity="0" transform="translate(0,-24)">
        <animate attributeName="opacity" values="0;1" dur=".32s" begin=".58s" fill="freeze"/>
        <animateTransform attributeName="transform" type="translate" from="0 -24" to="0 -14" dur=".42s" begin=".58s" fill="freeze"/>
        <path class="crowd-box" d="M-14,7 L0,14 L14,7 L0,0 Z"/>
        <path class="crowd-box" d="M-14,7 L-14,17 L0,24 L14,17 L14,7"/>
        <path class="dim-top" d="M0,14 L0,24"/>
      </g>
      <g opacity="0" transform="translate(28,-24)">
        <animate attributeName="opacity" values="0;1" dur=".32s" begin=".66s" fill="freeze"/>
        <animateTransform attributeName="transform" type="translate" from="28 -24" to="28 -14" dur=".42s" begin=".66s" fill="freeze"/>
        <path class="crowd-box" d="M-14,7 L0,14 L14,7 L0,0 Z"/>
        <path class="crowd-box" d="M-14,7 L-14,17 L0,24 L14,17 L14,7"/>
        <path class="dim-top" d="M0,14 L0,24"/>
      </g>
      <g opacity="0" transform="translate(-14,-10)">
        <animate attributeName="opacity" values="0;1" dur=".32s" begin=".74s" fill="freeze"/>
        <animateTransform attributeName="transform" type="translate" from="-14 -10" to="-14 0" dur=".42s" begin=".74s" fill="freeze"/>
        <path class="crowd-box" d="M-14,7 L0,14 L14,7 L0,0 Z"/>
        <path class="crowd-box" d="M-14,7 L-14,17 L0,24 L14,17 L14,7"/>
        <path class="dim-top" d="M0,14 L0,24"/>
      </g>
      <g opacity="0" transform="translate(14,-10)">
        <animate attributeName="opacity" values="0;1" dur=".32s" begin=".82s" fill="freeze"/>
        <animateTransform attributeName="transform" type="translate" from="14 -10" to="14 0" dur=".42s" begin=".82s" fill="freeze"/>
        <path class="crowd-box" d="M-14,7 L0,14 L14,7 L0,0 Z"/>
        <path class="crowd-box" d="M-14,7 L-14,17 L0,24 L14,17 L14,7"/>
        <path class="dim-top" d="M0,14 L0,24"/>
      </g>
      <g opacity="0" transform="translate(-14,-34)">
        <animate attributeName="opacity" values="0;1" dur=".32s" begin=".9s" fill="freeze"/>
        <animateTransform attributeName="transform" type="translate" from="-14 -34" to="-14 -24" dur=".42s" begin=".9s" fill="freeze"/>
        <path class="crowd-box" d="M-14,7 L0,14 L14,7 L0,0 Z"/>
        <path class="crowd-box" d="M-14,7 L-14,17 L0,24 L14,17 L14,7"/>
        <path class="dim-top" d="M0,14 L0,24"/>
      </g>
      <g opacity="0" transform="translate(14,-34)">
        <animate attributeName="opacity" values="0;1" dur=".32s" begin=".98s" fill="freeze"/>
        <animateTransform attributeName="transform" type="translate" from="14 -34" to="14 -24" dur=".42s" begin=".98s" fill="freeze"/>
        <path class="crowd-box" d="M-14,7 L0,14 L14,7 L0,0 Z"/>
        <path class="crowd-box" d="M-14,7 L-14,17 L0,24 L14,17 L14,7"/>
        <path class="dim-top" d="M0,14 L0,24"/>
      </g>
    </g>

    <text class="label label-muted" x="0" y="130" text-anchor="middle">Shared platforms</text>
    <text class="label label-muted" x="0" y="145" text-anchor="middle">Shared VM · noisy neighbours</text>
  </g>

  <g opacity="0">
    <animate
      attributeName="opacity"
      values="0;1"
      dur=".45s"
      begin=".38s"
      fill="freeze"
    />
    <line class="divider-line" x1="340" y1="100" x2="340" y2="360"/>
    <text class="vs-label" x="340" y="90" text-anchor="middle">vs</text>
  </g>
</svg>
