<svg width="720" height="580" viewBox="0 0 720 580" fill="none" xmlns="http://www.w3.org/2000/svg">
<path d="M200 205H214" stroke="#2A2D34" stroke-width="1.5"/>
<path d="M209.649 150.277t aL222.805 155.065" stroke="#2A2D34" stroke-width="1.5"/>
<path d="M237.433 102.154L248.157 111.153" stroke="#2A2D34" stroke-width="1.5"/>
<path d="M280 66.4359L287 78.5603" stroke="#2A2D34" stroke-width="1.5"/>
<path d="M332.216 47.4308L334.647 61.2181" stroke="#2A2D34" stroke-width="1.5"/>
<path d="M387.784 47.4308L385.353 61.2181" stroke="#2A2D34" stroke-width="1.5"/>
<path d="M440 66.4359L433 78.5603" stroke="#2A2D34" stroke-width="1.5"/>
<path d="M482.567 102.154L471.843 111.153" stroke="#2A2D34" stroke-width="1.5"/>
<path d="M510.351 150.277L497.195 155.065" stroke="#2A2D34" stroke-width="1.5"/>
<path d="M520 205H506" stroke="#2A2D34" stroke-width="1.5"/>
<path d="M204.4 177.564L212.279 178.953" stroke="#1A1D24" stroke-width="0.8"/>
<path d="M223.168 126L230.096 130" stroke="#1A1D24" stroke-width="0.8"/>
<path d="M258.439 83.965L263.582 90.0933" stroke="#1A1D24" stroke-width="0.8"/>
<path d="M305.961 56.5286L308.697 64.0461" stroke="#1A1D24" stroke-width="0.8"/>
<path d="M360 47V55" stroke="#1A1D24" stroke-width="0.8"/>
<path d="M414.039 56.5286L411.303 64.0461" stroke="#1A1D24" stroke-width="0.8"/>
<path d="M461.561 83.965L456.418 90.0933" stroke="#1A1D24" stroke-width="0.8"/>
<path d="M496.832 126L489.904 130" stroke="#1A1D24" stroke-width="0.8"/>
<path d="M515.6 177.564L507.721 178.953" stroke="#1A1D24" stroke-width="0.8"/>
<path d="M215 205C215 166.544 230.277 129.662 257.47 102.47C284.662 75.2767 321.544 60 360 60C398.456 60 435.338 75.2767 462.53 102.47C489.723 129.662 505 166.544 505 205" stroke="#1A1D24" stroke-width="14"/>
<g filter="url(#filter0_d_490_11228)">
<path d="M215 205C214.595 175.85 222.986 147.255 239.079 122.946C255.171 98.6365 278.217 79.7427 305.21 68.7297C332.203 57.7167 361.888 55.0959 390.393 61.2093C418.898 67.3227 444.898 81.8864 465 103" stroke="url(#paint0_linear_490_11228)" stroke-width="14"/>
</g>
<path d="M250 205C250 175.826 261.589 147.847 282.218 127.218C302.847 106.589 330.826 95 360 95C389.174 95 417.153 106.589 437.782 127.218C458.411 147.847 470 175.826 470 205" stroke="#1A1D24" stroke-width="0.4" stroke-dasharray="2 5"/>
<path d="M360 235C420.751 235 470 224.255 470 211C470 197.745 420.751 187 360 187C299.249 187 250 197.745 250 211C250 224.255 299.249 235 360 235Z" fill="url(#paint1_linear_490_11228)"/>
<path d="M205.002 225.09C204.396 225.09 203.913 224.916 203.553 224.568C203.199 224.214 203.022 223.743 203.022 223.155V220.275C203.022 219.687 203.199 219.219 203.553 218.871C203.913 218.517 204.396 218.34 205.002 218.34C205.608 218.34 206.088 218.517 206.442 218.871C206.802 219.219 206.982 219.687 206.982 220.275V223.155C206.982 223.545 206.901 223.887 206.739 224.181C206.577 224.469 206.346 224.694 206.046 224.856C205.752 225.012 205.404 225.09 205.002 225.09ZM205.002 224.397C205.362 224.397 205.65 224.283 205.866 224.055C206.088 223.821 206.199 223.521 206.199 223.155V220.275C206.199 219.909 206.088 219.612 205.866 219.384C205.65 219.15 205.362 219.033 205.002 219.033C204.642 219.033 204.351 219.15 204.129 219.384C203.913 219.612 203.805 219.909 203.805 220.275V223.155C203.805 223.521 203.913 223.821 204.129 224.055C204.351 224.283 204.642 224.397 205.002 224.397ZM205.002 222.21C204.84 222.21 204.708 222.165 204.606 222.075C204.51 221.985 204.462 221.856 204.462 221.688C204.462 221.526 204.51 221.403 204.606 221.319C204.708 221.229 204.84 221.184 205.002 221.184C205.164 221.184 205.293 221.229 205.389 221.319C205.491 221.403 205.542 221.526 205.542 221.688C205.542 221.856 205.491 221.985 205.389 222.075C205.293 222.165 205.164 222.21 205.002 222.21Z" fill="#8B8D94"/>
<path d="M507.553 225V218.43H508.75L509.587 221.274L510.46 218.43H511.657V225H510.874V221.895C510.874 221.601 510.877 221.265 510.883 220.887C510.895 220.503 510.91 220.116 510.928 219.726C510.946 219.336 510.967 218.985 510.991 218.673L509.929 222.066H509.227L508.21 218.754C508.258 219.198 508.291 219.684 508.309 220.212C508.327 220.74 508.336 221.301 508.336 221.895V225H507.553ZM512.752 225L514.462 218.43H515.551L517.252 225H516.433L516.001 223.254H514.012L513.58 225H512.752ZM514.174 222.57H515.83L515.326 220.545C515.23 220.161 515.155 219.84 515.101 219.582C515.047 219.324 515.014 219.156 515.002 219.078C514.99 219.156 514.957 219.324 514.903 219.582C514.849 219.84 514.774 220.158 514.678 220.536L514.174 222.57ZM518.058 225L519.948 221.67L518.157 218.43H519.093L520.11 220.374C520.164 220.476 520.218 220.587 520.272 220.707C520.332 220.821 520.38 220.911 520.416 220.977C520.446 220.911 520.488 220.821 520.542 220.707C520.602 220.587 520.659 220.476 520.713 220.374L521.748 218.43H522.639L520.848 221.616L522.738 225H521.811L520.686 222.912C520.632 222.81 520.575 222.702 520.515 222.588C520.461 222.468 520.419 222.372 520.389 222.3C520.359 222.372 520.314 222.465 520.254 222.579C520.2 222.693 520.146 222.801 520.092 222.903L518.958 225H518.058Z" fill="#8B8D94"/>
<path d="M329.826 253V245.872H327.626V244.97H333.016V245.872H330.816V253H329.826ZM334.64 253V244.97H335.63V248.402H338.204V244.97H339.194V253H338.204V249.304H335.63V253H334.64ZM341.236 253V244.97H343.711C344.188 244.97 344.606 245.069 344.965 245.267C345.324 245.458 345.603 245.725 345.801 246.07C345.999 246.415 346.098 246.818 346.098 247.28C346.098 247.823 345.959 248.288 345.68 248.677C345.401 249.066 345.031 249.337 344.569 249.491L346.208 253H345.119L343.546 249.59H342.215V253H341.236ZM342.215 248.699H343.711C344.122 248.699 344.452 248.571 344.701 248.314C344.95 248.05 345.075 247.705 345.075 247.28C345.075 246.847 344.95 246.503 344.701 246.246C344.452 245.989 344.122 245.861 343.711 245.861H342.215V248.699ZM350.109 253.11C349.39 253.11 348.822 252.901 348.404 252.483C347.986 252.065 347.777 251.467 347.777 250.69V247.28C347.777 246.503 347.986 245.905 348.404 245.487C348.822 245.069 349.39 244.86 350.109 244.86C350.827 244.86 351.396 245.069 351.814 245.487C352.232 245.905 352.441 246.499 352.441 247.269V250.69C352.441 251.467 352.232 252.065 351.814 252.483C351.396 252.901 350.827 253.11 350.109 253.11ZM350.109 252.219C350.541 252.219 350.871 252.098 351.099 251.856C351.333 251.607 351.451 251.255 351.451 250.8V247.17C351.451 246.715 351.333 246.367 351.099 246.125C350.871 245.876 350.541 245.751 350.109 245.751C349.683 245.751 349.353 245.876 349.119 246.125C348.884 246.367 348.767 246.715 348.767 247.17V250.8C348.767 251.255 348.884 251.607 349.119 251.856C349.353 252.098 349.683 252.219 350.109 252.219ZM356.704 253.11C355.956 253.11 355.384 252.905 354.988 252.494C354.592 252.076 354.394 251.511 354.394 250.8V244.97H355.384V250.8C355.384 251.24 355.491 251.588 355.703 251.845C355.923 252.102 356.257 252.23 356.704 252.23C357.144 252.23 357.474 252.102 357.694 251.845C357.914 251.588 358.024 251.24 358.024 250.8V244.97H359.014V250.8C359.014 251.519 358.816 252.083 358.42 252.494C358.032 252.905 357.46 253.11 356.704 253.11ZM363.344 253.11C362.611 253.11 362.031 252.905 361.606 252.494C361.181 252.083 360.968 251.519 360.968 250.8V247.17C360.968 246.451 361.181 245.887 361.606 245.476C362.031 245.065 362.611 244.86 363.344 244.86C364.063 244.86 364.635 245.069 365.06 245.487C365.485 245.898 365.698 246.459 365.698 247.17H364.708C364.708 246.715 364.587 246.367 364.345 246.125C364.11 245.876 363.777 245.751 363.344 245.751C362.911 245.751 362.57 245.872 362.321 246.114C362.079 246.356 361.958 246.704 361.958 247.159V250.8C361.958 251.255 362.079 251.607 362.321 251.856C362.57 252.105 362.911 252.23 363.344 252.23C363.777 252.23 364.11 252.105 364.345 251.856C364.587 251.607 364.708 251.255 364.708 250.8V249.7H363.08V248.798H365.698V250.8C365.698 251.511 365.485 252.076 365.06 252.494C364.635 252.905 364.063 253.11 363.344 253.11ZM367.619 253V244.97H368.609V248.402H371.183V244.97H372.173V253H371.183V249.304H368.609V253H367.619ZM374.203 253V244.97H376.788C377.536 244.97 378.13 245.186 378.57 245.619C379.018 246.044 379.241 246.616 379.241 247.335C379.241 248.054 379.018 248.629 378.57 249.062C378.13 249.487 377.536 249.7 376.788 249.7H375.193V253H374.203ZM375.193 248.809H376.788C377.221 248.809 377.566 248.677 377.822 248.413C378.086 248.142 378.218 247.782 378.218 247.335C378.218 246.88 378.086 246.521 377.822 246.257C377.566 245.993 377.221 245.861 376.788 245.861H375.193V248.809ZM383.087 253.11C382.339 253.11 381.767 252.905 381.371 252.494C380.975 252.076 380.777 251.511 380.777 250.8V244.97H381.767V250.8C381.767 251.24 381.873 251.588 382.086 251.845C382.306 252.102 382.64 252.23 383.087 252.23C383.527 252.23 383.857 252.102 384.077 251.845C384.297 251.588 384.407 251.24 384.407 250.8V244.97H385.397V250.8C385.397 251.519 385.199 252.083 384.803 252.494C384.414 252.905 383.842 253.11 383.087 253.11ZM389.188 253V245.872H386.988V244.97H392.378V245.872H390.178V253H389.188Z" fill="#8B8D94"/>
<g filter="url(#filter1_d_490_11228)">
<path d="M360 205L449.096 115.905" stroke="#66D9A5" stroke-width="2"/>
<path d="M455.459 113.783L451.217 109.541L446.974 113.783L451.217 118.026L455.459 113.783Z" fill="#66D9A5"/>
</g>
<path d="M368 197H352V205V213H368V197Z" fill="#0A0C10" stroke="#2A2D34"/>
<path opacity="0.8" d="M363 202H357V208H363V202Z" fill="#66D9A5"/>
<path d="M300 278H111C109.343 278 108 279.343 108 281V365C108 366.657 109.343 368 111 368H300C301.657 368 303 366.657 303 365V281C303 279.343 301.657 278 300 278Z" fill="#0A0C10" stroke="#1A1D24" stroke-width="0.8"/>
<path opacity="0.3" d="M110 278H108V368H110V278Z" fill="#66D9A5"/>
<path d="M126.45 306L128.16 299.43H129.249L130.95 306H130.131L129.699 304.254H127.71L127.278 306H126.45ZM127.872 303.57H129.528L129.024 301.545C128.928 301.161 128.853 300.84 128.799 300.582C128.745 300.324 128.712 300.156 128.7 300.078C128.688 300.156 128.655 300.324 128.601 300.582C128.547 300.84 128.472 301.158 128.376 301.536L127.872 303.57ZM134.096 306.09C133.484 306.09 133.016 305.922 132.692 305.586C132.368 305.244 132.206 304.782 132.206 304.2V299.43H133.016V304.2C133.016 304.56 133.103 304.845 133.277 305.055C133.457 305.265 133.73 305.37 134.096 305.37C134.456 305.37 134.726 305.265 134.906 305.055C135.086 304.845 135.176 304.56 135.176 304.2V299.43H135.986V304.2C135.986 304.788 135.824 305.25 135.5 305.586C135.182 305.922 134.714 306.09 134.096 306.09ZM139.529 306.09C139.133 306.09 138.788 306.015 138.494 305.865C138.206 305.715 137.981 305.499 137.819 305.217C137.663 304.929 137.585 304.59 137.585 304.2V301.23C137.585 300.834 137.663 300.495 137.819 300.213C137.981 299.931 138.206 299.715 138.494 299.565C138.788 299.415 139.133 299.34 139.529 299.34C139.925 299.34 140.267 299.418 140.555 299.574C140.843 299.724 141.065 299.94 141.221 300.222C141.377 300.504 141.455 300.84 141.455 301.23H140.645C140.645 300.858 140.546 300.573 140.348 300.375C140.156 300.171 139.883 300.069 139.529 300.069C139.175 300.069 138.896 300.168 138.692 300.366C138.494 300.564 138.395 300.849 138.395 301.221V304.2C138.395 304.572 138.494 304.86 138.692 305.064C138.896 305.262 139.175 305.361 139.529 305.361C139.883 305.361 140.156 305.262 140.348 305.064C140.546 304.86 140.645 304.572 140.645 304.2H141.455C141.455 304.584 141.377 304.92 141.221 305.208C141.065 305.49 140.843 305.709 140.555 305.865C140.267 306.015 139.925 306.09 139.529 306.09ZM144.484 306V300.159H142.684V299.421H147.094V300.159H145.294V306H144.484ZM148.531 306V305.262H149.872V300.168H148.531V299.43H152.041V300.168H150.7V305.262H152.041V306H148.531ZM155.682 306.09C155.286 306.09 154.944 306.015 154.656 305.865C154.374 305.715 154.155 305.499 153.999 305.217C153.849 304.929 153.774 304.59 153.774 304.2V301.23C153.774 300.834 153.849 300.495 153.999 300.213C154.155 299.931 154.374 299.715 154.656 299.565C154.944 299.415 155.286 299.34 155.682 299.34C156.078 299.34 156.417 299.415 156.699 299.565C156.987 299.715 157.206 299.931 157.356 300.213C157.512 300.495 157.59 300.831 157.59 301.221V304.2C157.59 304.59 157.512 304.929 157.356 305.217C157.206 305.499 156.987 305.715 156.699 305.865C156.417 306.015 156.078 306.09 155.682 306.09ZM155.682 305.361C156.036 305.361 156.306 305.262 156.492 305.064C156.684 304.86 156.78 304.572 156.78 304.2V301.23C156.78 300.858 156.684 300.573 156.492 300.375C156.306 300.171 156.036 300.069 155.682 300.069C155.334 300.069 155.064 300.171 154.872 300.375C154.68 300.573 154.584 300.858 154.584 301.23V304.2C154.584 304.572 154.68 304.86 154.872 305.064C155.064 305.262 155.334 305.361 155.682 305.361ZM159.189 306V299.43H160.269L162.276 305.055C162.264 304.905 162.249 304.722 162.231 304.506C162.219 304.284 162.207 304.053 162.195 303.813C162.189 303.567 162.186 303.336 162.186 303.12V299.43H162.969V306H161.889L159.891 300.375C159.903 300.519 159.915 300.702 159.927 300.924C159.939 301.14 159.948 301.371 159.954 301.617C159.966 301.857 159.972 302.088 159.972 302.31V306H159.189ZM171.467 306V300.159H169.667V299.421H174.077V300.159H172.277V306H171.467ZM175.513 306V305.262H176.854V300.168H175.513V299.43H179.023V300.168H177.682V305.262H179.023V306H175.513ZM180.649 306V299.43H181.711L182.395 301.554C182.461 301.746 182.521 301.938 182.575 302.13C182.629 302.316 182.668 302.46 182.692 302.562C182.722 302.46 182.761 302.316 182.809 302.13C182.857 301.938 182.911 301.743 182.971 301.545L183.619 299.43H184.681V306H183.889V303.615C183.889 303.351 183.898 303.051 183.916 302.715C183.934 302.379 183.958 302.037 183.988 301.689C184.018 301.335 184.048 300.999 184.078 300.681C184.114 300.357 184.144 300.075 184.168 299.835L183.106 303.12H182.251L181.18 299.835C181.21 300.069 181.24 300.342 181.27 300.654C181.3 300.96 181.327 301.287 181.351 301.635C181.375 301.977 181.396 302.319 181.414 302.661C181.432 303.003 181.441 303.321 181.441 303.615V306H180.649ZM186.261 306V299.43H190.041V300.168H187.062V302.202H189.726V302.931H187.062V305.262H190.041V306H186.261Z" fill="#8B8D94"/>
<path d="M132.426 332.252C131.1 333.646 129.128 334.02 127.258 334.02V329.94C129.91 329.634 131.644 328.614 132.426 326.2H137.39V350H132.426V332.252ZM145.873 332.252C144.547 333.646 142.575 334.02 140.705 334.02V329.94C143.357 329.634 145.091 328.614 145.873 326.2H150.837V350H145.873V332.252ZM154.653 348.878C154.653 344.56 155.877 341.602 160.909 338.644C164.105 336.808 166.519 335.822 166.553 333.17C166.621 330.756 164.785 330.11 163.221 330.11C161.419 330.11 159.787 331.096 159.787 333.782V334.258H154.993V333.578C154.993 329.362 157.407 325.894 163.289 325.894C168.661 325.894 171.517 328.75 171.517 332.864C171.517 337.522 167.879 339.426 165.023 341.024C161.623 342.996 160.331 344.254 160.331 345.784V345.886H171.449V350H154.653V348.878Z" fill="#66D9A5"/>
<path d="M184.246 345.28C184.246 344.016 183.718 343.456 182.87 343.456C182.038 343.456 181.366 344.016 181.366 345.28V350H179.03V345.28C179.03 344.016 178.502 343.456 177.654 343.456C176.822 343.456 176.15 344.016 176.15 345.28V350H173.814V341.68H176.15V343.424H176.246C176.374 342.64 177.222 341.52 178.678 341.52C179.83 341.52 180.806 342.144 181.19 343.424C181.35 342.656 182.262 341.52 183.83 341.52C185.414 341.52 186.582 342.56 186.582 344.72V350H184.246V345.28ZM191.372 350.16C189.148 350.16 187.788 349.184 187.772 347.264H189.868C189.948 348.048 190.476 348.416 191.388 348.416C192.172 348.416 192.7 348.144 192.7 347.552C192.7 347.168 192.444 346.928 191.9 346.816L190.364 346.496C188.62 346.096 187.996 345.168 187.996 344.064C187.996 342.448 189.388 341.52 191.404 341.52C193.628 341.52 194.796 342.608 194.828 344.4H192.876C192.78 343.568 192.236 343.264 191.436 343.264C190.636 343.264 190.268 343.552 190.268 344C190.268 344.416 190.572 344.688 191.132 344.8L192.7 345.136C194.012 345.424 195.1 346.032 195.1 347.504C195.1 349.36 193.388 350.16 191.372 350.16Z" fill="#8B8D94"/>
<path opacity="0.3" d="M240 346L247 334L253 340L259 324L265 328L271 314L277 318L283 310" stroke="#66D9A5"/>
<path d="M510 278H321C319.343 278 318 279.343 318 281V365C318 366.657 319.343 368 321 368H510C511.657 368 513 366.657 513 365V281C513 279.343 511.657 278 510 278Z" fill="#0A0C10" stroke="#1A1D24" stroke-width="0.8"/>
<path opacity="0.3" d="M320 278H318V368H320V278Z" fill="#66D9A5"/>
<path d="M338.772 306.09C338.172 306.09 337.698 305.922 337.35 305.586C337.002 305.25 336.828 304.788 336.828 304.2V301.23C336.828 300.642 337.002 300.18 337.35 299.844C337.698 299.508 338.172 299.34 338.772 299.34C339.36 299.34 339.828 299.511 340.176 299.853C340.524 300.189 340.698 300.648 340.698 301.23H339.888C339.888 300.858 339.789 300.573 339.591 300.375C339.399 300.171 339.126 300.069 338.772 300.069C338.418 300.069 338.139 300.171 337.935 300.375C337.737 300.573 337.638 300.858 337.638 301.23V304.2C337.638 304.572 337.737 304.86 337.935 305.064C338.139 305.262 338.418 305.361 338.772 305.361C339.126 305.361 339.399 305.262 339.591 305.064C339.789 304.86 339.888 304.572 339.888 304.2H340.698C340.698 304.782 340.524 305.244 340.176 305.586C339.828 305.922 339.36 306.09 338.772 306.09ZM344.096 306.09C343.508 306.09 343.043 305.919 342.701 305.577C342.359 305.235 342.188 304.746 342.188 304.11V301.32C342.188 300.684 342.359 300.195 342.701 299.853C343.043 299.511 343.508 299.34 344.096 299.34C344.684 299.34 345.149 299.511 345.491 299.853C345.833 300.195 346.004 300.681 346.004 301.311V304.11C346.004 304.746 345.833 305.235 345.491 305.577C345.149 305.919 344.684 306.09 344.096 306.09ZM344.096 305.361C344.45 305.361 344.72 305.262 344.906 305.064C345.098 304.86 345.194 304.572 345.194 304.2V301.23C345.194 300.858 345.098 300.573 344.906 300.375C344.72 300.171 344.45 300.069 344.096 300.069C343.748 300.069 343.478 300.171 343.286 300.375C343.094 300.573 342.998 300.858 342.998 301.23V304.2C342.998 304.572 343.094 304.86 343.286 305.064C343.478 305.262 343.748 305.361 344.096 305.361ZM347.963 306V299.43H348.773V305.262H351.743V306H347.963ZM353.017 306V299.43H354.718C355.144 299.43 355.51 299.511 355.816 299.673C356.128 299.835 356.368 300.063 356.536 300.357C356.71 300.651 356.797 300.999 356.797 301.401V304.02C356.797 304.422 356.71 304.773 356.536 305.073C356.368 305.367 356.128 305.595 355.816 305.757C355.51 305.919 355.144 306 354.718 306H353.017ZM353.827 305.28H354.718C355.114 305.28 355.423 305.169 355.645 304.947C355.873 304.725 355.987 304.416 355.987 304.02V301.401C355.987 301.011 355.873 300.705 355.645 300.483C355.423 300.261 355.114 300.15 354.718 300.15H353.827V305.28ZM365.718 306.09C365.082 306.09 364.575 305.922 364.197 305.586C363.819 305.25 363.63 304.788 363.63 304.2H364.44C364.44 304.566 364.557 304.854 364.791 305.064C365.025 305.268 365.334 305.37 365.718 305.37C366.09 305.37 366.387 305.262 366.609 305.046C366.831 304.83 366.942 304.548 366.942 304.2C366.942 303.936 366.87 303.708 366.726 303.516C366.588 303.318 366.387 303.183 366.123 303.111L365.124 302.832C364.71 302.712 364.383 302.499 364.143 302.193C363.909 301.881 363.792 301.515 363.792 301.095C363.792 300.747 363.87 300.441 364.026 300.177C364.182 299.913 364.401 299.709 364.683 299.565C364.965 299.415 365.289 299.34 365.655 299.34C366.027 299.34 366.354 299.415 366.636 299.565C366.924 299.709 367.149 299.913 367.311 300.177C367.473 300.435 367.554 300.735 367.554 301.077H366.744C366.744 300.777 366.642 300.534 366.438 300.348C366.234 300.156 365.973 300.06 365.655 300.06C365.337 300.06 365.079 300.156 364.881 300.348C364.683 300.534 364.584 300.777 364.584 301.077C364.584 301.317 364.647 301.524 364.773 301.698C364.905 301.866 365.088 301.983 365.322 302.049L366.348 302.337C366.786 302.457 367.125 302.685 367.365 303.021C367.611 303.351 367.734 303.744 367.734 304.2C367.734 304.776 367.551 305.235 367.185 305.577C366.819 305.919 366.33 306.09 365.718 306.09ZM370.674 306V300.168H368.874V299.43H373.284V300.168H371.484V306H370.674ZM374.225 306L375.935 299.43H377.024L378.725 306H377.906L377.474 304.254H375.485L375.053 306H374.225ZM375.647 303.57H377.303L376.799 301.545C376.703 301.161 376.628 300.84 376.574 300.582C376.52 300.324 376.487 300.156 376.475 300.078C376.463 300.156 376.43 300.324 376.376 300.582C376.322 300.84 376.247 301.158 376.151 301.536L375.647 303.57ZM380.009 306V299.43H382.034C382.424 299.43 382.766 299.511 383.06 299.673C383.354 299.829 383.582 300.048 383.744 300.33C383.906 300.612 383.987 300.942 383.987 301.32C383.987 301.764 383.873 302.145 383.645 302.463C383.417 302.781 383.114 303.003 382.736 303.129L384.077 306H383.186L381.899 303.21H380.81V306H380.009ZM380.81 302.481H382.034C382.37 302.481 382.64 302.376 382.844 302.166C383.048 301.95 383.15 301.668 383.15 301.32C383.15 300.966 383.048 300.684 382.844 300.474C382.64 300.264 382.37 300.159 382.034 300.159H380.81V302.481ZM386.863 306V300.168H385.063V299.43H389.473V300.168H387.673V306H386.863Z" fill="#8B8D94"/>
<path d="M347.39 350V344.424H337.088V340.446L347.39 326.2H352.354V340.446H355.074V344.424H352.354V350H347.39ZM341.406 340.446H347.39V332.184L341.406 340.446ZM362.58 332.252C361.254 333.646 359.282 334.02 357.412 334.02V329.94C360.064 329.634 361.798 328.614 362.58 326.2H367.544V350H362.58V332.252ZM371.36 348.878C371.36 344.56 372.584 341.602 377.616 338.644C380.812 336.808 383.226 335.822 383.26 333.17C383.328 330.756 381.492 330.11 379.928 330.11C378.126 330.11 376.494 331.096 376.494 333.782V334.258H371.7V333.578C371.7 329.362 374.114 325.894 379.996 325.894C385.368 325.894 388.224 328.75 388.224 332.864C388.224 337.522 384.586 339.426 381.73 341.024C378.33 342.996 377.038 344.254 377.038 345.784V345.886H388.156V350H371.36V348.878Z" fill="#66D9A5"/>
<path d="M400.953 345.28C400.953 344.016 400.425 343.456 399.577 343.456C398.745 343.456 398.073 344.016 398.073 345.28V350H395.737V345.28C395.737 344.016 395.209 343.456 394.361 343.456C393.529 343.456 392.857 344.016 392.857 345.28V350H390.521V341.68H392.857V343.424H392.953C393.081 342.64 393.929 341.52 395.385 341.52C396.537 341.52 397.513 342.144 397.897 343.424C398.057 342.656 398.969 341.52 400.537 341.52C402.121 341.52 403.289 342.56 403.289 344.72V350H400.953V345.28ZM408.079 350.16C405.855 350.16 404.495 349.184 404.479 347.264H406.575C406.655 348.048 407.183 348.416 408.095 348.416C408.879 348.416 409.407 348.144 409.407 347.552C409.407 347.168 409.151 346.928 408.607 346.816L407.071 346.496C405.327 346.096 404.703 345.168 404.703 344.064C404.703 342.448 406.095 341.52 408.111 341.52C410.335 341.52 411.503 342.608 411.535 344.4H409.583C409.487 343.568 408.943 343.264 408.143 343.264C407.343 343.264 406.975 343.552 406.975 344C406.975 344.416 407.279 344.688 407.839 344.8L409.407 345.136C410.719 345.424 411.807 346.032 411.807 347.504C411.807 349.36 410.095 350.16 408.079 350.16Z" fill="#8B8D94"/>
<path opacity="0.4" d="M481 334L487 326H475L481 334Z" fill="#66D9A5"/>
<path d="M473.126 348V344.856H471.846V344.2H473.126V343.28C473.126 342.933 473.236 342.661 473.454 342.464C473.673 342.261 473.974 342.16 474.358 342.16H475.646V342.816H474.358C474.017 342.816 473.846 342.971 473.846 343.28V344.2H475.646V344.856H473.846V348H473.126ZM478.219 348.08C477.766 348.08 477.406 347.955 477.139 347.704C476.872 347.448 476.739 347.115 476.739 346.704C476.739 346.432 476.8 346.195 476.923 345.992C477.046 345.789 477.216 345.632 477.435 345.52C477.654 345.403 477.904 345.344 478.187 345.344H479.547V345C479.547 344.429 479.235 344.144 478.611 344.144C478.334 344.144 478.11 344.195 477.939 344.296C477.768 344.397 477.678 344.539 477.667 344.72H476.947C476.974 344.373 477.134 344.088 477.427 343.864C477.726 343.635 478.12 343.52 478.611 343.52C479.144 343.52 479.552 343.648 479.835 343.904C480.123 344.16 480.267 344.517 480.267 344.976V348H479.555V347.2H479.539C479.496 347.472 479.36 347.688 479.131 347.848C478.902 348.003 478.598 348.08 478.219 348.08ZM478.395 347.472C478.747 347.472 479.027 347.387 479.235 347.216C479.443 347.045 479.547 346.813 479.547 346.52V345.904H478.267C478.032 345.904 477.84 345.976 477.691 346.12C477.547 346.259 477.475 346.445 477.475 346.68C477.475 346.925 477.555 347.12 477.715 347.264C477.88 347.403 478.107 347.472 478.395 347.472ZM483.224 348.064C482.733 348.064 482.352 347.955 482.08 347.736C481.813 347.512 481.68 347.197 481.68 346.792H482.4C482.4 346.995 482.472 347.155 482.616 347.272C482.76 347.384 482.963 347.44 483.224 347.44H483.576C483.843 347.44 484.048 347.381 484.192 347.264C484.341 347.147 484.416 346.981 484.416 346.768C484.416 346.389 484.243 346.176 483.896 346.128L482.68 345.952C482.381 345.909 482.149 345.787 481.984 345.584C481.819 345.376 481.736 345.104 481.736 344.768C481.736 344.384 481.867 344.083 482.128 343.864C482.395 343.645 482.76 343.536 483.224 343.536H483.576C484.003 343.536 484.349 343.643 484.616 343.856C484.888 344.064 485.035 344.339 485.056 344.68H484.328C484.317 344.525 484.243 344.397 484.104 344.296C483.971 344.195 483.795 344.144 483.576 344.144H483.224C482.979 344.144 482.787 344.2 482.648 344.312C482.509 344.424 482.44 344.576 482.44 344.768C482.44 345.077 482.581 345.253 482.864 345.296L484 345.456C484.747 345.563 485.12 346 485.12 346.768C485.12 347.179 484.984 347.499 484.712 347.728C484.445 347.952 484.067 348.064 483.576 348.064H483.224ZM488.637 348C488.274 348 487.984 347.896 487.765 347.688C487.546 347.475 487.437 347.192 487.437 346.84V344.256H486.173V343.6H487.437V342.36H488.157V343.6H489.957V344.256H488.157V346.84C488.157 346.989 488.2 347.112 488.285 347.208C488.376 347.299 488.493 347.344 488.637 347.344H489.917V348H488.637Z" fill="#66D9A5"/>
<path d="M673 278H531C529.343 278 528 279.343 528 281V365C528 366.657 529.343 368 531 368H673C674.657 368 676 366.657 676 365V281C676 279.343 674.657 278 673 278Z" fill="#0A0C10" stroke="#1A1D24" stroke-width="0.8"/>
<path opacity="0.3" d="M530 278H528V368H530V278Z" fill="#66D9A5"/>
<path d="M546.9 306V299.43H550.68V300.168H547.701V302.202H550.365V302.922H547.701V305.262H550.68V306H546.9ZM552.224 306V299.43H553.925C554.351 299.43 554.717 299.511 555.023 299.673C555.335 299.835 555.575 300.063 555.743 300.357C555.917 300.651 556.004 300.999 556.004 301.401V304.02C556.004 304.422 555.917 304.773 555.743 305.073C555.575 305.367 555.335 305.595 555.023 305.757C554.717 305.919 554.351 306 553.925 306H552.224ZM553.034 305.28H553.925C554.321 305.28 554.63 305.169 554.852 304.947C555.08 304.725 555.194 304.416 555.194 304.02V301.401C555.194 301.011 555.08 300.705 554.852 300.483C554.63 300.261 554.321 300.15 553.925 300.15H553.034V305.28ZM559.529 306.09C558.929 306.09 558.455 305.922 558.107 305.586C557.759 305.25 557.585 304.788 557.585 304.2V301.23C557.585 300.642 557.759 300.18 558.107 299.844C558.455 299.508 558.929 299.34 559.529 299.34C560.117 299.34 560.585 299.511 560.933 299.853C561.281 300.189 561.455 300.648 561.455 301.23H560.645C560.645 300.858 560.546 300.573 560.348 300.375C560.156 300.171 559.883 300.069 559.529 300.069C559.175 300.069 558.896 300.168 558.692 300.366C558.494 300.564 558.395 300.849 558.395 301.221V304.2C558.395 304.572 558.494 304.86 558.692 305.064C558.896 305.268 559.175 305.37 559.529 305.37C559.883 305.37 560.156 305.268 560.348 305.064C560.546 304.86 560.645 304.572 560.645 304.2V303.3H559.313V302.562H561.455V304.2C561.455 304.782 561.281 305.244 560.933 305.586C560.585 305.922 560.117 306.09 559.529 306.09ZM563.089 306V299.43H566.869V300.168H563.89V302.202H566.554V302.922H563.89V305.262H566.869V306H563.089ZM574.152 306V299.43H574.962V305.262H577.932V306H574.152ZM578.829 306L580.539 299.43H581.628L583.329 306H582.51L582.078 304.254H580.089L579.657 306H578.829ZM580.251 303.57H581.907L581.403 301.545C581.307 301.161 581.232 300.84 581.178 300.582C581.124 300.324 581.091 300.156 581.079 300.078C581.067 300.156 581.034 300.324 580.98 300.582C580.926 300.84 580.851 301.158 580.755 301.536L580.251 303.57ZM586.07 306V300.168H584.27V299.43H588.68V300.168H586.88V306H586.07ZM590.072 306V299.43H593.852V300.168H590.873V302.202H593.537V302.922H590.873V305.262H593.852V306H590.072ZM595.378 306V299.43H596.458L598.465 305.055C598.453 304.905 598.438 304.722 598.42 304.506C598.408 304.284 598.396 304.053 598.384 303.813C598.378 303.567 598.375 303.336 598.375 303.12V299.43H599.158V306H598.078L596.08 300.375C596.092 300.519 596.104 300.702 596.116 300.924C596.128 301.14 596.137 301.371 596.143 301.617C596.155 301.857 596.161 302.088 596.161 302.31V306H595.378ZM602.737 306.09C602.137 306.09 601.663 305.922 601.315 305.586C600.967 305.25 600.793 304.788 600.793 304.2V301.23C600.793 300.642 600.967 300.18 601.315 299.844C601.663 299.508 602.137 299.34 602.737 299.34C603.325 299.34 603.793 299.511 604.141 299.853C604.489 300.189 604.663 300.648 604.663 301.23H603.853C603.853 300.858 603.754 300.573 603.556 300.375C603.364 300.171 603.091 300.069 602.737 300.069C602.383 300.069 602.104 300.171 601.9 300.375C601.702 300.573 601.603 300.858 601.603 301.23V304.2C601.603 304.572 601.702 304.86 601.9 305.064C602.104 305.262 602.383 305.361 602.737 305.361C603.091 305.361 603.364 305.262 603.556 305.064C603.754 304.86 603.853 304.572 603.853 304.2H604.663C604.663 304.782 604.489 305.244 604.141 305.586C603.793 305.922 603.325 306.09 602.737 306.09ZM607.656 306V303.543L605.676 299.43H606.54L607.818 302.13C607.89 302.28 607.947 302.409 607.989 302.517C608.031 302.619 608.058 302.694 608.07 302.742C608.082 302.694 608.109 302.619 608.151 302.517C608.199 302.409 608.259 302.28 608.331 302.13L609.609 299.43H610.446L608.466 303.543V306H607.656Z" fill="#8B8D94"/>
<path d="M555.792 350.34C550.862 350.34 547.088 347.756 547.088 343.166C547.088 340.31 548.448 338.134 551.27 336.944C548.958 335.686 548.346 333.714 548.346 331.98C548.346 328.58 551.032 325.894 555.792 325.894C560.552 325.894 563.238 328.58 563.238 331.98C563.238 333.714 562.626 335.686 560.314 336.944C563.136 338.134 564.496 340.31 564.496 343.166C564.496 347.756 560.722 350.34 555.792 350.34ZM551.814 342.588C551.814 344.492 553.106 346.192 555.792 346.192C558.478 346.192 559.77 344.492 559.77 342.588C559.77 340.718 558.41 338.984 555.792 338.984C553.174 338.984 551.814 340.718 551.814 342.588ZM552.698 332.422C552.698 333.918 553.718 335.244 555.792 335.244C557.866 335.244 558.886 333.918 558.886 332.422C558.886 330.824 557.798 329.702 555.792 329.702C553.786 329.702 552.698 330.824 552.698 332.422Z" fill="#66D9A5"/>
<path d="M576.854 345.28C576.854 344.016 576.326 343.456 575.478 343.456C574.646 343.456 573.974 344.016 573.974 345.28V350H571.638V345.28C571.638 344.016 571.11 343.456 570.262 343.456C569.43 343.456 568.758 344.016 568.758 345.28V350H566.422V341.68H568.758V343.424H568.854C568.982 342.64 569.83 341.52 571.286 341.52C572.438 341.52 573.414 342.144 573.798 343.424C573.958 342.656 574.87 341.52 576.438 341.52C578.022 341.52 579.19 342.56 579.19 344.72V350H576.854V345.28ZM583.979 350.16C581.755 350.16 580.395 349.184 580.379 347.264H582.475C582.555 348.048 583.083 348.416 583.995 348.416C584.779 348.416 585.307 348.144 585.307 347.552C585.307 347.168 585.051 346.928 584.507 346.816L582.971 346.496C581.227 346.096 580.603 345.168 580.603 344.064C580.603 342.448 581.995 341.52 584.011 341.52C586.235 341.52 587.403 342.608 587.435 344.4H585.483C585.387 343.568 584.843 343.264 584.043 343.264C583.243 343.264 582.875 343.552 582.875 344C582.875 344.416 583.179 344.688 583.739 344.8L585.307 345.136C586.619 345.424 587.707 346.032 587.707 347.504C587.707 349.36 585.995 350.16 583.979 350.16Z" fill="#8B8D94"/>
<path d="M673 392H111C109.343 392 108 393.343 108 395V509C108 510.657 109.343 512 111 512H673C674.657 512 676 510.657 676 509V395C676 393.343 674.657 392 673 392Z" fill="#0A0C10" stroke="#1A1D24" stroke-width="0.8"/>
<path opacity="0.3" d="M110 392H108V512H110V392Z" fill="#66D9A5"/>
<path d="M130.837 420V413.43H132.862C133.252 413.43 133.594 413.511 133.888 413.673C134.182 413.829 134.41 414.048 134.572 414.33C134.734 414.612 134.815 414.942 134.815 415.32C134.815 415.764 134.701 416.145 134.473 416.463C134.245 416.781 133.942 417.003 133.564 417.129L134.905 420H134.014L132.727 417.21H131.638V420H130.837ZM131.638 416.481H132.862C133.198 416.481 133.468 416.376 133.672 416.166C133.876 415.95 133.978 415.668 133.978 415.32C133.978 414.966 133.876 414.684 133.672 414.474C133.468 414.264 133.198 414.159 132.862 414.159H131.638V416.481ZM138.096 420.09C137.508 420.09 137.043 419.919 136.701 419.577C136.359 419.235 136.188 418.746 136.188 418.11V415.32C136.188 414.684 136.359 414.195 136.701 413.853C137.043 413.511 137.508 413.34 138.096 413.34C138.684 413.34 139.149 413.511 139.491 413.853C139.833 414.195 140.004 414.681 140.004 415.311V418.11C140.004 418.746 139.833 419.235 139.491 419.577C139.149 419.919 138.684 420.09 138.096 420.09ZM138.096 419.361C138.45 419.361 138.72 419.262 138.906 419.064C139.098 418.86 139.194 418.572 139.194 418.2V415.23C139.194 414.858 139.098 414.573 138.906 414.375C138.72 414.171 138.45 414.069 138.096 414.069C137.748 414.069 137.478 414.171 137.286 414.375C137.094 414.573 136.998 414.858 136.998 415.23V418.2C136.998 418.572 137.094 418.86 137.286 419.064C137.478 419.262 137.748 419.361 138.096 419.361ZM143.493 420.09C142.881 420.09 142.413 419.922 142.089 419.586C141.765 419.244 141.603 418.782 141.603 418.2V413.43H142.413V418.2C142.413 418.56 142.5 418.845 142.674 419.055C142.854 419.265 143.127 419.37 143.493 419.37C143.853 419.37 144.123 419.265 144.303 419.055C144.483 418.845 144.573 418.56 144.573 418.2V413.43H145.383V418.2C145.383 418.788 145.221 419.25 144.897 419.586C144.579 419.922 144.111 420.09 143.493 420.09ZM148.484 420V414.168H146.684V413.43H151.094V414.168H149.294V420H148.484ZM152.531 420V419.262H153.872V414.168H152.531V413.43H156.041V414.168H154.7V419.262H156.041V420H152.531ZM157.792 420V413.43H158.872L160.879 419.055C160.867 418.905 160.852 418.722 160.834 418.506C160.822 418.284 160.81 418.053 160.798 417.813C160.792 417.567 160.789 417.336 160.789 417.12V413.43H161.572V420H160.492L158.494 414.375C158.506 414.519 158.518 414.702 158.53 414.924C158.542 415.14 158.551 415.371 158.557 415.617C158.569 415.857 158.575 416.088 158.575 416.31V420H157.792ZM165.115 420.09C164.515 420.09 164.041 419.922 163.693 419.586C163.345 419.25 163.171 418.788 163.171 418.2V415.23C163.171 414.642 163.345 414.18 163.693 413.844C164.041 413.508 164.515 413.34 165.115 413.34C165.703 413.34 166.171 413.511 166.519 413.853C166.867 414.189 167.041 414.648 167.041 415.23H166.231C166.231 414.858 166.132 414.573 165.934 414.375C165.742 414.171 165.469 414.069 165.115 414.069C164.761 414.069 164.482 414.168 164.278 414.366C164.08 414.564 163.981 414.849 163.981 415.221V418.2C163.981 418.572 164.08 418.86 164.278 419.064C164.482 419.268 164.761 419.37 165.115 419.37C165.469 419.37 165.742 419.268 165.934 419.064C166.132 418.86 166.231 418.572 166.231 418.2V417.3H164.899V416.562H167.041V418.2C167.041 418.782 166.867 419.244 166.519 419.586C166.171 419.922 165.703 420.09 165.115 420.09ZM175.908 420.09C175.272 420.09 174.765 419.922 174.387 419.586C174.009 419.25 173.82 418.788 173.82 418.2H174.63C174.63 418.566 174.747 418.854 174.981 419.064C175.215 419.268 175.524 419.37 175.908 419.37C176.28 419.37 176.577 419.262 176.799 419.046C177.021 418.83 177.132 418.548 177.132 418.2C177.132 417.936 177.06 417.708 176.916 417.516C176.778 417.318 176.577 417.183 176.313 417.111L175.314 416.832C174.9 416.712 174.573 416.499 174.333 416.193C174.099 415.881 173.982 415.515 173.982 415.095C173.982 414.747 174.06 414.441 174.216 414.177C174.372 413.913 174.591 413.709 174.873 413.565C175.155 413.415 175.479 413.34 175.845 413.34C176.217 413.34 176.544 413.415 176.826 413.565C177.114 413.709 177.339 413.913 177.501 414.177C177.663 414.435 177.744 414.735 177.744 415.077H176.934C176.934 414.777 176.832 414.534 176.628 414.348C176.424 414.156 176.163 414.06 175.845 414.06C175.527 414.06 175.269 414.156 175.071 414.348C174.873 414.534 174.774 414.777 174.774 415.077C174.774 415.317 174.837 415.524 174.963 415.698C175.095 415.866 175.278 415.983 175.512 416.049L176.538 416.337C176.976 416.457 177.315 416.685 177.555 417.021C177.801 417.351 177.924 417.744 177.924 418.2C177.924 418.776 177.741 419.235 177.375 419.577C177.009 419.919 176.52 420.09 175.908 420.09ZM179.396 420V413.43H181.511C182.123 413.43 182.609 413.607 182.969 413.961C183.335 414.309 183.518 414.777 183.518 415.365C183.518 415.953 183.335 416.424 182.969 416.778C182.609 417.126 182.123 417.3 181.511 417.3H180.206V420H179.396ZM180.206 416.571H181.511C181.865 416.571 182.147 416.463 182.357 416.247C182.573 416.025 182.681 415.731 182.681 415.365C182.681 414.993 182.573 414.699 182.357 414.483C182.147 414.267 181.865 414.159 181.511 414.159H180.206V416.571ZM184.865 420V413.43H188.645V414.168H185.666V416.202H188.33V416.922H185.666V419.262H188.645V420H184.865ZM190.261 420V413.43H194.041V414.168H191.062V416.202H193.726V416.922H191.062V419.262H194.041V420H190.261ZM195.586 420V413.43H197.287C197.713 413.43 198.079 413.511 198.385 413.673C198.697 413.835 198.937 414.063 199.105 414.357C199.279 414.651 199.366 414.999 199.366 415.401V418.02C199.366 418.422 199.279 418.773 199.105 419.073C198.937 419.367 198.697 419.595 198.385 419.757C198.079 419.919 197.713 420 197.287 420H195.586ZM196.396 419.28H197.287C197.683 419.28 197.992 419.169 198.214 418.947C198.442 418.725 198.556 418.416 198.556 418.02V415.401C198.556 415.011 198.442 414.705 198.214 414.483C197.992 414.261 197.683 414.15 197.287 414.15H196.396V419.28ZM206.388 420V413.43H208.251C208.851 413.43 209.319 413.58 209.655 413.88C209.997 414.18 210.168 414.597 210.168 415.131C210.168 415.467 210.06 415.77 209.844 416.04C209.634 416.31 209.358 416.478 209.016 416.544V416.571C209.274 416.601 209.499 416.691 209.691 416.841C209.889 416.991 210.042 417.183 210.15 417.417C210.264 417.645 210.321 417.897 210.321 418.173C210.321 418.737 210.147 419.184 209.799 419.514C209.457 419.838 208.986 420 208.386 420H206.388ZM207.18 416.229H208.242C208.59 416.229 208.863 416.136 209.061 415.95C209.265 415.764 209.367 415.512 209.367 415.194C209.367 414.876 209.268 414.624 209.07 414.438C208.872 414.252 208.599 414.159 208.251 414.159H207.18V416.229ZM207.18 419.271H208.296C208.674 419.271 208.971 419.172 209.187 418.974C209.409 418.77 209.52 418.494 209.52 418.146C209.52 417.786 209.409 417.495 209.187 417.273C208.971 417.045 208.674 416.931 208.296 416.931H207.18V419.271ZM213.242 420V417.543L211.262 413.43H212.126L213.404 416.13C213.476 416.28 213.533 416.409 213.575 416.517C213.617 416.619 213.644 416.694 213.656 416.742C213.668 416.694 213.695 416.619 213.737 416.517C213.785 416.409 213.845 416.28 213.917 416.13L215.195 413.43H216.032L214.052 417.543V420H213.242ZM222.577 420V413.43H224.602C224.992 413.43 225.334 413.511 225.628 413.673C225.922 413.829 226.15 414.048 226.312 414.33C226.474 414.612 226.555 414.942 226.555 415.32C226.555 415.764 226.441 416.145 226.213 416.463C225.985 416.781 225.682 417.003 225.304 417.129L226.645 420H225.754L224.467 417.21H223.378V420H222.577ZM223.378 416.481H224.602C224.938 416.481 225.208 416.376 225.412 416.166C225.616 415.95 225.718 415.668 225.718 415.32C225.718 414.966 225.616 414.684 225.412 414.474C225.208 414.264 224.938 414.159 224.602 414.159H223.378V416.481ZM228.037 420V413.43H231.817V414.168H228.838V416.202H231.502V416.922H228.838V419.262H231.817V420H228.037ZM235.269 420.09C234.669 420.09 234.195 419.922 233.847 419.586C233.499 419.25 233.325 418.788 233.325 418.2V415.23C233.325 414.642 233.499 414.18 233.847 413.844C234.195 413.508 234.669 413.34 235.269 413.34C235.857 413.34 236.325 413.511 236.673 413.853C237.021 414.189 237.195 414.648 237.195 415.23H236.385C236.385 414.858 236.286 414.573 236.088 414.375C235.896 414.171 235.623 414.069 235.269 414.069C234.915 414.069 234.636 414.168 234.432 414.366C234.234 414.564 234.135 414.849 234.135 415.221V418.2C234.135 418.572 234.234 418.86 234.432 419.064C234.636 419.268 234.915 419.37 235.269 419.37C235.623 419.37 235.896 419.268 236.088 419.064C236.286 418.86 236.385 418.572 236.385 418.2V417.3H235.053V416.562H237.195V418.2C237.195 418.782 237.021 419.244 236.673 419.586C236.325 419.922 235.857 420.09 235.269 420.09ZM238.875 420V419.262H240.216V414.168H238.875V413.43H242.385V414.168H241.044V419.262H242.385V420H238.875ZM246.026 420.09C245.438 420.09 244.973 419.919 244.631 419.577C244.289 419.235 244.118 418.746 244.118 418.11V415.32C244.118 414.684 244.289 414.195 244.631 413.853C244.973 413.511 245.438 413.34 246.026 413.34C246.614 413.34 247.079 413.511 247.421 413.853C247.763 414.195 247.934 414.681 247.934 415.311V418.11C247.934 418.746 247.763 419.235 247.421 419.577C247.079 419.919 246.614 420.09 246.026 420.09ZM246.026 419.361C246.38 419.361 246.65 419.262 246.836 419.064C247.028 418.86 247.124 418.572 247.124 418.2V415.23C247.124 414.858 247.028 414.573 246.836 414.375C246.65 414.171 246.38 414.069 246.026 414.069C245.678 414.069 245.408 414.171 245.216 414.375C245.024 414.573 244.928 414.858 244.928 415.23V418.2C244.928 418.572 245.024 418.86 245.216 419.064C245.408 419.262 245.678 419.361 246.026 419.361ZM249.533 420V413.43H250.613L252.62 419.055C252.608 418.905 252.593 418.722 252.575 418.506C252.563 418.284 252.551 418.053 252.539 417.813C252.533 417.567 252.53 417.336 252.53 417.12V413.43H253.313V420H252.233L250.235 414.375C250.247 414.519 250.259 414.702 250.271 414.924C250.283 415.14 250.292 415.371 250.298 415.617C250.31 415.857 250.316 416.088 250.316 416.31V420H249.533Z" fill="#8B8D94"/>
<path d="M133.289 448.11C132.592 448.11 132.035 447.905 131.617 447.494C131.199 447.076 130.99 446.511 130.99 445.8V441.95H131.98V445.8C131.98 446.24 132.097 446.592 132.332 446.856C132.567 447.113 132.886 447.241 133.289 447.241C133.7 447.241 134.022 447.113 134.257 446.856C134.499 446.592 134.62 446.24 134.62 445.8V441.95H135.61V445.8C135.61 446.511 135.397 447.076 134.972 447.494C134.547 447.905 133.986 448.11 133.289 448.11ZM139.654 448.088C138.979 448.088 138.455 447.938 138.081 447.637C137.714 447.329 137.531 446.896 137.531 446.339H138.521C138.521 446.618 138.62 446.838 138.818 446.999C139.016 447.153 139.294 447.23 139.654 447.23H140.138C140.504 447.23 140.787 447.149 140.985 446.988C141.19 446.827 141.293 446.599 141.293 446.306C141.293 445.785 141.054 445.492 140.578 445.426L138.906 445.184C138.495 445.125 138.176 444.957 137.949 444.678C137.721 444.392 137.608 444.018 137.608 443.556C137.608 443.028 137.787 442.614 138.147 442.313C138.513 442.012 139.016 441.862 139.654 441.862H140.138C140.724 441.862 141.201 442.009 141.568 442.302C141.942 442.588 142.143 442.966 142.173 443.435H141.172C141.157 443.222 141.054 443.046 140.864 442.907C140.68 442.768 140.438 442.698 140.138 442.698H139.654C139.316 442.698 139.052 442.775 138.862 442.929C138.671 443.083 138.576 443.292 138.576 443.556C138.576 443.981 138.77 444.223 139.159 444.282L140.721 444.502C141.747 444.649 142.261 445.25 142.261 446.306C142.261 446.871 142.074 447.311 141.7 447.626C141.333 447.934 140.812 448.088 140.138 448.088H139.654ZM144.731 444.81V443.93H148.251V444.81H144.731ZM153.087 448.11C152.376 448.11 151.8 447.897 151.36 447.472C150.927 447.039 150.711 446.445 150.711 445.69V444.26C150.711 443.505 150.927 442.914 151.36 442.489C151.8 442.056 152.376 441.84 153.087 441.84C153.564 441.84 153.978 441.935 154.33 442.126C154.689 442.317 154.968 442.584 155.166 442.929C155.364 443.274 155.463 443.681 155.463 444.15V445.228H151.679V445.8C151.679 446.247 151.807 446.603 152.064 446.867C152.321 447.124 152.662 447.252 153.087 447.252C153.454 447.252 153.754 447.182 153.989 447.043C154.231 446.896 154.378 446.702 154.429 446.46H155.419C155.353 446.966 155.107 447.369 154.682 447.67C154.257 447.963 153.725 448.11 153.087 448.11ZM151.679 444.458H154.495V444.15C154.495 443.673 154.37 443.307 154.121 443.05C153.879 442.786 153.534 442.654 153.087 442.654C152.64 442.654 152.291 442.786 152.042 443.05C151.8 443.307 151.679 443.673 151.679 444.15V444.458ZM159.155 448.11C158.531 448.11 158.036 447.938 157.67 447.593C157.303 447.241 157.12 446.783 157.12 446.218C157.12 445.844 157.204 445.518 157.373 445.239C157.541 444.96 157.776 444.744 158.077 444.59C158.377 444.429 158.722 444.348 159.111 444.348H160.981V443.875C160.981 443.09 160.552 442.698 159.694 442.698C159.312 442.698 159.004 442.768 158.77 442.907C158.535 443.046 158.41 443.241 158.396 443.49H157.406C157.442 443.013 157.662 442.621 158.066 442.313C158.476 441.998 159.019 441.84 159.694 441.84C160.427 441.84 160.988 442.016 161.377 442.368C161.773 442.72 161.971 443.211 161.971 443.842V448H160.992V446.9H160.97C160.911 447.274 160.724 447.571 160.409 447.791C160.093 448.004 159.675 448.11 159.155 448.11ZM159.397 447.274C159.881 447.274 160.266 447.157 160.552 446.922C160.838 446.687 160.981 446.368 160.981 445.965V445.118H159.221C158.898 445.118 158.634 445.217 158.429 445.415C158.231 445.606 158.132 445.862 158.132 446.185C158.132 446.522 158.242 446.79 158.462 446.988C158.689 447.179 159.001 447.274 159.397 447.274ZM166.037 448.088C165.362 448.088 164.838 447.938 164.464 447.637C164.097 447.329 163.914 446.896 163.914 446.339H164.904C164.904 446.618 165.003 446.838 165.201 446.999C165.399 447.153 165.677 447.23 166.037 447.23H166.521C166.887 447.23 167.17 447.149 167.368 446.988C167.573 446.827 167.676 446.599 167.676 446.306C167.676 445.785 167.437 445.492 166.961 445.426L165.289 445.184C164.878 445.125 164.559 444.957 164.332 444.678C164.104 444.392 163.991 444.018 163.991 443.556C163.991 443.028 164.17 442.614 164.53 442.313C164.896 442.012 165.399 441.862 166.037 441.862H166.521C167.107 441.862 167.584 442.009 167.951 442.302C168.325 442.588 168.526 442.966 168.556 443.435H167.555C167.54 443.222 167.437 443.046 167.247 442.907C167.063 442.768 166.821 442.698 166.521 442.698H166.037C165.699 442.698 165.435 442.775 165.245 442.929C165.054 443.083 164.959 443.292 164.959 443.556C164.959 443.981 165.153 444.223 165.542 444.282L167.104 444.502C168.13 444.649 168.644 445.25 168.644 446.306C168.644 446.871 168.457 447.311 168.083 447.626C167.716 447.934 167.195 448.088 166.521 448.088H166.037ZM173.479 448C172.981 448 172.581 447.857 172.28 447.571C171.98 447.278 171.829 446.889 171.829 446.405V442.852H170.091V441.95H171.829V440.245H172.819V441.95H175.294V442.852H172.819V446.405C172.819 446.61 172.878 446.779 172.995 446.911C173.12 447.036 173.281 447.098 173.479 447.098H175.239V448H173.479Z" fill="#8B8D94"/>
<path d="M547 436H209C208.448 436 208 436.448 208 437V449C208 449.552 208.448 450 209 450H547C547.552 450 548 449.552 548 449V437C548 436.448 547.552 436 547 436Z" fill="#1A1D24"/>
<path opacity="0.65" d="M497 436H209C208.448 436 208 436.448 208 437V449C208 449.552 208.448 450 209 450H497C497.552 450 498 449.552 498 449V437C498 436.448 497.552 436 497 436Z" fill="#66D9A5"/>
<path d="M511 448.1C510.54 448.1 510.133 448.01 509.78 447.83C509.427 447.65 509.15 447.4 508.95 447.08C508.757 446.753 508.66 446.38 508.66 445.96C508.66 445.5 508.79 445.103 509.05 444.77C509.317 444.437 509.67 444.233 510.11 444.16V444.13C509.73 444.043 509.427 443.853 509.2 443.56C508.973 443.26 508.86 442.917 508.86 442.53C508.86 442.15 508.95 441.817 509.13 441.53C509.31 441.237 509.56 441.01 509.88 440.85C510.207 440.683 510.58 440.6 511 440.6C511.427 440.6 511.8 440.683 512.12 440.85C512.44 441.01 512.69 441.237 512.87 441.53C513.05 441.817 513.14 442.15 513.14 442.53C513.14 442.917 513.027 443.26 512.8 443.56C512.573 443.853 512.27 444.043 511.89 444.13V444.16C512.33 444.233 512.68 444.437 512.94 444.77C513.207 445.103 513.34 445.5 513.34 445.96C513.34 446.38 513.24 446.753 513.04 447.08C512.847 447.4 512.573 447.65 512.22 447.83C511.873 448.01 511.467 448.1 511 448.1ZM511 443.78C511.373 443.78 511.673 443.67 511.9 443.45C512.127 443.23 512.24 442.943 512.24 442.59C512.24 442.237 512.127 441.95 511.9 441.73C511.673 441.51 511.373 441.4 511 441.4C510.633 441.4 510.333 441.51 510.1 441.73C509.873 441.95 509.76 442.237 509.76 442.59C509.76 442.943 509.873 443.23 510.1 443.45C510.333 443.67 510.633 443.78 511 443.78ZM511 447.29C511.427 447.29 511.773 447.167 512.04 446.92C512.307 446.667 512.44 446.34 512.44 445.94C512.44 445.533 512.307 445.207 512.04 444.96C511.773 444.707 511.427 444.58 511 444.58C510.573 444.58 510.227 444.707 509.96 444.96C509.693 445.207 509.56 445.533 509.56 445.94C509.56 446.34 509.693 446.667 509.96 446.92C510.227 447.167 510.573 447.29 511 447.29ZM514.596 448V442.5H515.376V443.23H515.396C515.429 442.983 515.526 442.783 515.686 442.63C515.853 442.477 516.063 442.4 516.316 442.4C516.556 442.4 516.759 442.47 516.926 442.61C517.093 442.75 517.213 442.94 517.286 443.18H517.296C517.343 442.94 517.446 442.75 517.606 442.61C517.773 442.47 517.983 442.4 518.236 442.4C518.589 442.4 518.869 442.533 519.076 442.8C519.289 443.06 519.396 443.4 519.396 443.82V448H518.556V443.81C518.556 443.59 518.503 443.417 518.396 443.29C518.289 443.157 518.143 443.09 517.956 443.09C517.776 443.09 517.633 443.153 517.526 443.28C517.419 443.407 517.366 443.58 517.366 443.8V448H516.626V443.81C516.626 443.59 516.573 443.417 516.466 443.29C516.359 443.157 516.216 443.09 516.036 443.09C515.849 443.09 515.703 443.153 515.596 443.28C515.489 443.407 515.436 443.58 515.436 443.8V448H514.596ZM522.772 448.08C522.159 448.08 521.682 447.943 521.342 447.67C521.009 447.39 520.842 446.997 520.842 446.49H521.742C521.742 446.743 521.832 446.943 522.012 447.09C522.192 447.23 522.446 447.3 522.772 447.3H523.212C523.546 447.3 523.802 447.227 523.982 447.08C524.169 446.933 524.262 446.727 524.262 446.46C524.262 445.987 524.046 445.72 523.612 445.66L522.092 445.44C521.719 445.387 521.429 445.233 521.222 444.98C521.016 444.72 520.912 444.38 520.912 443.96C520.912 443.48 521.076 443.103 521.402 442.83C521.736 442.557 522.192 442.42 522.772 442.42H523.212C523.746 442.42 524.179 442.553 524.512 442.82C524.852 443.08 525.036 443.423 525.062 443.85H524.152C524.139 443.657 524.046 443.497 523.872 443.37C523.706 443.243 523.486 443.18 523.212 443.18H522.772C522.466 443.18 522.226 443.25 522.052 443.39C521.879 443.53 521.792 443.72 521.792 443.96C521.792 444.347 521.969 444.567 522.322 444.62L523.742 444.82C524.676 444.953 525.142 445.5 525.142 446.46C525.142 446.973 524.972 447.373 524.632 447.66C524.299 447.94 523.826 448.08 523.212 448.08H522.772Z" fill="#66D9A5"/>
<path d="M133.3 470.11C132.589 470.11 132.013 469.897 131.573 469.472C131.14 469.039 130.924 468.445 130.924 467.69V466.26C130.924 465.505 131.14 464.914 131.573 464.489C132.013 464.056 132.589 463.84 133.3 463.84C133.777 463.84 134.191 463.935 134.543 464.126C134.902 464.317 135.181 464.584 135.379 464.929C135.577 465.274 135.676 465.681 135.676 466.15V467.228H131.892V467.8C131.892 468.247 132.02 468.603 132.277 468.867C132.534 469.124 132.875 469.252 133.3 469.252C133.667 469.252 133.967 469.182 134.202 469.043C134.444 468.896 134.591 468.702 134.642 468.46H135.632C135.566 468.966 135.32 469.369 134.895 469.67C134.47 469.963 133.938 470.11 133.3 470.11ZM131.892 466.458H134.708V466.15C134.708 465.673 134.583 465.307 134.334 465.05C134.092 464.786 133.747 464.654 133.3 464.654C132.853 464.654 132.504 464.786 132.255 465.05C132.013 465.307 131.892 465.673 131.892 466.15V466.458ZM139.885 470.11C139.188 470.11 138.631 469.905 138.213 469.494C137.795 469.076 137.586 468.511 137.586 467.8V463.95H138.576V467.8C138.576 468.24 138.693 468.592 138.928 468.856C139.162 469.113 139.481 469.241 139.885 469.241C140.295 469.241 140.618 469.113 140.853 468.856C141.095 468.592 141.216 468.24 141.216 467.8V463.95H142.206V467.8C142.206 468.511 141.993 469.076 141.568 469.494C141.142 469.905 140.581 470.11 139.885 470.11ZM144.731 466.81V465.93H148.251V466.81H144.731ZM151.118 470L150.128 463.95H150.986L151.602 468.218C151.624 468.379 151.646 468.559 151.668 468.757C151.69 468.948 151.705 469.105 151.712 469.23C151.727 469.105 151.741 468.948 151.756 468.757C151.778 468.559 151.804 468.379 151.833 468.218L152.592 463.95H153.582L154.341 468.218C154.37 468.379 154.396 468.559 154.418 468.757C154.447 468.948 154.466 469.105 154.473 469.23C154.488 469.105 154.506 468.948 154.528 468.757C154.55 468.559 154.572 468.379 154.594 468.218L155.232 463.95H156.046L155.012 470H153.923L153.23 465.82C153.201 465.615 153.171 465.398 153.142 465.171C153.12 464.936 153.102 464.757 153.087 464.632C153.08 464.757 153.061 464.936 153.032 465.171C153.003 465.398 152.97 465.615 152.933 465.82L152.207 470H151.118ZM159.683 470.11C158.971 470.11 158.396 469.897 157.956 469.472C157.523 469.039 157.307 468.445 157.307 467.69V466.26C157.307 465.505 157.523 464.914 157.956 464.489C158.396 464.056 158.971 463.84 159.683 463.84C160.159 463.84 160.574 463.935 160.926 464.126C161.285 464.317 161.564 464.584 161.762 464.929C161.96 465.274 162.059 465.681 162.059 466.15V467.228H158.275V467.8C158.275 468.247 158.403 468.603 158.66 468.867C158.916 469.124 159.257 469.252 159.683 469.252C160.049 469.252 160.35 469.182 160.585 469.043C160.827 468.896 160.973 468.702 161.025 468.46H162.015C161.949 468.966 161.703 469.369 161.278 469.67C160.852 469.963 160.321 470.11 159.683 470.11ZM158.275 466.458H161.091V466.15C161.091 465.673 160.966 465.307 160.717 465.05C160.475 464.786 160.13 464.654 159.683 464.654C159.235 464.654 158.887 464.786 158.638 465.05C158.396 465.307 158.275 465.673 158.275 466.15V466.458ZM166.037 470.088C165.362 470.088 164.838 469.938 164.464 469.637C164.097 469.329 163.914 468.896 163.914 468.339H164.904C164.904 468.618 165.003 468.838 165.201 468.999C165.399 469.153 165.677 469.23 166.037 469.23H166.521C166.887 469.23 167.17 469.149 167.368 468.988C167.573 468.827 167.676 468.599 167.676 468.306C167.676 467.785 167.437 467.492 166.961 467.426L165.289 467.184C164.878 467.125 164.559 466.957 164.332 466.678C164.104 466.392 163.991 466.018 163.991 465.556C163.991 465.028 164.17 464.614 164.53 464.313C164.896 464.012 165.399 463.862 166.037 463.862H166.521C167.107 463.862 167.584 464.009 167.951 464.302C168.325 464.588 168.526 464.966 168.556 465.435H167.555C167.54 465.222 167.437 465.046 167.247 464.907C167.063 464.768 166.821 464.698 166.521 464.698H166.037C165.699 464.698 165.435 464.775 165.245 464.929C165.054 465.083 164.959 465.292 164.959 465.556C164.959 465.981 165.153 466.223 165.542 466.282L167.104 466.502C168.13 466.649 168.644 467.25 168.644 468.306C168.644 468.871 168.457 469.311 168.083 469.626C167.716 469.934 167.195 470.088 166.521 470.088H166.037ZM173.479 470C172.981 470 172.581 469.857 172.28 469.571C171.98 469.278 171.829 468.889 171.829 468.405V464.852H170.091V463.95H171.829V462.245H172.819V463.95H175.294V464.852H172.819V468.405C172.819 468.61 172.878 468.779 172.995 468.911C173.12 469.036 173.281 469.098 173.479 469.098H175.239V470H173.479Z" fill="#8B8D94"/>
<path d="M547 458H209C208.448 458 208 458.448 208 459V471C208 471.552 208.448 472 209 472H547C547.552 472 548 471.552 548 471V459C548 458.448 547.552 458 547 458Z" fill="#1A1D24"/>
<path opacity="0.45" d="M427 458H209C208.448 458 208 458.448 208 459V471C208 471.552 208.448 472 209 472H427C427.552 472 428 471.552 428 471V459C428 458.448 427.552 458 427 458Z" fill="#66D9A5"/>
<path d="M438.9 470V469.18H440.88V463.48L438.9 464.96V463.93L440.55 462.7H441.78V469.18H443.4V470H438.9ZM444.856 470V469.17L447.286 466.57C447.639 466.197 447.889 465.863 448.036 465.57C448.183 465.277 448.256 464.99 448.256 464.71C448.256 464.31 448.139 463.993 447.906 463.76C447.679 463.52 447.369 463.4 446.976 463.4C446.569 463.4 446.246 463.523 446.006 463.77C445.773 464.01 445.656 464.337 445.656 464.75H444.756C444.776 464.09 444.986 463.567 445.386 463.18C445.786 462.793 446.316 462.6 446.976 462.6C447.649 462.6 448.183 462.79 448.576 463.17C448.976 463.55 449.176 464.067 449.176 464.72C449.176 465.067 449.079 465.433 448.886 465.82C448.699 466.207 448.376 466.64 447.916 467.12L445.946 469.18H449.266V470H444.856ZM450.592 470V464.5H451.372V465.23H451.392C451.426 464.983 451.522 464.783 451.682 464.63C451.849 464.477 452.059 464.4 452.312 464.4C452.552 464.4 452.756 464.47 452.922 464.61C453.089 464.75 453.209 464.94 453.282 465.18H453.292C453.339 464.94 453.442 464.75 453.602 464.61C453.769 464.47 453.979 464.4 454.232 464.4C454.586 464.4 454.866 464.533 455.072 464.8C455.286 465.06 455.392 465.4 455.392 465.82V470H454.552V465.81C454.552 465.59 454.499 465.417 454.392 465.29C454.286 465.157 454.139 465.09 453.952 465.09C453.772 465.09 453.629 465.153 453.522 465.28C453.416 465.407 453.362 465.58 453.362 465.8V470H452.622V465.81C452.622 465.59 452.569 465.417 452.462 465.29C452.356 465.157 452.212 465.09 452.032 465.09C451.846 465.09 451.699 465.153 451.592 465.28C451.486 465.407 451.432 465.58 451.432 465.8V470H450.592ZM458.768 470.08C458.155 470.08 457.678 469.943 457.338 469.67C457.005 469.39 456.838 468.997 456.838 468.49H457.738C457.738 468.743 457.828 468.943 458.008 469.09C458.188 469.23 458.442 469.3 458.768 469.3H459.208C459.542 469.3 459.798 469.227 459.978 469.08C460.165 468.933 460.258 468.727 460.258 468.46C460.258 467.987 460.042 467.72 459.608 467.66L458.088 467.44C457.715 467.387 457.425 467.233 457.218 466.98C457.012 466.72 456.908 466.38 456.908 465.96C456.908 465.48 457.072 465.103 457.398 464.83C457.732 464.557 458.188 464.42 458.768 464.42H459.208C459.742 464.42 460.175 464.553 460.508 464.82C460.848 465.08 461.032 465.423 461.058 465.85H460.148C460.135 465.657 460.042 465.497 459.868 465.37C459.702 465.243 459.482 465.18 459.208 465.18H458.768C458.462 465.18 458.222 465.25 458.048 465.39C457.875 465.53 457.788 465.72 457.788 465.96C457.788 466.347 457.965 466.567 458.318 466.62L459.738 466.82C460.672 466.953 461.138 467.5 461.138 468.46C461.138 468.973 460.968 469.373 460.628 469.66C460.295 469.94 459.822 470.08 459.208 470.08H458.768Z" fill="#66D9A5"/>
<path d="M132.772 492.11C132.149 492.11 131.654 491.938 131.287 491.593C130.92 491.241 130.737 490.783 130.737 490.218C130.737 489.844 130.821 489.518 130.99 489.239C131.159 488.96 131.393 488.744 131.694 488.59C131.995 488.429 132.339 488.348 132.728 488.348H134.598V487.875C134.598 487.09 134.169 486.698 133.311 486.698C132.93 486.698 132.622 486.768 132.387 486.907C132.152 487.046 132.028 487.241 132.013 487.49H131.023C131.06 487.013 131.28 486.621 131.683 486.313C132.094 485.998 132.636 485.84 133.311 485.84C134.044 485.84 134.605 486.016 134.994 486.368C135.39 486.72 135.588 487.211 135.588 487.842V492H134.609V490.9H134.587C134.528 491.274 134.341 491.571 134.026 491.791C133.711 492.004 133.293 492.11 132.772 492.11ZM133.014 491.274C133.498 491.274 133.883 491.157 134.169 490.922C134.455 490.687 134.598 490.368 134.598 489.965V489.118H132.838C132.515 489.118 132.251 489.217 132.046 489.415C131.848 489.606 131.749 489.862 131.749 490.185C131.749 490.522 131.859 490.79 132.079 490.988C132.306 491.179 132.618 491.274 133.014 491.274ZM137.608 493.98V485.95H138.598V487.105H138.609C138.66 486.709 138.832 486.401 139.126 486.181C139.419 485.954 139.793 485.84 140.248 485.84C140.856 485.84 141.34 486.042 141.7 486.445C142.059 486.841 142.239 487.387 142.239 488.084V489.855C142.239 490.552 142.059 491.102 141.7 491.505C141.34 491.908 140.856 492.11 140.248 492.11C139.793 492.11 139.419 491.996 139.126 491.769C138.832 491.542 138.66 491.234 138.609 490.845H138.576L138.598 492.22V493.98H137.608ZM139.918 491.252C140.336 491.252 140.662 491.142 140.897 490.922C141.131 490.702 141.249 490.346 141.249 489.855V488.095C141.249 487.596 141.131 487.241 140.897 487.028C140.662 486.808 140.336 486.698 139.918 486.698C139.514 486.698 139.192 486.826 138.95 487.083C138.715 487.34 138.598 487.695 138.598 488.15V489.8C138.598 490.255 138.715 490.61 138.95 490.867C139.192 491.124 139.514 491.252 139.918 491.252ZM144.731 488.81V487.93H148.251V488.81H144.731ZM153.087 492.11C152.376 492.11 151.8 491.897 151.36 491.472C150.927 491.039 150.711 490.445 150.711 489.69V488.26C150.711 487.505 150.927 486.914 151.36 486.489C151.8 486.056 152.376 485.84 153.087 485.84C153.564 485.84 153.978 485.935 154.33 486.126C154.689 486.317 154.968 486.584 155.166 486.929C155.364 487.274 155.463 487.681 155.463 488.15V489.228H151.679V489.8C151.679 490.247 151.807 490.603 152.064 490.867C152.321 491.124 152.662 491.252 153.087 491.252C153.454 491.252 153.754 491.182 153.989 491.043C154.231 490.896 154.378 490.702 154.429 490.46H155.419C155.353 490.966 155.107 491.369 154.682 491.67C154.257 491.963 153.725 492.11 153.087 492.11ZM151.679 488.458H154.495V488.15C154.495 487.673 154.37 487.307 154.121 487.05C153.879 486.786 153.534 486.654 153.087 486.654C152.64 486.654 152.291 486.786 152.042 487.05C151.8 487.307 151.679 487.673 151.679 488.15V488.458ZM159.155 492.11C158.531 492.11 158.036 491.938 157.67 491.593C157.303 491.241 157.12 490.783 157.12 490.218C157.12 489.844 157.204 489.518 157.373 489.239C157.541 488.96 157.776 488.744 158.077 488.59C158.377 488.429 158.722 488.348 159.111 488.348H160.981V487.875C160.981 487.09 160.552 486.698 159.694 486.698C159.312 486.698 159.004 486.768 158.77 486.907C158.535 487.046 158.41 487.241 158.396 487.49H157.406C157.442 487.013 157.662 486.621 158.066 486.313C158.476 485.998 159.019 485.84 159.694 485.84C160.427 485.84 160.988 486.016 161.377 486.368C161.773 486.72 161.971 487.211 161.971 487.842V492H160.992V490.9H160.97C160.911 491.274 160.724 491.571 160.409 491.791C160.093 492.004 159.675 492.11 159.155 492.11ZM159.397 491.274C159.881 491.274 160.266 491.157 160.552 490.922C160.838 490.687 160.981 490.368 160.981 489.965V489.118H159.221C158.898 489.118 158.634 489.217 158.429 489.415C158.231 489.606 158.132 489.862 158.132 490.185C158.132 490.522 158.242 490.79 158.462 490.988C158.689 491.179 159.001 491.274 159.397 491.274ZM166.037 492.088C165.362 492.088 164.838 491.938 164.464 491.637C164.097 491.329 163.914 490.896 163.914 490.339H164.904C164.904 490.618 165.003 490.838 165.201 490.999C165.399 491.153 165.677 491.23 166.037 491.23H166.521C166.887 491.23 167.17 491.149 167.368 490.988C167.573 490.827 167.676 490.599 167.676 490.306C167.676 489.785 167.437 489.492 166.961 489.426L165.289 489.184C164.878 489.125 164.559 488.957 164.332 488.678C164.104 488.392 163.991 488.018 163.991 487.556C163.991 487.028 164.17 486.614 164.53 486.313C164.896 486.012 165.399 485.862 166.037 485.862H166.521C167.107 485.862 167.584 486.009 167.951 486.302C168.325 486.588 168.526 486.966 168.556 487.435H167.555C167.54 487.222 167.437 487.046 167.247 486.907C167.063 486.768 166.821 486.698 166.521 486.698H166.037C165.699 486.698 165.435 486.775 165.245 486.929C165.054 487.083 164.959 487.292 164.959 487.556C164.959 487.981 165.153 488.223 165.542 488.282L167.104 488.502C168.13 488.649 168.644 489.25 168.644 490.306C168.644 490.871 168.457 491.311 168.083 491.626C167.716 491.934 167.195 492.088 166.521 492.088H166.037ZM173.479 492C172.981 492 172.581 491.857 172.28 491.571C171.98 491.278 171.829 490.889 171.829 490.405V486.852H170.091V485.95H171.829V484.245H172.819V485.95H175.294V486.852H172.819V490.405C172.819 490.61 172.878 490.779 172.995 490.911C173.12 491.036 173.281 491.098 173.479 491.098H175.239V492H173.479Z" fill="#8B8D94"/>
<path d="M547 480H209C208.448 480 208 480.448 208 481V493C208 493.552 208.448 494 209 494H547C547.552 494 548 493.552 548 493V481C548 480.448 547.552 480 547 480Z" fill="#1A1D24"/>
<path opacity="0.3" d="M317 480H209C208.448 480 208 480.448 208 481V493C208 493.552 208.448 494 209 494H317C317.552 494 318 493.552 318 493V481C318 480.448 317.552 480 317 480Z" fill="#66D9A5"/>
<path d="M328.9 492V491.18H330.88V485.48L328.9 486.96V485.93L330.55 484.7H331.78V491.18H333.4V492H328.9ZM336.996 492.1C336.536 492.1 336.129 492.01 335.776 491.83C335.423 491.65 335.146 491.4 334.946 491.08C334.753 490.753 334.656 490.38 334.656 489.96C334.656 489.5 334.786 489.103 335.046 488.77C335.313 488.437 335.666 488.233 336.106 488.16V488.13C335.726 488.043 335.423 487.853 335.196 487.56C334.969 487.26 334.856 486.917 334.856 486.53C334.856 486.15 334.946 485.817 335.126 485.53C335.306 485.237 335.556 485.01 335.876 484.85C336.203 484.683 336.576 484.6 336.996 484.6C337.423 484.6 337.796 484.683 338.116 484.85C338.436 485.01 338.686 485.237 338.866 485.53C339.046 485.817 339.136 486.15 339.136 486.53C339.136 486.917 339.023 487.26 338.796 487.56C338.569 487.853 338.266 488.043 337.886 488.13V488.16C338.326 488.233 338.676 488.437 338.936 488.77C339.203 489.103 339.336 489.5 339.336 489.96C339.336 490.38 339.236 490.753 339.036 491.08C338.843 491.4 338.569 491.65 338.216 491.83C337.869 492.01 337.463 492.1 336.996 492.1ZM336.996 487.78C337.369 487.78 337.669 487.67 337.896 487.45C338.123 487.23 338.236 486.943 338.236 486.59C338.236 486.237 338.123 485.95 337.896 485.73C337.669 485.51 337.369 485.4 336.996 485.4C336.629 485.4 336.329 485.51 336.096 485.73C335.869 485.95 335.756 486.237 335.756 486.59C335.756 486.943 335.869 487.23 336.096 487.45C336.329 487.67 336.629 487.78 336.996 487.78ZM336.996 491.29C337.423 491.29 337.769 491.167 338.036 490.92C338.303 490.667 338.436 490.34 338.436 489.94C338.436 489.533 338.303 489.207 338.036 488.96C337.769 488.707 337.423 488.58 336.996 488.58C336.569 488.58 336.223 488.707 335.956 488.96C335.689 489.207 335.556 489.533 335.556 489.94C335.556 490.34 335.689 490.667 335.956 490.92C336.223 491.167 336.569 491.29 336.996 491.29ZM340.592 492V486.5H341.372V487.23H341.392C341.426 486.983 341.522 486.783 341.682 486.63C341.849 486.477 342.059 486.4 342.312 486.4C342.552 486.4 342.756 486.47 342.922 486.61C343.089 486.75 343.209 486.94 343.282 487.18H343.292C343.339 486.94 343.442 486.75 343.602 486.61C343.769 486.47 343.979 486.4 344.232 486.4C344.586 486.4 344.866 486.533 345.072 486.8C345.286 487.06 345.392 487.4 345.392 487.82V492H344.552V487.81C344.552 487.59 344.499 487.417 344.392 487.29C344.286 487.157 344.139 487.09 343.952 487.09C343.772 487.09 343.629 487.153 343.522 487.28C343.416 487.407 343.362 487.58 343.362 487.8V492H342.622V487.81C342.622 487.59 342.569 487.417 342.462 487.29C342.356 487.157 342.212 487.09 342.032 487.09C341.846 487.09 341.699 487.153 341.592 487.28C341.486 487.407 341.432 487.58 341.432 487.8V492H340.592ZM348.768 492.08C348.155 492.08 347.678 491.943 347.338 491.67C347.005 491.39 346.838 490.997 346.838 490.49H347.738C347.738 490.743 347.828 490.943 348.008 491.09C348.188 491.23 348.442 491.3 348.768 491.3H349.208C349.542 491.3 349.798 491.227 349.978 491.08C350.165 490.933 350.258 490.727 350.258 490.46C350.258 489.987 350.042 489.72 349.608 489.66L348.088 489.44C347.715 489.387 347.425 489.233 347.218 488.98C347.012 488.72 346.908 488.38 346.908 487.96C346.908 487.48 347.072 487.103 347.398 486.83C347.732 486.557 348.188 486.42 348.768 486.42H349.208C349.742 486.42 350.175 486.553 350.508 486.82C350.848 487.08 351.032 487.423 351.058 487.85H350.148C350.135 487.657 350.042 487.497 349.868 487.37C349.702 487.243 349.482 487.18 349.208 487.18H348.768C348.462 487.18 348.222 487.25 348.048 487.39C347.875 487.53 347.788 487.72 347.788 487.96C347.788 488.347 347.965 488.567 348.318 488.62L349.738 488.82C350.672 488.953 351.138 489.5 351.138 490.46C351.138 490.973 350.968 491.373 350.628 491.66C350.295 491.94 349.822 492.08 349.208 492.08H348.768Z" fill="#66D9A5"/>
<defs>
<filter id="filter0_d_490_11228" x="197.186" y="40.1852" width="283.684" height="175.712" filterUnits="userSpaceOnUse" color-interpolation-filters="sRGB">
<feFlood flood-opacity="0" result="BackgroundImageFix"/>
<feColorMatrix in="SourceAlpha" type="matrix" values="0 0 0 0 0 0 0 0 0 0 0 0 0 0 0 0 0 0 127 0" result="hardAlpha"/>
<feOffset/>
<feGaussianBlur stdDeviation="5.4"/>
<feColorMatrix type="matrix" values="0 0 0 0 0.4 0 0 0 0 0.85098 0 0 0 0 0.647059 0 0 0 0.1 0"/>
<feBlend mode="normal" in2="BackgroundImageFix" result="effect1_dropShadow_490_11228"/>
<feBlend mode="normal" in="SourceGraphic" in2="effect1_dropShadow_490_11228" result="shape"/>
</filter>
<filter id="filter1_d_490_11228" x="354.293" y="104.541" width="106.166" height="106.167" filterUnits="userSpaceOnUse" color-interpolation-filters="sRGB">
<feFlood flood-opacity="0" result="BackgroundImageFix"/>
<feColorMatrix in="SourceAlpha" type="matrix" values="0 0 0 0 0 0 0 0 0 0 0 0 0 0 0 0 0 0 127 0" result="hardAlpha"/>
<feOffset/>
<feGaussianBlur stdDeviation="2.5"/>
<feColorMatrix type="matrix" values="0 0 0 0 0 0 0 0 0 0 0 0 0 0 0 0 0 0 1 0"/>
<feBlend mode="normal" in2="BackgroundImageFix" result="effect1_dropShadow_490_11228"/>
<feBlend mode="normal" in="SourceGraphic" in2="effect1_dropShadow_490_11228" result="shape"/>
</filter>
<linearGradient id="paint0_linear_490_11228" x1="214.986" y1="205" x2="343.46" y2="-13.4835" gradientUnits="userSpaceOnUse">
<stop stop-color="#66D9A5" stop-opacity="0.08"/>
<stop offset="0.5" stop-color="#66D9A5" stop-opacity="0.45"/>
<stop offset="1" stop-color="#66D9A5" stop-opacity="0.85"/>
</linearGradient>
<linearGradient id="paint1_linear_490_11228" x1="250" y1="187" x2="250" y2="235" gradientUnits="userSpaceOnUse">
<stop stop-color="#66D9A5" stop-opacity="0.08"/>
<stop offset="1" stop-color="#66D9A5" stop-opacity="0"/>
</linearGradient>
</defs>
</svg>
