<svg width="672" height="580" viewBox="0 0 672 580" fill="none" xmlns="http://www.w3.org/2000/svg">
<g clip-path="url(#clip0_1085_152)">
<g opacity="0.2" clip-path="url(#clip1_1085_152)">
<rect width="736" height="574" transform="translate(-51 -1)" fill="#040406"/>
<rect x="19" y="-1" width="1" height="574" fill="#262B33"/>
<rect x="50" y="-1" width="1" height="574" fill="#262B33"/>
<rect x="81" y="-1" width="1" height="574" fill="#262B33"/>
<rect x="112" y="-1" width="1" height="574" fill="#262B33"/>
<rect x="143" y="-1" width="1" height="574" fill="#262B33"/>
<rect x="174" y="-1" width="1" height="574" fill="#262B33"/>
<rect x="205" y="-1" width="1" height="574" fill="#262B33"/>
<rect x="236" y="-1" width="1" height="574" fill="#262B33"/>
<rect x="267" y="-1" width="1" height="574" fill="#262B33"/>
<rect x="298" y="-1" width="1" height="574" fill="#262B33"/>
<rect x="329" y="-1" width="1" height="574" fill="#262B33"/>
<rect x="360" y="-1" width="1" height="574" fill="#262B33"/>
<rect x="391" y="-1" width="1" height="574" fill="#262B33"/>
<rect x="422" y="-1" width="1" height="574" fill="#262B33"/>
<rect x="453" y="-1" width="1" height="574" fill="#262B33"/>
<rect x="484" y="-1" width="1" height="574" fill="#262B33"/>
<rect x="515" y="-1" width="1" height="574" fill="#262B33"/>
<rect x="546" y="-1" width="1" height="574" fill="#262B33"/>
<rect x="577" y="-1" width="1" height="574" fill="#262B33"/>
<rect x="608" y="-1" width="1" height="574" fill="#262B33"/>
<rect x="639" y="-1" width="1" height="574" fill="#262B33"/>
<rect x="670" y="-1" width="1" height="574" fill="#262B33"/>
<rect x="-51" y="39" width="736" height="1" fill="#262B33"/>
<rect x="-51" y="70" width="736" height="1" fill="#262B33"/>
<rect x="-51" y="101" width="736" height="1" fill="#262B33"/>
<rect x="-51" y="132" width="736" height="1" fill="#262B33"/>
<rect x="-51" y="163" width="736" height="1" fill="#262B33"/>
<rect x="-51" y="194" width="736" height="1" fill="#262B33"/>
<rect x="-51" y="225" width="736" height="1" fill="#262B33"/>
<rect x="-51" y="256" width="736" height="1" fill="#262B33"/>
<rect x="-51" y="287" width="736" height="1" fill="#262B33"/>
<rect x="-51" y="318" width="736" height="1" fill="#262B33"/>
<rect x="-51" y="349" width="736" height="1" fill="#262B33"/>
<rect x="-51" y="380" width="736" height="1" fill="#262B33"/>
<rect x="-51" y="411" width="736" height="1" fill="#262B33"/>
<rect x="-51" y="442" width="736" height="1" fill="#262B33"/>
<rect x="-51" y="473" width="736" height="1" fill="#262B33"/>
<rect x="-51" y="504" width="736" height="1" fill="#262B33"/>
<rect x="-51" y="535" width="736" height="1" fill="#262B33"/>
<rect x="-51" y="566" width="736" height="1" fill="#262B33"/>
<rect width="721" height="580" transform="translate(-51 -1)" fill="url(#paint0_linear_1085_152)"/>
</g>
<path d="M82 114V411H670" stroke="url(#paint1_linear_1085_152)" stroke-width="1.48338"/>
<path d="M88.4668 372.63L231.836 291.677L326.541 322.914L421.972 260.452L484.6 164.695L546 194.5L639.5 132.5L671.5 89.5" stroke="url(#paint2_linear_1085_152)" stroke-width="1.48338"/>
<path d="M230.019 292.2L87.4473 372.641V407.928H671V91L641 132L546.5 194.5L484.599 165.207L421.589 260.964L326.058 322.924L230.019 292.2Z" fill="url(#paint3_linear_1085_152)" fill-opacity="0.1"/>
<g filter="url(#filter0_d_1085_152)">
<rect x="418" y="256" width="8" height="8" fill="#66D9A6" shape-rendering="crispEdges"/>
<rect x="417" y="255" width="10" height="10" stroke="#66D9A6" stroke-opacity="0.15" stroke-width="2" shape-rendering="crispEdges"/>
</g>
<g filter="url(#filter1_d_1085_152)">
<rect x="481" y="162" width="8" height="8" fill="#66D9A6" shape-rendering="crispEdges"/>
<rect x="480" y="161" width="10" height="10" stroke="#66D9A6" stroke-opacity="0.15" stroke-width="2" shape-rendering="crispEdges"/>
</g>
<g filter="url(#filter2_d_1085_152)">
<rect x="541" y="189" width="8" height="8" fill="#66D9A6" shape-rendering="crispEdges"/>
<rect x="540" y="188" width="10" height="10" stroke="#66D9A6" stroke-opacity="0.15" stroke-width="2" shape-rendering="crispEdges"/>
</g>
<g filter="url(#filter3_d_1085_152)">
<rect x="636" y="129" width="8" height="8" fill="#66D9A6" shape-rendering="crispEdges"/>
<rect x="635" y="128" width="10" height="10" stroke="#66D9A6" stroke-opacity="0.15" stroke-width="2" shape-rendering="crispEdges"/>
</g>
<g filter="url(#filter4_d_1085_152)">
<rect x="322" y="318" width="8" height="8" fill="#66D9A6" shape-rendering="crispEdges"/>
<rect x="321" y="317" width="10" height="10" stroke="#66D9A6" stroke-opacity="0.15" stroke-width="2" shape-rendering="crispEdges"/>
</g>
<g filter="url(#filter5_d_1085_152)">
<rect x="229" y="288" width="8" height="8" fill="#66D9A6" shape-rendering="crispEdges"/>
<rect x="228" y="287" width="10" height="10" stroke="#66D9A6" stroke-opacity="0.15" stroke-width="2" shape-rendering="crispEdges"/>
</g>
<g filter="url(#filter6_d_1085_152)">
<rect x="85" y="368" width="8" height="8" fill="#66D9A6" shape-rendering="crispEdges"/>
<rect x="84" y="367" width="10" height="10" stroke="#66D9A6" stroke-opacity="0.15" stroke-width="2" shape-rendering="crispEdges"/>
</g>
<rect width="195" height="90" transform="translate(5 192)" fill="#0A0C10"/>
<path opacity="0.3" d="M7 192H5V282H7V192Z" fill="#66D9A5"/>
<path d="M23.45 220L25.16 213.43H26.249L27.95 220H27.131L26.699 218.254H24.71L24.278 220H23.45ZM24.872 217.57H26.528L26.024 215.545C25.928 215.161 25.853 214.84 25.799 214.582C25.745 214.324 25.712 214.156 25.7 214.078C25.688 214.156 25.655 214.324 25.601 214.582C25.547 214.84 25.472 215.158 25.376 215.536L24.872 217.57ZM31.0965 220.09C30.4845 220.09 30.0165 219.922 29.6925 219.586C29.3685 219.244 29.2065 218.782 29.2065 218.2V213.43H30.0165V218.2C30.0165 218.56 30.1035 218.845 30.2775 219.055C30.4575 219.265 30.7305 219.37 31.0965 219.37C31.4565 219.37 31.7265 219.265 31.9065 219.055C32.0865 218.845 32.1765 218.56 32.1765 218.2V213.43H32.9865V218.2C32.9865 218.788 32.8245 219.25 32.5005 219.586C32.1825 219.922 31.7145 220.09 31.0965 220.09ZM36.565 220.09C36.169 220.09 35.824 220.015 35.53 219.865C35.242 219.715 35.017 219.499 34.855 219.217C34.699 218.929 34.621 218.59 34.621 218.2V215.23C34.621 214.834 34.699 214.495 34.855 214.213C35.017 213.931 35.242 213.715 35.53 213.565C35.824 213.415 36.169 213.34 36.565 213.34C36.961 213.34 37.303 213.418 37.591 213.574C37.879 213.724 38.101 213.94 38.257 214.222C38.413 214.504 38.491 214.84 38.491 215.23H37.681C37.681 214.858 37.582 214.573 37.384 214.375C37.192 214.171 36.919 214.069 36.565 214.069C36.211 214.069 35.932 214.171 35.728 214.375C35.53 214.573 35.431 214.858 35.431 215.23V218.2C35.431 218.572 35.53 218.86 35.728 219.064C35.932 219.262 36.211 219.361 36.565 219.361C36.919 219.361 37.192 219.262 37.384 219.064C37.582 218.86 37.681 218.572 37.681 218.2H38.491C38.491 218.584 38.413 218.92 38.257 219.208C38.101 219.49 37.879 219.709 37.591 219.865C37.303 220.015 36.961 220.09 36.565 220.09ZM41.4845 220V214.168H39.6845V213.43H44.0945V214.168H42.2945V220H41.4845ZM45.5309 220V219.262H46.8719V214.168H45.5309V213.43H49.0409V214.168H47.6999V219.262H49.0409V220H45.5309ZM52.6824 220.09C52.0944 220.09 51.6294 219.919 51.2874 219.577C50.9454 219.235 50.7744 218.746 50.7744 218.11V215.32C50.7744 214.684 50.9454 214.195 51.2874 213.853C51.6294 213.511 52.0944 213.34 52.6824 213.34C53.2704 213.34 53.7354 213.511 54.0774 213.853C54.4194 214.195 54.5904 214.681 54.5904 215.311V218.11C54.5904 218.746 54.4194 219.235 54.0774 219.577C53.7354 219.919 53.2704 220.09 52.6824 220.09ZM52.6824 219.361C53.0364 219.361 53.3064 219.262 53.4924 219.064C53.6844 218.86 53.7804 218.572 53.7804 218.2V215.23C53.7804 214.858 53.6844 214.573 53.4924 214.375C53.3064 214.171 53.0364 214.069 52.6824 214.069C52.3344 214.069 52.0644 214.171 51.8724 214.375C51.6804 214.573 51.5844 214.858 51.5844 215.23V218.2C51.5844 218.572 51.6804 218.86 51.8724 219.064C52.0644 219.262 52.3344 219.361 52.6824 219.361ZM56.1889 220V213.43H57.2689L59.2759 219.055C59.2639 218.905 59.2489 218.722 59.2309 218.506C59.2189 218.284 59.2069 218.053 59.1949 217.813C59.1889 217.567 59.1859 217.336 59.1859 217.12V213.43H59.9689V220H58.8889L56.8909 214.375C56.9029 214.519 56.9149 214.702 56.9269 214.924C56.9389 215.14 56.9479 215.371 56.9539 215.617C56.9659 215.857 56.9719 216.088 56.9719 216.31V220H56.1889ZM68.4669 220V214.168H66.6669V213.43H71.0769V214.168H69.2769V220H68.4669ZM72.5134 220V219.262H73.8544V214.168H72.5134V213.43H76.0234V214.168H74.6824V219.262H76.0234V220H72.5134ZM77.6128 220V213.43H78.8098L79.6468 216.274L80.5198 213.43H81.7168V220H80.9338V216.895C80.9338 216.601 80.9368 216.265 80.9428 215.887C80.9548 215.503 80.9698 215.116 80.9878 214.726C81.0058 214.336 81.0268 213.985 81.0508 213.673L79.9888 217.066H79.2868L78.2698 213.754C78.3058 214.048 78.3328 214.363 78.3508 214.699C78.3688 215.035 78.3808 215.386 78.3868 215.752C78.3928 216.118 78.3958 216.499 78.3958 216.895V220H77.6128ZM83.2613 220V213.43H87.0413V214.168H84.0623V216.202H86.7263V216.922H84.0623V219.262H87.0413V220H83.2613Z" fill="#8B8D94"/>
<path d="M32.996 259.34C30.7067 259.34 28.8933 258.705 27.556 257.436C26.2187 256.144 25.55 254.399 25.55 252.2H28.61C28.61 253.56 29.0067 254.637 29.8 255.43C30.5933 256.223 31.67 256.62 33.03 256.62C34.39 256.62 35.4667 256.223 36.26 255.43C37.0533 254.637 37.45 253.56 37.45 252.2V250.67C37.45 249.31 37.0647 248.233 36.294 247.44C35.5233 246.647 34.4807 246.25 33.166 246.25H26.4V234.18H39.626V236.968H29.256L29.324 243.462H33.336C35.6253 243.462 37.3933 244.097 38.64 245.366C39.8867 246.613 40.51 248.381 40.51 250.67V252.2C40.51 254.399 39.83 256.144 38.47 257.436C37.1327 258.705 35.308 259.34 32.996 259.34ZM46.3107 259V256.178L54.5727 247.338C55.7741 246.069 56.6241 244.935 57.1227 243.938C57.6214 242.941 57.8707 241.966 57.8707 241.014C57.8707 239.654 57.4741 238.577 56.6807 237.784C55.9101 236.968 54.8561 236.56 53.5187 236.56C52.1361 236.56 51.0367 236.979 50.2207 237.818C49.4274 238.634 49.0307 239.745 49.0307 241.15H45.9707C46.0161 239.654 46.3561 238.362 46.9907 237.274C47.6254 236.163 48.4981 235.313 49.6087 234.724C50.7194 234.135 52.0227 233.84 53.5187 233.84C55.0601 233.84 56.3861 234.135 57.4967 234.724C58.6074 235.313 59.4687 236.152 60.0807 237.24C60.6927 238.305 60.9987 239.575 60.9987 241.048C60.9987 242.227 60.6701 243.473 60.0127 244.788C59.3781 246.103 58.2787 247.576 56.7147 249.208L50.0167 256.212H61.3047V259H46.3107Z" fill="#66D9A5"/>
<path d="M64.7334 259V250.2H65.9814V251.368H66.3014L65.9974 251.64C65.9974 251.171 66.1308 250.787 66.3974 250.488C66.6748 250.189 67.0374 250.04 67.4854 250.04C67.9974 250.04 68.4028 250.232 68.7014 250.616C69.0001 251 69.1494 251.501 69.1494 252.12L68.7174 251.288H69.3894L69.0214 251.64C69.0321 251.149 69.1761 250.76 69.4534 250.472C69.7308 250.184 70.0988 250.04 70.5574 250.04C71.1228 250.04 71.5708 250.253 71.9014 250.68C72.2428 251.096 72.4134 251.64 72.4134 252.312V259H71.0694V252.296C71.0694 251.944 70.9841 251.667 70.8134 251.464C70.6428 251.251 70.4081 251.144 70.1094 251.144C69.8214 251.144 69.5921 251.245 69.4214 251.448C69.2508 251.651 69.1654 251.928 69.1654 252.28V259H67.9814V252.296C67.9814 251.944 67.8961 251.667 67.7254 251.464C67.5548 251.251 67.3254 251.144 67.0374 251.144C66.7388 251.144 66.5041 251.245 66.3334 251.448C66.1628 251.651 66.0774 251.928 66.0774 252.28V259H64.7334ZM77.8152 259.128C77.1645 259.128 76.6045 259.032 76.1352 258.84C75.6765 258.637 75.3245 258.349 75.0792 257.976C74.8445 257.592 74.7272 257.128 74.7272 256.584H76.1672C76.1672 256.989 76.3112 257.309 76.5992 257.544C76.8872 257.768 77.2925 257.88 77.8152 257.88H78.5192C79.0525 257.88 79.4632 257.763 79.7512 257.528C80.0499 257.293 80.1992 256.963 80.1992 256.536C80.1992 256.152 80.1139 255.853 79.9432 255.64C79.7725 255.427 79.5112 255.299 79.1592 255.256L76.7272 254.904C76.1299 254.819 75.6659 254.573 75.3352 254.168C75.0045 253.752 74.8392 253.208 74.8392 252.536C74.8392 251.768 75.1005 251.165 75.6232 250.728C76.1565 250.291 76.8872 250.072 77.8152 250.072H78.5192C79.3725 250.072 80.0659 250.285 80.5992 250.712C81.1432 251.128 81.4365 251.677 81.4792 252.36H80.0232C80.0019 252.051 79.8525 251.795 79.5752 251.592C79.3085 251.389 78.9565 251.288 78.5192 251.288H77.8152C77.3245 251.288 76.9405 251.4 76.6632 251.624C76.3859 251.848 76.2472 252.152 76.2472 252.536C76.2472 252.835 76.3165 253.075 76.4552 253.256C76.6045 253.437 76.8179 253.549 77.0952 253.592L79.3672 253.912C80.1139 254.019 80.6739 254.291 81.0472 254.728C81.4205 255.165 81.6072 255.768 81.6072 256.536C81.6072 257.357 81.3352 257.997 80.7912 258.456C80.2579 258.904 79.5005 259.128 78.5192 259.128H77.8152Z" fill="#8B8D94"/>
<rect width="195" height="90" transform="translate(430 285)" fill="#0A0C10"/>
<path opacity="0.3" d="M432 285H430V375H432V285Z" fill="#66D9A5"/>
<path d="M448.945 313V312.262H450.286V307.168H448.945V306.43H452.455V307.168H451.114V312.262H452.455V313H448.945ZM456.132 313.09C455.736 313.09 455.391 313.015 455.097 312.865C454.809 312.715 454.584 312.499 454.422 312.217C454.266 311.929 454.188 311.59 454.188 311.2V308.23C454.188 307.834 454.266 307.495 454.422 307.213C454.584 306.931 454.809 306.715 455.097 306.565C455.391 306.415 455.736 306.34 456.132 306.34C456.528 306.34 456.87 306.418 457.158 306.574C457.446 306.724 457.668 306.94 457.824 307.222C457.98 307.504 458.058 307.84 458.058 308.23H457.248C457.248 307.858 457.149 307.573 456.951 307.375C456.759 307.171 456.486 307.069 456.132 307.069C455.778 307.069 455.499 307.168 455.295 307.366C455.097 307.564 454.998 307.849 454.998 308.221V311.2C454.998 311.572 455.097 311.86 455.295 312.064C455.499 312.268 455.778 312.37 456.132 312.37C456.486 312.37 456.759 312.268 456.951 312.064C457.149 311.86 457.248 311.572 457.248 311.2V310.3H455.916V309.562H458.058V311.2C458.058 311.584 457.98 311.92 457.824 312.208C457.668 312.49 457.446 312.709 457.158 312.865C456.87 313.015 456.528 313.09 456.132 313.09ZM459.603 313V306.43H460.683L462.69 312.055C462.678 311.905 462.663 311.722 462.645 311.506C462.633 311.284 462.621 311.053 462.609 310.813C462.603 310.567 462.6 310.336 462.6 310.12V306.43H463.383V313H462.303L460.305 307.375C460.317 307.519 460.329 307.702 460.341 307.924C460.353 308.14 460.362 308.371 460.368 308.617C460.38 308.857 460.386 309.088 460.386 309.31V313H459.603ZM465.134 313V312.262H466.475V307.168H465.134V306.43H468.644V307.168H467.303V312.262H468.644V313H465.134ZM471.881 313V307.168H470.081V306.43H474.491V307.168H472.691V313H471.881ZM475.927 313V312.262H477.268V307.168H475.927V306.43H479.437V307.168H478.096V312.262H479.437V313H475.927ZM483.079 313.09C482.491 313.09 482.026 312.919 481.684 312.577C481.342 312.235 481.171 311.746 481.171 311.11V308.32C481.171 307.684 481.342 307.195 481.684 306.853C482.026 306.511 482.491 306.34 483.079 306.34C483.667 306.34 484.132 306.511 484.474 306.853C484.816 307.195 484.987 307.681 484.987 308.311V311.11C484.987 311.746 484.816 312.235 484.474 312.577C484.132 312.919 483.667 313.09 483.079 313.09ZM483.079 312.361C483.433 312.361 483.703 312.262 483.889 312.064C484.081 311.86 484.177 311.572 484.177 311.2V308.23C484.177 307.858 484.081 307.573 483.889 307.375C483.703 307.171 483.433 307.069 483.079 307.069C482.731 307.069 482.461 307.171 482.269 307.375C482.077 307.573 481.981 307.858 481.981 308.23V311.2C481.981 311.572 482.077 311.86 482.269 312.064C482.461 312.262 482.731 312.361 483.079 312.361ZM486.585 313V306.43H487.665L489.672 312.055C489.66 311.905 489.645 311.722 489.627 311.506C489.615 311.284 489.603 311.053 489.591 310.813C489.585 310.567 489.582 310.336 489.582 310.12V306.43H490.365V313H489.285L487.287 307.375C487.299 307.519 487.311 307.702 487.323 307.924C487.335 308.14 487.344 308.371 487.35 308.617C487.362 308.857 487.368 309.088 487.368 309.31V313H486.585Z" fill="#8B8D94"/>
<path d="M451.06 352V349.212H457.792V329.832L451.06 334.864V331.362L456.67 327.18H460.852V349.212H466.36V352H451.06ZM471.311 352V349.178L479.573 340.338C480.774 339.069 481.624 337.935 482.123 336.938C482.621 335.941 482.871 334.966 482.871 334.014C482.871 332.654 482.474 331.577 481.681 330.784C480.91 329.968 479.856 329.56 478.519 329.56C477.136 329.56 476.037 329.979 475.221 330.818C474.427 331.634 474.031 332.745 474.031 334.15H470.971C471.016 332.654 471.356 331.362 471.991 330.274C472.625 329.163 473.498 328.313 474.609 327.724C475.719 327.135 477.023 326.84 478.519 326.84C480.06 326.84 481.386 327.135 482.497 327.724C483.607 328.313 484.469 329.152 485.081 330.24C485.693 331.305 485.999 332.575 485.999 334.048C485.999 335.227 485.67 336.473 485.013 337.788C484.378 339.103 483.279 340.576 481.715 342.208L475.017 349.212H486.305V352H471.311ZM498.769 352.34C496.48 352.34 494.667 351.705 493.329 350.436C491.992 349.144 491.323 347.399 491.323 345.2H494.383C494.383 346.56 494.78 347.637 495.573 348.43C496.367 349.223 497.443 349.62 498.803 349.62C500.163 349.62 501.24 349.223 502.033 348.43C502.827 347.637 503.223 346.56 503.223 345.2V343.67C503.223 342.31 502.838 341.233 502.067 340.44C501.297 339.647 500.254 339.25 498.939 339.25H492.173V327.18H505.399V329.968H495.029L495.097 336.462H499.109C501.399 336.462 503.167 337.097 504.413 338.366C505.66 339.613 506.283 341.381 506.283 343.67V345.2C506.283 347.399 505.603 349.144 504.243 350.436C502.906 351.705 501.081 352.34 498.769 352.34Z" fill="#66D9A5"/>
<path d="M510.12 352V343.2H511.368V344.368H511.688L511.384 344.64C511.384 344.171 511.517 343.787 511.784 343.488C512.061 343.189 512.424 343.04 512.872 343.04C513.384 343.04 513.789 343.232 514.088 343.616C514.387 344 514.536 344.501 514.536 345.12L514.104 344.288H514.776L514.408 344.64C514.419 344.149 514.563 343.76 514.84 343.472C515.117 343.184 515.485 343.04 515.944 343.04C516.509 343.04 516.957 343.253 517.288 343.68C517.629 344.096 517.8 344.64 517.8 345.312V352H516.456V345.296C516.456 344.944 516.371 344.667 516.2 344.464C516.029 344.251 515.795 344.144 515.496 344.144C515.208 344.144 514.979 344.245 514.808 344.448C514.637 344.651 514.552 344.928 514.552 345.28V352H513.368V345.296C513.368 344.944 513.283 344.667 513.112 344.464C512.941 344.251 512.712 344.144 512.424 344.144C512.125 344.144 511.891 344.245 511.72 344.448C511.549 344.651 511.464 344.928 511.464 345.28V352H510.12ZM523.202 352.128C522.551 352.128 521.991 352.032 521.522 351.84C521.063 351.637 520.711 351.349 520.466 350.976C520.231 350.592 520.114 350.128 520.114 349.584H521.554C521.554 349.989 521.698 350.309 521.986 350.544C522.274 350.768 522.679 350.88 523.202 350.88H523.906C524.439 350.88 524.85 350.763 525.138 350.528C525.437 350.293 525.586 349.963 525.586 349.536C525.586 349.152 525.501 348.853 525.33 348.64C525.159 348.427 524.898 348.299 524.546 348.256L522.114 347.904C521.517 347.819 521.053 347.573 520.722 347.168C520.391 346.752 520.226 346.208 520.226 345.536C520.226 344.768 520.487 344.165 521.01 343.728C521.543 343.291 522.274 343.072 523.202 343.072H523.906C524.759 343.072 525.453 343.285 525.986 343.712C526.53 344.128 526.823 344.677 526.866 345.36H525.41C525.389 345.051 525.239 344.795 524.962 344.592C524.695 344.389 524.343 344.288 523.906 344.288H523.202C522.711 344.288 522.327 344.4 522.05 344.624C521.773 344.848 521.634 345.152 521.634 345.536C521.634 345.835 521.703 346.075 521.842 346.256C521.991 346.437 522.205 346.549 522.482 346.592L524.754 346.912C525.501 347.019 526.061 347.291 526.434 347.728C526.807 348.165 526.994 348.768 526.994 349.536C526.994 350.357 526.722 350.997 526.178 351.456C525.645 351.904 524.887 352.128 523.906 352.128H523.202Z" fill="#8B8D94"/>
<path opacity="0.4" d="M593 341L599 333H587L593 341Z" fill="#66D9A5"/>
<path d="M585.126 355V351.856H583.846V351.2H585.126V350.28C585.126 349.933 585.236 349.661 585.454 349.464C585.673 349.261 585.974 349.16 586.358 349.16H587.646V349.816H586.358C586.193 349.816 586.065 349.856 585.974 349.936C585.889 350.011 585.846 350.125 585.846 350.28V351.2H587.646V351.856H585.846V355H585.126ZM590.219 355.08C589.766 355.08 589.406 354.955 589.139 354.704C588.872 354.448 588.739 354.115 588.739 353.704C588.739 353.432 588.8 353.195 588.923 352.992C589.046 352.789 589.216 352.632 589.435 352.52C589.654 352.403 589.904 352.344 590.187 352.344H591.547V352C591.547 351.712 591.47 351.499 591.315 351.36C591.16 351.216 590.926 351.144 590.611 351.144C590.334 351.144 590.11 351.195 589.939 351.296C589.768 351.397 589.678 351.539 589.667 351.72H588.947C588.974 351.373 589.134 351.088 589.427 350.864C589.726 350.635 590.12 350.52 590.611 350.52C591.144 350.52 591.552 350.648 591.835 350.904C592.123 351.16 592.267 351.517 592.267 351.976V355H591.555V354.2H591.435L591.547 354.04C591.547 354.253 591.494 354.437 591.387 354.592C591.28 354.747 591.128 354.867 590.931 354.952C590.734 355.037 590.496 355.08 590.219 355.08ZM590.395 354.472C590.747 354.472 591.027 354.387 591.235 354.216C591.443 354.045 591.547 353.813 591.547 353.52V352.904H590.267C590.032 352.904 589.84 352.976 589.691 353.12C589.547 353.259 589.475 353.445 589.475 353.68C589.475 353.925 589.555 354.12 589.715 354.264C589.88 354.403 590.107 354.472 590.395 354.472ZM595.224 355.064C594.899 355.064 594.619 355.016 594.384 354.92C594.155 354.819 593.979 354.675 593.856 354.488C593.739 354.296 593.68 354.064 593.68 353.792H594.4C594.4 353.995 594.472 354.155 594.616 354.272C594.76 354.384 594.963 354.44 595.224 354.44H595.576C595.843 354.44 596.048 354.381 596.192 354.264C596.341 354.147 596.416 353.981 596.416 353.768C596.416 353.576 596.373 353.427 596.288 353.32C596.203 353.213 596.072 353.149 595.896 353.128L594.68 352.952C594.381 352.909 594.149 352.787 593.984 352.584C593.819 352.376 593.736 352.104 593.736 351.768C593.736 351.384 593.867 351.083 594.128 350.864C594.395 350.645 594.76 350.536 595.224 350.536H595.576C596.003 350.536 596.349 350.643 596.616 350.856C596.888 351.064 597.035 351.339 597.056 351.68H596.328C596.317 351.525 596.243 351.397 596.104 351.296C595.971 351.195 595.795 351.144 595.576 351.144H595.224C594.979 351.144 594.787 351.2 594.648 351.312C594.509 351.424 594.44 351.576 594.44 351.768C594.44 351.917 594.475 352.037 594.544 352.128C594.619 352.219 594.725 352.275 594.864 352.296L596 352.456C596.373 352.509 596.653 352.645 596.84 352.864C597.027 353.083 597.12 353.384 597.12 353.768C597.12 354.179 596.984 354.499 596.712 354.728C596.445 354.952 596.067 355.064 595.576 355.064H595.224ZM600.637 355C600.274 355 599.984 354.896 599.765 354.688C599.546 354.475 599.437 354.192 599.437 353.84V351.256H598.173V350.6H599.437V349.36H600.157V350.6H601.957V351.256H600.157V353.84C600.157 353.989 600.2 354.112 600.285 354.208C600.376 354.299 600.493 354.344 600.637 354.344H601.917V355H600.637Z" fill="#66D9A5"/>
</g>
<defs>
<filter id="filter0_d_1085_152" x="414" y="252" width="16" height="16" filterUnits="userSpaceOnUse" color-interpolation-filters="sRGB">
<feFlood flood-opacity="0" result="BackgroundImageFix"/>
<feColorMatrix in="SourceAlpha" type="matrix" values="0 0 0 0 0 0 0 0 0 0 0 0 0 0 0 0 0 0 127 0" result="hardAlpha"/>
<feMorphology radius="2" operator="dilate" in="SourceAlpha" result="effect1_dropShadow_1085_152"/>
<feOffset/>
<feComposite in2="hardAlpha" operator="out"/>
<feColorMatrix type="matrix" values="0 0 0 0 0.4 0 0 0 0 0.85 0 0 0 0 0.65 0 0 0 0.15 0"/>
<feBlend mode="normal" in2="BackgroundImageFix" result="effect1_dropShadow_1085_152"/>
<feBlend mode="normal" in="SourceGraphic" in2="effect1_dropShadow_1085_152" result="shape"/>
</filter>
<filter id="filter1_d_1085_152" x="477" y="158" width="16" height="16" filterUnits="userSpaceOnUse" color-interpolation-filters="sRGB">
<feFlood flood-opacity="0" result="BackgroundImageFix"/>
<feColorMatrix in="SourceAlpha" type="matrix" values="0 0 0 0 0 0 0 0 0 0 0 0 0 0 0 0 0 0 127 0" result="hardAlpha"/>
<feMorphology radius="2" operator="dilate" in="SourceAlpha" result="effect1_dropShadow_1085_152"/>
<feOffset/>
<feComposite in2="hardAlpha" operator="out"/>
<feColorMatrix type="matrix" values="0 0 0 0 0.4 0 0 0 0 0.85 0 0 0 0 0.65 0 0 0 0.15 0"/>
<feBlend mode="normal" in2="BackgroundImageFix" result="effect1_dropShadow_1085_152"/>
<feBlend mode="normal" in="SourceGraphic" in2="effect1_dropShadow_1085_152" result="shape"/>
</filter>
<filter id="filter2_d_1085_152" x="537" y="185" width="16" height="16" filterUnits="userSpaceOnUse" color-interpolation-filters="sRGB">
<feFlood flood-opacity="0" result="BackgroundImageFix"/>
<feColorMatrix in="SourceAlpha" type="matrix" values="0 0 0 0 0 0 0 0 0 0 0 0 0 0 0 0 0 0 127 0" result="hardAlpha"/>
<feMorphology radius="2" operator="dilate" in="SourceAlpha" result="effect1_dropShadow_1085_152"/>
<feOffset/>
<feComposite in2="hardAlpha" operator="out"/>
<feColorMatrix type="matrix" values="0 0 0 0 0.4 0 0 0 0 0.85 0 0 0 0 0.65 0 0 0 0.15 0"/>
<feBlend mode="normal" in2="BackgroundImageFix" result="effect1_dropShadow_1085_152"/>
<feBlend mode="normal" in="SourceGraphic" in2="effect1_dropShadow_1085_152" result="shape"/>
</filter>
<filter id="filter3_d_1085_152" x="632" y="125" width="16" height="16" filterUnits="userSpaceOnUse" color-interpolation-filters="sRGB">
<feFlood flood-opacity="0" result="BackgroundImageFix"/>
<feColorMatrix in="SourceAlpha" type="matrix" values="0 0 0 0 0 0 0 0 0 0 0 0 0 0 0 0 0 0 127 0" result="hardAlpha"/>
<feMorphology radius="2" operator="dilate" in="SourceAlpha" result="effect1_dropShadow_1085_152"/>
<feOffset/>
<feComposite in2="hardAlpha" operator="out"/>
<feColorMatrix type="matrix" values="0 0 0 0 0.4 0 0 0 0 0.85 0 0 0 0 0.65 0 0 0 0.15 0"/>
<feBlend mode="normal" in2="BackgroundImageFix" result="effect1_dropShadow_1085_152"/>
<feBlend mode="normal" in="SourceGraphic" in2="effect1_dropShadow_1085_152" result="shape"/>
</filter>
<filter id="filter4_d_1085_152" x="318" y="314" width="16" height="16" filterUnits="userSpaceOnUse" color-interpolation-filters="sRGB">
<feFlood flood-opacity="0" result="BackgroundImageFix"/>
<feColorMatrix in="SourceAlpha" type="matrix" values="0 0 0 0 0 0 0 0 0 0 0 0 0 0 0 0 0 0 127 0" result="hardAlpha"/>
<feMorphology radius="2" operator="dilate" in="SourceAlpha" result="effect1_dropShadow_1085_152"/>
<feOffset/>
<feComposite in2="hardAlpha" operator="out"/>
<feColorMatrix type="matrix" values="0 0 0 0 0.4 0 0 0 0 0.85 0 0 0 0 0.65 0 0 0 0.15 0"/>
<feBlend mode="normal" in2="BackgroundImageFix" result="effect1_dropShadow_1085_152"/>
<feBlend mode="normal" in="SourceGraphic" in2="effect1_dropShadow_1085_152" result="shape"/>
</filter>
<filter id="filter5_d_1085_152" x="225" y="284" width="16" height="16" filterUnits="userSpaceOnUse" color-interpolation-filters="sRGB">
<feFlood flood-opacity="0" result="BackgroundImageFix"/>
<feColorMatrix in="SourceAlpha" type="matrix" values="0 0 0 0 0 0 0 0 0 0 0 0 0 0 0 0 0 0 127 0" result="hardAlpha"/>
<feMorphology radius="2" operator="dilate" in="SourceAlpha" result="effect1_dropShadow_1085_152"/>
<feOffset/>
<feComposite in2="hardAlpha" operator="out"/>
<feColorMatrix type="matrix" values="0 0 0 0 0.4 0 0 0 0 0.85 0 0 0 0 0.65 0 0 0 0.15 0"/>
<feBlend mode="normal" in2="BackgroundImageFix" result="effect1_dropShadow_1085_152"/>
<feBlend mode="normal" in="SourceGraphic" in2="effect1_dropShadow_1085_152" result="shape"/>
</filter>
<filter id="filter6_d_1085_152" x="81" y="364" width="16" height="16" filterUnits="userSpaceOnUse" color-interpolation-filters="sRGB">
<feFlood flood-opacity="0" result="BackgroundImageFix"/>
<feColorMatrix in="SourceAlpha" type="matrix" values="0 0 0 0 0 0 0 0 0 0 0 0 0 0 0 0 0 0 127 0" result="hardAlpha"/>
<feMorphology radius="2" operator="dilate" in="SourceAlpha" result="effect1_dropShadow_1085_152"/>
<feOffset/>
<feComposite in2="hardAlpha" operator="out"/>
<feColorMatrix type="matrix" values="0 0 0 0 0.4 0 0 0 0 0.85 0 0 0 0 0.65 0 0 0 0.15 0"/>
<feBlend mode="normal" in2="BackgroundImageFix" result="effect1_dropShadow_1085_152"/>
<feBlend mode="normal" in="SourceGraphic" in2="effect1_dropShadow_1085_152" result="shape"/>
</filter>
<linearGradient id="paint0_linear_1085_152" x1="721" y1="290" x2="0" y2="290" gradientUnits="userSpaceOnUse">
<stop offset="0.724553" stop-color="#040406" stop-opacity="0"/>
<stop offset="1" stop-color="#040406"/>
</linearGradient>
<linearGradient id="paint1_linear_1085_152" x1="67.5" y1="176.5" x2="670" y2="434.5" gradientUnits="userSpaceOnUse">
<stop stop-color="#262B33"/>
<stop offset="0.6875" stop-color="#262B33" stop-opacity="0.65625"/>
<stop offset="1" stop-color="#262B33" stop-opacity="0"/>
</linearGradient>
<linearGradient id="paint2_linear_1085_152" x1="479.706" y1="181.973" x2="68.221" y2="394.267" gradientUnits="userSpaceOnUse">
<stop stop-color="#66D9A5"/>
<stop offset="1" stop-color="#66D9A6" stop-opacity="0.15"/>
</linearGradient>
<linearGradient id="paint3_linear_1085_152" x1="294.046" y1="242.53" x2="287.337" y2="407.924" gradientUnits="userSpaceOnUse">
<stop stop-color="#66D9A5"/>
<stop offset="0.639423" stop-color="#66D9A6" stop-opacity="0.15"/>
<stop offset="0.961538" stop-color="#66D9A6" stop-opacity="0"/>
</linearGradient>
<clipPath id="clip0_1085_152">
<rect width="672" height="580" fill="white"/>
</clipPath>
<clipPath id="clip1_1085_152">
<rect width="736" height="574" fill="white" transform="translate(-51 -1)"/>
</clipPath>
</defs>
</svg>
