<svg width="375" height="419" viewBox="0 0 375 419" fill="none" xmlns="http://www.w3.org/2000/svg">
<path d="M215.911 0C217.33 0.105806 219.064 0.262463 220.323 0.948494C228.448 5.37868 236.638 10.5894 244.53 15.405L291.006 43.5435C296.371 39.7491 323.741 23.2288 329.055 21.5939C332.622 22.9581 349.619 31.9926 352.346 34.3698C353.155 38.1819 352.79 58.746 352.769 63.9756C357.466 60.7741 377.872 47.9672 382.32 46.9613C388.323 48.9112 399.382 55.719 404.802 59.3119C406.624 60.5215 406.256 70.455 406.276 73.0335L406.389 92.2885C410.252 89.5792 415.887 86.3115 419.935 83.6728C423.758 81.1833 432.168 75.7203 436.199 74.1496C441.202 75.8787 455.056 83.5022 459.401 86.7217C461.169 88.0306 460.64 98.7754 460.715 102.218C467.8 100.548 475.108 99.5918 482.818 99.5007C501.597 99.2792 530.581 107.915 535.54 128.842C537.134 135.57 536.38 150.133 536.342 157.815C536.397 170.877 536.328 183.939 536.134 196.999C541.656 200.629 565.049 212.769 567.2 217.004C567.927 218.428 568.063 220.871 568.142 222.465C568.637 232.23 568.166 242.268 568.176 252.06C568.19 262.026 568.688 272.262 568.135 282.198C568.009 284.488 567.681 286.908 566.855 289.051C562.913 292.939 548.189 301.738 542.499 305.359L491.538 337.582L382.166 406.816C375.678 410.854 369.353 415.113 362.872 419.155C360.984 420.329 360.141 420.707 357.991 421.298C356.104 421.817 352.411 420.028 350.68 418.998C338.844 411.946 327.014 404.639 315.273 397.444L266.81 368.054L235.984 349.35C231.432 346.596 224.983 342.985 220.748 340.008C213.649 343.422 204.243 348.62 197.383 352.582C196.621 373.976 197.566 395.86 197.216 417.291C197.081 425.53 188.43 420.288 184.905 417.963C179.994 414.724 174.725 412.243 169.675 409.27C167.389 407.908 166.505 406.4 166.191 403.731C165.725 398.782 165.863 393.683 165.882 388.696L166.055 361.187C166.081 355.03 166.143 348.231 165.964 342.114C165.691 332.807 168.324 332.96 175.645 329.192L189.813 321.827C184.637 317.929 175.315 312.857 169.465 309.147C166.962 310.274 162.907 312.612 160.397 313.96C154.74 317.025 149.06 320.045 143.355 323.018C144.115 341.65 143.038 361.016 143.585 379.716C143.664 382.402 143.814 388.744 142.223 390.693C141.331 391.195 140.669 391.563 139.591 391.461C136.325 391.14 133.64 388.597 130.827 387.085C127.96 385.546 125.177 384.058 122.327 382.529C119.261 380.887 115.926 379.382 113.516 376.839C112.818 376.095 112.518 372.706 112.493 371.614C112.276 362.043 112.574 352.473 112.513 342.899C112.474 335.346 112.48 327.793 112.533 320.243C112.553 315.776 112.388 309.885 112.971 305.594C115.253 302.168 120.579 300.15 124.283 298.29C129.364 295.792 134.388 293.181 139.35 290.454C132.309 286.328 125.349 282.065 118.474 277.665C109.939 281.795 98.9701 288.123 90.3787 292.703C90.0264 313.735 90.7217 334.79 90.3346 355.811C90.3056 357.391 90.4394 359.685 89.0711 360.743C88.1124 361.484 86.6577 361.767 85.4969 361.456C82.4142 360.634 63.3887 349.801 62.2193 347.627C61.7347 346.725 61.4661 345.678 61.3889 344.657C60.7544 336.312 61.3463 327.568 61.3654 319.165L61.3521 291.894C61.3602 286.949 61.0466 280.006 62.0886 275.163C62.6306 272.644 70.2841 269.354 72.8764 268.003L87.1731 260.456C80.9609 256.18 74.032 252.012 67.5854 248.009C65.4614 248.964 63.1272 250.337 61.0872 251.531C54.0733 255.637 46.7451 259.381 39.8179 263.61C39.7049 278.484 39.695 293.355 39.7882 308.226C39.8008 314.666 39.8537 321.093 39.7971 327.537C39.7592 331.875 36.5417 333.831 32.9081 331.578C25.9044 327.233 17.9472 323.895 11.4538 318.905C8.98883 317.011 9.86088 309.321 9.67657 306.403C9.63459 300.608 9.7462 294.403 9.70899 288.563C9.98443 274.761 9.30557 260.719 9.86634 246.958C12.3692 243.357 18.6308 240.899 22.5756 238.828L40.45 229.206C33.2863 225.063 26.3106 220.448 19.2493 216.124C14.3685 213.13 8.90248 210.352 4.37025 206.881C3.07737 205.89 1.68858 204.808 1.19607 203.194C-0.688632 197.022 0.217882 174.353 0.218224 166.786C0.218906 161.318 -0.464393 133.629 0.719265 130.189C1.26024 128.618 2.13638 127.462 3.42345 126.43C8.78917 122.124 45.1604 103.045 46.1106 100.773C47.0693 98.4822 46.456 92.3158 46.4461 89.5986L46.4502 56.4483C46.442 51.7048 46.1191 42.4349 46.6997 38.0371C47.0635 35.0968 47.9663 32.2482 49.3622 29.6348C66.7106 -2.78883 142.921 -2.68166 154.353 35.276C158.05 33.4633 163.67 29.7788 167.381 27.5596L197.667 9.22113C202.574 6.25823 210.432 0.748831 215.911 0ZM155.346 91.2509C154.884 95.1288 155.232 98.9942 155.058 102.81C154.31 119.193 158.836 132.599 144.904 144.726C131.762 156.165 114.638 160.283 97.5332 159.592C82.1681 158.971 65.0269 153.537 54.2303 142.244C46.897 134.222 46.3621 127.9 46.3529 117.606C46.3143 113.786 46.3666 109.966 46.5099 106.148C35.4034 112.203 24.4808 119.25 13.4272 125.463C11.5398 126.524 6.69251 129.238 5.8505 131.131C7.04337 133.207 62.1494 166.501 69.1902 170.787L265.18 290.355L323.901 326.134C331.192 330.65 338.516 335.111 345.875 339.514C349.663 341.821 355.353 345.545 359.179 347.422C362.845 345.91 371.016 340.616 374.64 338.377L404.338 319.854L508.177 255.142C522.29 246.401 547.346 230.79 562.142 221.066C562.507 220.827 562.753 219.731 562.633 218.919C560.268 215.69 540.742 204.713 536.117 202.001C537.397 216.189 537.042 227.23 525.721 237.329C502.58 257.972 456.763 257.139 435.298 234.466C427.458 226.186 427.25 217.011 427.587 206.272C428.048 181.548 426.881 156.418 427.939 131.735C410.788 120.601 391.74 109.556 374.101 98.9692L289.05 47.6071L237.932 16.564C234.176 14.279 219.689 4.88583 216.31 3.85849C212.633 4.84487 204.346 10.2536 200.685 12.4591L174.964 28.0822C170.123 31.028 159.336 36.931 155.192 40.0792C154.552 54.6913 155.557 69.7437 154.914 84.4087C154.876 85.2626 155.17 86.4528 155.439 87.2781C158.017 88.9153 158.899 89.0791 159.844 91.8768L159.626 92.598C158.006 93.0131 156.706 92.1506 155.346 91.2509ZM5.10474 201.62C8.17891 204.641 22.3333 213.09 26.8284 215.806C31.9179 218.882 39.838 224.086 44.9273 226.889L59.6247 218.987C62.3756 217.509 66.2925 215.23 69.1189 214.182C72.5637 215.236 92.8057 227.179 93.8706 229.558C94.216 230.329 94.2085 230.947 93.8781 231.722C92.2316 235.582 75.9867 243.268 71.7323 245.64C78.1448 249.627 85.445 253.944 91.6463 258.098L106.882 250.07C111.458 247.623 116.396 244.783 121.224 243.036C126.501 244.804 131.357 248.879 136.079 251.777C138.718 253.395 141.639 254.722 144.114 256.582C145.154 257.364 146.255 258.262 146.841 259.456C147.184 260.153 147.296 260.777 147.051 261.521C146.357 263.634 126.214 273.365 122.875 275.348C129.656 279.535 137.564 284.089 144.109 288.447C151.493 284.099 159.437 280.211 167.053 276.245C169.444 274.999 172.169 273.593 174.659 272.627C179.32 274.904 183.665 277.788 188.134 280.416C191.384 282.327 194.985 284.085 198.005 286.31C198.861 286.942 199.941 287.836 200.302 288.877C200.607 289.758 200.555 290.362 200.136 291.188C198.81 293.806 177.999 303.949 173.685 306.775C175.746 308.076 193.563 319.376 194.687 318.953C205.886 314.745 218.722 305.048 229.88 301.526C234.379 303.27 239.442 307.106 243.709 309.601C246.858 311.441 254.165 314.97 255.729 318.018C255.818 319.066 255.724 320.472 254.843 321.018C246.06 326.462 233.823 332.763 224.971 337.725C233.243 341.763 245.177 349.889 253.668 354.876L328.202 400.28L344.506 410.199C347.718 412.151 352.814 415.434 356.206 416.666C355.694 402.069 356.302 386.983 356.111 372.344C356.029 365.832 356.411 357.968 355.776 351.603C352.462 347.79 334.56 337.582 329.304 334.36L279.002 303.779L90.2097 188.801L36.9693 156.068C29.6824 151.48 22.35 146.965 14.9733 142.523C12.791 141.204 6.7437 137.378 4.85217 136.537C5.3143 151.304 4.33441 167.535 4.72077 182.449C4.87163 188.275 4.36 195.973 5.10474 201.62ZM360.708 352.255C360.589 357.129 360.421 414.735 360.674 415.277C374.043 407.4 388.668 397.543 401.924 389.177L529.229 308.489C533.315 305.878 561.435 288.836 563.155 286.372C564.131 281.788 563.961 262.313 563.831 256.774C563.626 248.125 564.278 234.418 563.636 226.165L563.442 225.953C558.08 228.817 551.64 233.179 546.377 236.486L522.843 251.115L449.629 296.795L389.405 334.455L370.722 345.899C368.237 347.411 362.582 350.674 360.708 352.255ZM488.04 163.92C502.157 162.512 517.277 158.048 526.775 146.808C535.796 136.137 531.734 123.484 521.434 115.636C508.402 105.707 491.255 102.879 475.207 104.168C461.288 105.732 446.629 109.628 437.359 120.927C428.564 131.652 431.751 143.62 442.571 152.169C454.247 161.396 472.538 164.89 487.46 164.061C487.654 164.014 487.845 163.967 488.04 163.92ZM148.34 79.1901C152.239 70.7905 150.132 63.9431 150.777 54.6688C139.29 68.0358 124.787 74.0397 107.229 75.5743C91.1606 76.9784 70.9674 72.8161 58.2738 62.2202C56.2911 60.5652 52.2401 55.5876 50.7834 54.6715C50.7865 66.6692 48.7223 77.5166 58.3595 86.633C79.3909 106.528 122.514 106.731 142.978 86.35C145.116 84.2469 146.924 81.8328 148.34 79.1901ZM530.059 170.577C533.062 162.416 531.202 155.609 531.99 147.355C521.246 160.162 506.798 166.564 490.183 167.932C469.964 169.597 446.329 165.179 433.048 148.494C432.738 148.101 432.799 148.211 432.287 147.833C432.243 161.061 429.912 168.019 439.858 178.725C459.732 200.116 516.287 198.833 530.059 170.577ZM529.594 200.254C533.001 193.242 532.042 184.364 531.984 176.374C521.232 189.451 507.225 195.704 490.392 197.451C474.029 199.15 454.169 195.81 440.916 185.35C437.735 182.838 434.209 178.193 432.185 176.593C432.175 189.092 429.987 198.457 439.82 208.017C461.466 229.059 514.259 228.012 529.594 200.254ZM148.709 107.645C151.776 100.083 150.219 92.4984 150.598 84.2373C128.994 110.675 85.3645 112.548 58.7056 92.5137C57.1355 91.3338 51.3186 84.8756 50.7879 84.6691C50.7029 96.7255 48.9018 105.574 58.3308 115.181C79.3913 136.642 133.51 136.24 148.709 107.645ZM96.5055 10.2956C82.2268 11.3745 66.6908 15.8002 56.7898 26.6989C47.4345 36.9965 49.9015 50.1386 60.2882 58.5303C72.179 68.1375 89.5629 72.2926 104.587 71.3253C118.59 71.0359 134.405 65.5998 144.356 55.4224C153.819 45.7439 152.408 33.2848 142.723 24.3537C131.105 13.6411 112.057 8.71463 96.5055 10.2956ZM529.601 225.274C532.642 218.687 531.915 212.707 531.977 205.432C510.307 231.79 465.944 233.534 439.656 213.479C436.578 211.127 434.796 208.192 432.253 205.89C432.181 217.151 430.803 224.325 439.66 233.015C459.715 252.698 504.423 252.988 524.007 232.896C526.222 230.629 528.103 228.066 529.601 225.274ZM148.351 133.167C151.914 125.412 149.909 120.988 150.682 113.302C129.128 139.832 85.0321 141.362 58.5117 120.861C56.9601 119.661 51.2302 113.244 50.7814 113.053C51.1954 124.889 49.4121 131.499 59.0247 140.957C79.6663 161.267 133.753 160.902 148.351 133.167ZM170.212 404.601C177.349 408.765 184.525 412.857 191.739 416.885L191.752 376.395C191.748 368.313 191.913 359.408 191.586 351.415C190.856 350.401 172.346 339.401 170.924 338.927L170.567 339.439L170.561 380.061C170.515 387.775 170.629 396.949 170.212 404.601ZM412.7 116.685C426.403 107.185 441.666 98.2716 455.117 88.7255C452.769 87.3125 438.103 78.9655 436.185 78.6528C428.127 83.4974 419.993 88.9198 411.894 93.8469C407.034 96.8057 397.685 102.31 393.477 105.625C395.651 106.906 411.218 116.636 412.7 116.685ZM116.946 374.47C124.004 378.692 131.378 382.515 138.424 386.768C138.167 379.727 138.17 372.648 138.222 365.6C138.332 350.831 138.001 336.025 138.17 321.26C133.53 318.366 120.492 311.393 117.282 307.936C116.625 314.451 116.95 325.141 116.949 332.08L116.946 374.47ZM194.319 289.375L174.406 277.228C171.158 278.672 166.863 281.119 163.63 282.826L143.797 293.263C136.585 297.041 124.162 302.775 117.874 306.98C122.551 306.857 134.158 316.407 139.595 319.025C150.065 313.636 160.447 308.079 170.738 302.355C178.638 298.058 186.556 293.922 194.319 289.375ZM361.858 86.3528C366.633 82.8847 371.712 79.9037 376.698 76.7436C384.675 71.6011 392.682 66.5108 400.727 61.4727C394.873 57.9631 387.794 54.7056 382.299 51.1195C370.596 57.2429 354.367 68.0498 342.998 75.0592C349.377 78.7296 355.636 82.8032 361.858 86.3528ZM121.066 247.159C118.807 248.934 111.994 252.224 109.211 253.671L82.1429 267.9C78.0427 270.078 69.4793 274.419 66.2004 277.136C69.0032 276.812 83.5678 286.976 86.2604 289.099C90.5261 286.491 95.8256 283.935 100.332 281.563C109.055 276.986 117.753 272.361 126.424 267.685C130.999 265.262 136.16 262.76 140.577 260.163C136.785 256.371 126.175 251.224 121.066 247.159ZM428.891 127.111C432.775 116.482 440.23 110.979 450.346 106.259C452.281 105.359 454.237 104.506 456.213 103.7C456.213 102.117 456.35 95.2312 455.964 94.1875L455.653 94.079L430.082 110.618C426.123 113.185 420.215 116.806 416.696 119.615C418.56 120.868 420.458 122.063 422.389 123.2C424.557 124.497 426.744 125.789 428.891 127.111ZM328.608 26.0825L307.129 38.9266C303.423 41.1352 298.566 43.764 295.19 46.2272C299.163 48.5443 303.112 50.9086 307.03 53.3189C308.368 54.1384 312.682 56.9009 313.976 57.3569L347.151 36.0691C344.899 34.6903 330.376 26.4193 328.608 26.0825ZM347.527 41.1516C338.301 47.1535 326.946 53.8626 318.215 60.0669C320.898 61.6335 323.69 63.2117 326.338 64.8213C329.768 66.9296 335.666 70.8051 339.072 72.3253C342.025 70.3198 345.062 68.4378 348.172 66.6835C348.134 63.723 348.554 42.5311 347.673 41.2645C347.636 41.2137 347.574 41.1891 347.527 41.1516ZM14.1798 250.009C14.1552 252.108 14.0815 254.21 13.9583 256.309L13.887 315.987C20.6967 319.998 27.628 323.609 34.3761 327.759C34.4023 306.605 34.9003 283.013 34.2231 261.965C33.8265 261.654 30.535 260.023 29.7059 259.501C25.2099 256.664 18.2352 253.282 14.1798 250.009ZM375.64 94.8316C380.043 97.4375 385.023 100.532 389.491 102.911C393.446 100.456 397.631 97.7627 401.634 95.4367C401.645 92.0506 401.935 67.4364 401.303 66.4753C389.897 74.037 377.709 81.4557 366.118 88.8525C369.261 91.0205 372.432 92.8141 375.64 94.8316ZM249.522 318.407C245.228 315.305 233.934 308.397 229.433 306.229C226.322 307.332 211.891 314.98 208.424 316.912C196.697 323.448 182.899 329.807 171.544 336.626C175.455 337.145 189.411 346.388 192.778 349.108C198.894 345.422 206.521 341.64 212.91 338.244C225.199 331.786 237.403 325.175 249.522 318.407ZM85.1952 291.089C79.7674 287.153 71.7159 282.853 65.8191 279.126C65.4297 300.847 65.5945 323.953 65.7529 345.725C72.2582 349.384 79.0441 353.681 85.4976 357.149C85.716 346.487 85.1102 335.756 85.3631 325.107C85.6307 313.844 84.7368 302.294 85.1952 291.089ZM88.5431 230.773C82.5279 226.837 74.931 222.51 69.2919 218.469C58.7059 224.383 48.042 230.158 37.3028 235.793C30.3421 239.514 21.4172 244.046 14.8535 248.176C17.5768 248.138 32.4333 257.712 35.3928 259.825C53.4979 250.036 70.7459 241.35 88.5431 230.773Z" fill="#EBEBEB"/>
</svg>
