<svg width="26" height="26" viewBox="0 0 26 26" fill="none" xmlns="http://www.w3.org/2000/svg">
<path d="M13 0C10.4288 0 7.91543 0.762437 5.77759 2.1909C3.63975 3.61935 1.97351 5.64968 0.989572 8.02512C0.0056327 10.4006 -0.251811 13.0144 0.249797 15.5362C0.751405 18.0579 1.98953 20.3743 3.80762 22.1924C5.6257 24.0105 7.94208 25.2486 10.4638 25.7502C12.9856 26.2518 15.5995 25.9944 17.9749 25.0104C20.3503 24.0265 22.3807 22.3603 23.8091 20.2224C25.2376 18.0846 26 15.5712 26 13C25.996 9.5534 24.6251 6.24911 22.188 3.812C19.7509 1.37488 16.4466 0.00396997 13 0ZM24 13C24.0009 14.0145 23.8608 15.0241 23.5838 16H18.77C19.0767 14.0118 19.0767 11.9882 18.77 10H23.5838C23.8608 10.9759 24.0009 11.9855 24 13ZM9.75001 18H16.25C15.6096 20.0982 14.498 22.0223 13 23.625C11.5026 22.0218 10.391 20.098 9.75001 18ZM9.26251 16C8.91918 14.0147 8.91918 11.9853 9.26251 10H16.7475C17.0908 11.9853 17.0908 14.0147 16.7475 16H9.26251ZM2.00001 13C1.99914 11.9855 2.13923 10.9759 2.41626 10H7.23001C6.92334 11.9882 6.92334 14.0118 7.23001 16H2.41626C2.13923 15.0241 1.99914 14.0145 2.00001 13ZM16.25 8H9.75001C10.3904 5.90176 11.502 3.97773 13 2.375C14.4974 3.97815 15.609 5.90204 16.25 8ZM22.7913 8H18.3388C17.7776 5.94113 16.8318 4.00709 15.5513 2.3C17.0984 2.67166 18.5469 3.37347 19.7974 4.35732C21.0479 5.34117 22.0709 6.58379 22.7963 8H22.7913ZM10.4488 2.3C9.16825 4.00709 8.22244 5.94113 7.66126 8H3.20376C3.9291 6.58379 4.95209 5.34117 6.20261 4.35732C7.45314 3.37347 8.90162 2.67166 10.4488 2.3ZM3.20376 18H7.66126C8.22244 20.0589 9.16825 21.9929 10.4488 23.7C8.90162 23.3283 7.45314 22.6265 6.20261 21.6427C4.95209 20.6588 3.9291 19.4162 3.20376 18ZM15.5513 23.7C16.8318 21.9929 17.7776 20.0589 18.3388 18H22.7963C22.0709 19.4162 21.0479 20.6588 19.7974 21.6427C18.5469 22.6265 17.0984 23.3283 15.5513 23.7Z" fill="#66D9A6"/>
</svg>
