<svg width="24" height="24" viewBox="0 0 24 24" fill="none" xmlns="http://www.w3.org/2000/svg">
<path d="M24 1.75937V7.75937C24 8.02459 23.8946 8.27894 23.7071 8.46648C23.5196 8.65401 23.2652 8.75937 23 8.75937H17C16.7348 8.75937 16.4804 8.65401 16.2929 8.46648C16.1054 8.27894 16 8.02459 16 7.75937C16 7.49415 16.1054 7.2398 16.2929 7.05226C16.4804 6.86473 16.7348 6.75937 17 6.75937H20.5863L18.7575 4.93062C16.899 3.06363 14.3756 2.01031 11.7413 2.00187H11.685C9.07272 1.99575 6.56302 3.01821 4.69875 4.84812C4.50777 5.0264 4.25462 5.12286 3.99343 5.11687C3.73224 5.11087 3.48377 5.00291 3.30118 4.81606C3.11858 4.62922 3.01635 4.37833 3.01636 4.11707C3.01638 3.85582 3.11863 3.60495 3.30125 3.41812C5.56066 1.20986 8.59977 -0.0182818 11.759 0.000205737C14.9183 0.0186933 17.9428 1.28232 20.1763 3.51687L22 5.34562V1.75937C22 1.49415 22.1054 1.2398 22.2929 1.05226C22.4804 0.864726 22.7348 0.759369 23 0.759369C23.2652 0.759369 23.5196 0.864726 23.7071 1.05226C23.8946 1.2398 24 1.49415 24 1.75937ZM19.3013 18.6706C17.4185 20.5097 14.8867 21.5324 12.2549 21.5169C9.62312 21.5015 7.10349 20.4491 5.2425 18.5881L3.41375 16.7594H7C7.26522 16.7594 7.51957 16.654 7.70711 16.4665C7.89464 16.2789 8 16.0246 8 15.7594C8 15.4942 7.89464 15.2398 7.70711 15.0523C7.51957 14.8647 7.26522 14.7594 7 14.7594H1C0.734784 14.7594 0.48043 14.8647 0.292893 15.0523C0.105357 15.2398 0 15.4942 0 15.7594V21.7594C0 22.0246 0.105357 22.2789 0.292893 22.4665C0.48043 22.654 0.734784 22.7594 1 22.7594C1.26522 22.7594 1.51957 22.654 1.70711 22.4665C1.89464 22.2789 2 22.0246 2 21.7594V18.1731L3.82875 20.0019C6.05902 22.2434 9.08799 23.5076 12.25 23.5169H12.3162C15.4514 23.5249 18.4634 22.2976 20.7 20.1006C20.8826 19.9138 20.9849 19.6629 20.9849 19.4017C20.9849 19.1404 20.8827 18.8895 20.7001 18.7027C20.5175 18.5158 20.269 18.4079 20.0078 18.4019C19.7466 18.3959 19.4935 18.4923 19.3025 18.6706H19.3013Z" fill="#66D9A6"/>
</svg>
