<svg width="24" height="24" viewBox="0 0 24 24" fill="none" xmlns="http://www.w3.org/2000/svg">
<path d="M24 2V15C24 15.5304 23.7893 16.0391 23.4142 16.4142C23.0391 16.7893 22.5304 17 22 17H8.41375L9.7075 18.2925C9.80041 18.3854 9.87411 18.4957 9.92439 18.6171C9.97468 18.7385 10.0006 18.8686 10.0006 19C10.0006 19.1314 9.97468 19.2615 9.92439 19.3829C9.87411 19.5043 9.80041 19.6146 9.7075 19.7075C9.61459 19.8004 9.50429 19.8741 9.3829 19.9244C9.2615 19.9747 9.1314 20.0006 9 20.0006C8.8686 20.0006 8.7385 19.9747 8.6171 19.9244C8.49571 19.8741 8.38541 19.8004 8.2925 19.7075L5.2925 16.7075C5.19952 16.6146 5.12576 16.5043 5.07544 16.3829C5.02512 16.2615 4.99921 16.1314 4.99921 16C4.99921 15.8686 5.02512 15.7385 5.07544 15.6171C5.12576 15.4957 5.19952 15.3854 5.2925 15.2925L8.2925 12.2925C8.48014 12.1049 8.73464 11.9994 9 11.9994C9.26536 11.9994 9.51986 12.1049 9.7075 12.2925C9.89514 12.4801 10.0006 12.7346 10.0006 13C10.0006 13.2654 9.89514 13.5199 9.7075 13.7075L8.41375 15H22V2H8V3C8 3.26522 7.89464 3.51957 7.70711 3.70711C7.51957 3.89464 7.26522 4 7 4C6.73478 4 6.48043 3.89464 6.29289 3.70711C6.10536 3.51957 6 3.26522 6 3V2C6 1.46957 6.21071 0.960859 6.58579 0.585786C6.96086 0.210714 7.46957 0 8 0H22C22.5304 0 23.0391 0.210714 23.4142 0.585786C23.7893 0.960859 24 1.46957 24 2ZM17 20C16.7348 20 16.4804 20.1054 16.2929 20.2929C16.1054 20.4804 16 20.7348 16 21V22H2V9H15.5863L14.2925 10.2925C14.1049 10.4801 13.9994 10.7346 13.9994 11C13.9994 11.2654 14.1049 11.5199 14.2925 11.7075C14.4801 11.8951 14.7346 12.0006 15 12.0006C15.2654 12.0006 15.5199 11.8951 15.7075 11.7075L18.7075 8.7075C18.8005 8.61463 18.8742 8.50434 18.9246 8.38294C18.9749 8.26154 19.0008 8.13142 19.0008 8C19.0008 7.86858 18.9749 7.73846 18.9246 7.61706C18.8742 7.49566 18.8005 7.38537 18.7075 7.2925L15.7075 4.2925C15.5199 4.10486 15.2654 3.99944 15 3.99944C14.7346 3.99944 14.4801 4.10486 14.2925 4.2925C14.1049 4.48014 13.9994 4.73464 13.9994 5C13.9994 5.26536 14.1049 5.51986 14.2925 5.7075L15.5863 7H2C1.46957 7 0.960859 7.21071 0.585786 7.58579C0.210714 7.96086 0 8.46957 0 9V22C0 22.5304 0.210714 23.0391 0.585786 23.4142C0.960859 23.7893 1.46957 24 2 24H16C16.5304 24 17.0391 23.7893 17.4142 23.4142C17.7893 23.0391 18 22.5304 18 22V21C18 20.7348 17.8946 20.4804 17.7071 20.2929C17.5196 20.1054 17.2652 20 17 20Z" fill="#66D9A6"/>
</svg>
