<svg width="16" height="11" viewBox="0 0 16 11" fill="none" xmlns="http://www.w3.org/2000/svg">
<path d="M14.8534 1.66897C14.6789 1.01203 14.1649 0.494639 13.5122 0.319056C12.3291 0 7.58519 0 7.58519 0C7.58519 0 2.84131 0 1.65822 0.319056C1.00553 0.494667 0.491472 1.01203 0.317 1.66897C0 2.85972 0 5.34411 0 5.34411C0 5.34411 0 7.8285 0.317 9.01925C0.491472 9.67619 1.00553 10.172 1.65822 10.3476C2.84131 10.6667 7.58519 10.6667 7.58519 10.6667C7.58519 10.6667 12.3291 10.6667 13.5122 10.3476C14.1649 10.172 14.6789 9.67619 14.8534 9.01925C15.1704 7.8285 15.1704 5.34411 15.1704 5.34411C15.1704 5.34411 15.1704 2.85972 14.8534 1.66897ZM6.03367 7.59975V3.08847L9.99864 5.34417L6.03367 7.59975Z" fill="#8C94A1"/>
</svg>
